<svg width="62" height="63" viewBox="0 0 62 63" fill="none" xmlns="http://www.w3.org/2000/svg">
<path d="M14.26 45.14V47.62V48.86V50.1H33.48H52.7V47.62V46.38V45.14H14.26Z" fill="#FF6025"/>
<path d="M19.22 29.64V20.34H17.98H16.74H15.5H14.26V45.14H16.74H19.22V29.64Z" fill="#FF6025"/>
<path d="M16.74 22.82H50.22V45.14H16.74V22.82Z" fill="#F6F8F7"/>
<path d="M16.74 7.94V10.42H19.22V7.94H16.74Z" fill="#FF6025"/>
<path d="M46.5 7.94V10.42H48.98V7.94H46.5Z" fill="#FF6025"/>
<path d="M16.74 10.42V15.38H19.22V10.42H16.74Z" fill="black"/>
<path d="M46.5 10.42V15.38H48.98V10.42H46.5Z" fill="black"/>
<path d="M48.9799 15.38H46.4999H19.2199H16.7399H6.81995V17.86H13.6399H14.2599H20.4599H52.6999H55.1799V15.38H48.9799Z" fill="black"/>
<path d="M14.26 17.86V20.34H15.5H16.74H17.98H19.22H20.46V17.86H14.26Z" fill="#FFEBE3"/>
<path d="M20.46 17.86V20.34H52.7V17.86H20.46Z" fill="#FF6025"/>
<path d="M9.30005 20.34V22.82H11.78V20.96V20.34H9.30005Z" fill="#FF6025"/>
<path d="M20.46 20.34H19.22H17.98H16.74V22.82H50.22H52.7V20.34H20.46Z" fill="#FFC7B2"/>
<path d="M9.30005 25.3V27.78H11.78V25.92V25.3H9.30005Z" fill="#FF6025"/>
<path d="M9.30005 36.46V38.94H11.78V37.08V36.46H9.30005Z" fill="#FF6025"/>
<path d="M9.30005 41.42V43.9H11.78V42.04V41.42H9.30005Z" fill="#FF6025"/>
<path d="M50.22 22.82V32.12V34.6V45.14H52.7V22.82H50.22Z" fill="#FFC7B2"/>
<path d="M4.33997 17.86V47.62H6.81997V17.86H4.33997Z" fill="black"/>
<path d="M13.6399 17.86H6.81995V47.62H14.2599V17.86H13.6399ZM11.7799 20.96V22.82H9.29995V20.34H11.7799V20.96ZM11.7799 25.92V27.78H9.29995V25.3H11.7799V25.92ZM11.7799 37.08V38.94H9.29995V36.46H11.7799V37.08ZM11.7799 42.04V43.9H9.29995V41.42H11.7799V42.04Z" fill="#FFC7B2"/>
<path d="M52.7 17.86V20.34V22.82V45.14V46.38V47.62H55.18V17.86H52.7Z" fill="#FF6025"/>
<path d="M55.1801 17.86V47.62H57.6601V17.86H55.1801Z" fill="black"/>
<path d="M6.81995 47.62V50.1H9.29995V47.62H6.81995Z" fill="black"/>
<path d="M9.30005 47.62V50.1H9.92005H10.54H11.16H11.78H14.26V48.86V47.62H9.30005Z" fill="#FFC7B2"/>
<path d="M44.0201 50.1H39.06H34.1H29.14H24.18H19.22H14.26H9.30005V52.58H14.26H24.18H48.98V50.1H44.0201Z" fill="#FF6025"/>
<path d="M19.22 47.62V50.1H24.18H29.14H33.48H34.1H39.06H40.3V47.62H19.22Z" fill="#FFC7B2"/>
<path d="M44.02 47.62V50.1H46.5V47.62H44.02Z" fill="#FFC7B2"/>
<path d="M52.7 47.62H51.46V50.1H52.7H55.18V47.62H52.7Z" fill="black"/>
<path d="M11.16 50.1H10.54H9.92005H9.30005V52.58H11.78V50.1H11.16Z" fill="black"/>
<path d="M48.98 50.1V52.58H51.46V50.1H48.98Z" fill="black"/>
<path d="M11.78 52.58V55.06H14.26V52.58H11.78Z" fill="#FF6025"/>
<path d="M24.18 52.58H11.78V55.06H48.98V52.58H24.18Z" fill="black"/>
<path d="M40.3 29.64V32.12H42.78V29.64H40.3Z" fill="black"/>
<path d="M42.78 27.16V29.64H45.26V27.16H42.78Z" fill="black"/>
<path d="M19.22 29.64V32.12H21.7V29.64H19.22Z" fill="black"/>
<path d="M24.1801 29.64V32.12H26.6601V29.64H24.1801Z" fill="black"/>
<path d="M21.7 27.16V29.64H24.18V27.16H21.7Z" fill="black"/>
<path d="M45.26 29.64V32.12H47.74V29.64H45.26Z" fill="black"/>
<path d="M41.54 37.7V40.18H44.02V37.7H41.54Z" fill="black"/>
<path d="M25.42 37.7V40.18H27.9V37.7H25.42Z" fill="black"/>
<path d="M27.9 40.18V42.66H41.54V40.18H27.9Z" fill="black"/>
<path d="M16.74 5.76999V8.24999H19.22V5.76999H16.74Z" fill="#FF6025"/>
<path d="M46.5 5.76999V8.24999H48.98V5.76999H46.5Z" fill="#FF6025"/>
<path d="M23.87 6.08001V3.60001H26.35V6.08001H23.87Z" fill="#FF6025"/>
<path d="M26.35 6.08001V3.60001H28.83V6.08001H26.35Z" fill="#FF6025"/>
<path d="M39.37 6.08001V3.60001H41.85V6.08001H39.37Z" fill="#FF6025"/>
<path d="M36.89 6.08001V3.60001H39.37V6.08001H36.89Z" fill="#FF6025"/>
<path d="M28.83 3.6V1.12H36.89V3.6H28.83Z" fill="#FF6025"/>
<path d="M41.85 3.6V1.12H44.33V3.6H41.85Z" fill="#FF6025"/>
<path d="M19.22 6.08001V3.60001H21.39V6.08001H19.22Z" fill="#FF6025"/>
<path d="M44.33 6.08001V3.60001H46.5V6.08001H44.33Z" fill="#FF6025"/>
<path d="M21.39 3.6V1.12H23.87V3.6H21.39Z" fill="#FF6025"/>
</svg>
