<svg width="22" height="22" viewBox="0 0 22 22" fill="none" xmlns="http://www.w3.org/2000/svg">
<path d="M18 15V18H21V15H18Z" fill="#54D661"/>
<path fill-rule="evenodd" clip-rule="evenodd" d="M6 4V6H5C3.89543 6 3 6.89543 3 8V16C3 17.1046 3.89543 18 5 18H16.4957V13.5H19V8C19 6.89543 18.1046 6 17 6H16V4H14.5V6H7.5V4H6ZM6 10V14H6.76555V11.6H7.53111V12.4H8.29666V14H9.06221V10H8.29666V11.6H7.53111V10.8H6.76555V10H6ZM9.49284 14V10H11.7895V10.8H10.2584V11.6H11.0239V12.4H10.2584V13.2H11.7895V14H9.49284ZM12.9378 14V13.2H13.7033V14H12.9378ZM14.4689 13.2H13.7033V11.6H14.4689V13.2ZM15.2344 13.2V14H14.4689V13.2H15.2344ZM15.2344 13.2V10H16V13.2H15.2344ZM12.9378 13.2V10H12.1722V13.2H12.9378Z" fill="white"/>
</svg>
