<?xml version="1.0" encoding="UTF-8" standalone="no"?>
<!DOCTYPE svg PUBLIC "-//W3C//DTD SVG 1.1//EN" "http://www.w3.org/Graphics/SVG/1.1/DTD/svg11.dtd">
<svg width="100%" height="100%" viewBox="0 0 660 132" version="1.1" xmlns="http://www.w3.org/2000/svg" xmlns:xlink="http://www.w3.org/1999/xlink" xml:space="preserve" xmlns:serif="http://www.serif.com/" style="fill-rule:evenodd;clip-rule:evenodd;stroke-linejoin:round;stroke-miterlimit:2;">
    <g transform="matrix(1,0,0,1,-7,0)">
        <g id="Offline" transform="matrix(1,0,0,1,-72,-985)">
            <rect x="79" y="985" width="660" height="132" style="fill:none;"/>
            <g transform="matrix(1,0,0,1,79,985)">
                <rect x="648" y="36" width="12" height="12" style="fill:rgb(199,204,206);fill-opacity:0.76;fill-rule:nonzero;"/>
            </g>
            <g transform="matrix(1,0,0,1,79,985)">
                <rect x="444" y="72" width="12" height="12" style="fill:rgb(199,204,206);fill-opacity:0.89;fill-rule:nonzero;"/>
            </g>
            <g transform="matrix(1,0,0,1,79,985)">
                <rect x="420" y="84" width="12" height="12" style="fill:rgb(199,204,206);fill-opacity:0.49;fill-rule:nonzero;"/>
            </g>
            <g transform="matrix(1,0,0,1,79,985)">
                <rect x="408" y="108" width="12" height="12" style="fill:rgb(199,204,206);fill-opacity:0.6;fill-rule:nonzero;"/>
            </g>
            <g transform="matrix(1,0,0,1,79,985)">
                <rect x="408" y="120" width="12" height="12" style="fill:rgb(199,204,206);fill-opacity:0.49;fill-rule:nonzero;"/>
            </g>
            <g transform="matrix(1,0,0,1,79,985)">
                <rect x="432" y="120" width="12" height="12" style="fill:rgb(199,204,206);fill-opacity:0.69;fill-rule:nonzero;"/>
            </g>
            <g transform="matrix(1,0,0,1,79,985)">
                <rect x="444" y="120" width="12" height="12" style="fill:rgb(199,204,206);fill-opacity:0.41;fill-rule:nonzero;"/>
            </g>
            <g transform="matrix(1,0,0,1,79,985)">
                <rect x="444" y="108" width="12" height="12" style="fill:rgb(199,204,206);fill-opacity:0.82;fill-rule:nonzero;"/>
            </g>
            <g transform="matrix(1,0,0,1,79,985)">
                <rect x="456" y="108" width="12" height="12" style="fill:rgb(199,204,206);fill-rule:nonzero;"/>
            </g>
            <g transform="matrix(1,0,0,1,79,985)">
                <rect x="480" y="84" width="12" height="12" style="fill:rgb(199,204,206);fill-opacity:0.2;fill-rule:nonzero;"/>
            </g>
            <g transform="matrix(1,0,0,1,79,985)">
                <rect x="456" y="72" width="12" height="12" style="fill:rgb(199,204,206);fill-opacity:0.55;fill-rule:nonzero;"/>
            </g>
            <g transform="matrix(1,0,0,1,79,985)">
                <rect x="456" y="60" width="12" height="12" style="fill:rgb(199,204,206);fill-opacity:0.64;fill-rule:nonzero;"/>
            </g>
            <g transform="matrix(1,0,0,1,79,985)">
                <rect x="492" y="96" width="12" height="12" style="fill:rgb(199,204,206);fill-opacity:0.24;fill-rule:nonzero;"/>
            </g>
            <g transform="matrix(1,0,0,1,79,985)">
                <path d="M468,108L468,120L480,120L480,108L468,108ZM468,120L468,132L480,132L480,120L468,120Z" style="fill:rgb(199,204,206);fill-opacity:0.42;fill-rule:nonzero;"/>
            </g>
            <g transform="matrix(1,0,0,1,79,985)">
                <rect x="492" y="120" width="12" height="12" style="fill:rgb(199,204,206);fill-opacity:0.78;fill-rule:nonzero;"/>
            </g>
            <g transform="matrix(1,0,0,1,79,985)">
                <rect x="480" y="120" width="12" height="12" style="fill:rgb(199,204,206);fill-opacity:0.81;fill-rule:nonzero;"/>
            </g>
            <g transform="matrix(1,0,0,1,79,985)">
                <rect x="480" y="108" width="12" height="12" style="fill:rgb(199,204,206);fill-opacity:0.51;fill-rule:nonzero;"/>
            </g>
            <g transform="matrix(1,0,0,1,79,985)">
                <rect x="480" y="96" width="12" height="12" style="fill:rgb(199,204,206);fill-opacity:0.89;fill-rule:nonzero;"/>
            </g>
            <g transform="matrix(1,0,0,1,79,985)">
                <rect x="528" y="120" width="12" height="12" style="fill:rgb(199,204,206);fill-opacity:0.47;fill-rule:nonzero;"/>
            </g>
            <g transform="matrix(1,0,0,1,79,985)">
                <rect x="516" y="120" width="12" height="12" style="fill:rgb(199,204,206);fill-opacity:0.52;fill-rule:nonzero;"/>
            </g>
            <g transform="matrix(1,0,0,1,79,985)">
                <rect x="516" y="108" width="12" height="12" style="fill:rgb(199,204,206);fill-opacity:0.28;fill-rule:nonzero;"/>
            </g>
            <g transform="matrix(1,0,0,1,79,985)">
                <rect x="468" y="96" width="12" height="12" style="fill:rgb(199,204,206);fill-opacity:0.88;fill-rule:nonzero;"/>
            </g>
            <g transform="matrix(1,0,0,1,79,985)">
                <rect x="396" y="96" width="12" height="12" style="fill:rgb(199,204,206);fill-opacity:0.94;fill-rule:nonzero;"/>
            </g>
            <g transform="matrix(1,0,0,1,79,985)">
                <rect x="396" y="108" width="12" height="12" style="fill:rgb(199,204,206);fill-opacity:0.43;fill-rule:nonzero;"/>
            </g>
            <g transform="matrix(1,0,0,1,79,985)">
                <rect x="396" y="120" width="12" height="12" style="fill:rgb(199,204,206);fill-opacity:0.37;fill-rule:nonzero;"/>
            </g>
            <g transform="matrix(1,0,0,1,79,985)">
                <rect x="372" y="84" width="12" height="12" style="fill:rgb(199,204,206);fill-opacity:0.56;fill-rule:nonzero;"/>
            </g>
            <g transform="matrix(1,0,0,1,79,985)">
                <rect x="396" y="72" width="12" height="12" style="fill:rgb(199,204,206);fill-opacity:0.32;fill-rule:nonzero;"/>
            </g>
            <g transform="matrix(1,0,0,1,79,985)">
                <rect x="372" y="120" width="12" height="12" style="fill:rgb(199,204,206);fill-opacity:0.88;fill-rule:nonzero;"/>
            </g>
            <g transform="matrix(1,0,0,1,79,985)">
                <rect x="360" y="96" width="12" height="12" style="fill:rgb(199,204,206);fill-opacity:0.22;fill-rule:nonzero;"/>
            </g>
            <g transform="matrix(1,0,0,1,79,985)">
                <rect x="360" y="120" width="12" height="12" style="fill:rgb(199,204,206);fill-opacity:0.2;fill-rule:nonzero;"/>
            </g>
            <g transform="matrix(1,0,0,1,79,985)">
                <rect x="360" y="108" width="12" height="12" style="fill:rgb(199,204,206);fill-opacity:0.73;fill-rule:nonzero;"/>
            </g>
            <g transform="matrix(1,0,0,1,79,985)">
                <rect x="336" y="108" width="12" height="12" style="fill:rgb(199,204,206);fill-opacity:0.88;fill-rule:nonzero;"/>
            </g>
            <g transform="matrix(1,0,0,1,79,985)">
                <rect x="336" y="96" width="12" height="12" style="fill:rgb(199,204,206);fill-opacity:0.51;fill-rule:nonzero;"/>
            </g>
            <g transform="matrix(1,0,0,1,79,985)">
                <rect x="336" y="84" width="12" height="12" style="fill:rgb(199,204,206);fill-opacity:0.25;fill-rule:nonzero;"/>
            </g>
            <g transform="matrix(1,0,0,1,79,985)">
                <rect x="324" y="108" width="12" height="12" style="fill:rgb(199,204,206);fill-opacity:0.64;fill-rule:nonzero;"/>
            </g>
            <g transform="matrix(1,0,0,1,79,985)">
                <rect x="324" y="120" width="12" height="12" style="fill:rgb(199,204,206);fill-opacity:0.68;fill-rule:nonzero;"/>
            </g>
            <g transform="matrix(1,0,0,1,79,985)">
                <rect x="312" y="108" width="12" height="12" style="fill:rgb(199,204,206);fill-opacity:0.6;fill-rule:nonzero;"/>
            </g>
            <g transform="matrix(1,0,0,1,79,985)">
                <rect x="300" y="120" width="12" height="12" style="fill:rgb(199,204,206);fill-opacity:0.81;fill-rule:nonzero;"/>
            </g>
            <g transform="matrix(1,0,0,1,79,985)">
                <rect x="276" y="120" width="12" height="12" style="fill:rgb(199,204,206);fill-opacity:0.22;fill-rule:nonzero;"/>
            </g>
            <g transform="matrix(1,0,0,1,79,985)">
                <rect x="288" y="120" width="12" height="12" style="fill:rgb(199,204,206);fill-opacity:0.3;fill-rule:nonzero;"/>
            </g>
            <g transform="matrix(1,0,0,1,79,985)">
                <rect x="36" y="84" width="12" height="12" style="fill:rgb(199,204,206);fill-opacity:0.59;fill-rule:nonzero;"/>
            </g>
            <g transform="matrix(1,0,0,1,79,985)">
                <rect x="24" y="108" width="12" height="12" style="fill:rgb(199,204,206);fill-opacity:0.52;fill-rule:nonzero;"/>
            </g>
            <g transform="matrix(1,0,0,1,79,985)">
                <rect x="24" y="120" width="12" height="12" style="fill:rgb(199,204,206);fill-opacity:0.71;fill-rule:nonzero;"/>
            </g>
            <g transform="matrix(1,0,0,1,79,985)">
                <rect x="48" y="120" width="12" height="12" style="fill:rgb(199,204,206);fill-opacity:0.79;fill-rule:nonzero;"/>
            </g>
            <g transform="matrix(1,0,0,1,79,985)">
                <rect x="60" y="120" width="12" height="12" style="fill:rgb(199,204,206);fill-opacity:0.69;fill-rule:nonzero;"/>
            </g>
            <g transform="matrix(1,0,0,1,79,985)">
                <rect x="60" y="108" width="12" height="12" style="fill:rgb(199,204,206);fill-opacity:0.45;fill-rule:nonzero;"/>
            </g>
            <g transform="matrix(1,0,0,1,79,985)">
                <rect x="72" y="108" width="12" height="12" style="fill:rgb(199,204,206);fill-opacity:0.84;fill-rule:nonzero;"/>
            </g>
            <g transform="matrix(1,0,0,1,79,985)">
                <rect x="72" y="84" width="12" height="12" style="fill:rgb(199,204,206);fill-opacity:0.76;fill-rule:nonzero;"/>
            </g>
            <g transform="matrix(1,0,0,1,79,985)">
                <rect x="84" y="84" width="12" height="12" style="fill:rgb(199,204,206);fill-opacity:0.9;fill-rule:nonzero;"/>
            </g>
            <g transform="matrix(1,0,0,1,79,985)">
                <rect x="72" y="60" width="12" height="12" style="fill:rgb(199,204,206);fill-opacity:0.81;fill-rule:nonzero;"/>
            </g>
            <g transform="matrix(1,0,0,1,79,985)">
                <rect x="108" y="96" width="12" height="12" style="fill:rgb(199,204,206);fill-opacity:0.94;fill-rule:nonzero;"/>
            </g>
            <g transform="matrix(1,0,0,1,79,985)">
                <rect x="84" y="108" width="12" height="12" style="fill:rgb(199,204,206);fill-opacity:0.97;fill-rule:nonzero;"/>
            </g>
            <g transform="matrix(1,0,0,1,79,985)">
                <rect x="84" y="120" width="12" height="12" style="fill:rgb(199,204,206);fill-opacity:0.33;fill-rule:nonzero;"/>
            </g>
            <g transform="matrix(1,0,0,1,79,985)">
                <rect x="108" y="120" width="12" height="12" style="fill:rgb(199,204,206);fill-opacity:0.62;fill-rule:nonzero;"/>
            </g>
            <g transform="matrix(1,0,0,1,79,985)">
                <rect x="96" y="120" width="12" height="12" style="fill:rgb(199,204,206);fill-opacity:0.66;fill-rule:nonzero;"/>
            </g>
            <g transform="matrix(1,0,0,1,79,985)">
                <rect x="96" y="108" width="12" height="12" style="fill:rgb(199,204,206);fill-opacity:0.54;fill-rule:nonzero;"/>
            </g>
            <g transform="matrix(1,0,0,1,79,985)">
                <rect x="96" y="96" width="12" height="12" style="fill:rgb(199,204,206);fill-opacity:0.43;fill-rule:nonzero;"/>
            </g>
            <g transform="matrix(1,0,0,1,79,985)">
                <rect x="144" y="120" width="12" height="12" style="fill:rgb(199,204,206);fill-opacity:0.23;fill-rule:nonzero;"/>
            </g>
            <g transform="matrix(1,0,0,1,79,985)">
                <rect x="132" y="120" width="12" height="12" style="fill:rgb(199,204,206);fill-rule:nonzero;"/>
            </g>
            <g transform="matrix(1,0,0,1,79,985)">
                <rect x="132" y="108" width="12" height="12" style="fill:rgb(199,204,206);fill-opacity:0.83;fill-rule:nonzero;"/>
            </g>
            <g transform="matrix(1,0,0,1,79,985)">
                <rect x="84" y="96" width="12" height="12" style="fill:rgb(199,204,206);fill-opacity:0.54;fill-rule:nonzero;"/>
            </g>
            <g transform="matrix(1,0,0,1,79,985)">
                <rect x="12" y="96" width="12" height="12" style="fill:rgb(199,204,206);fill-opacity:0.41;fill-rule:nonzero;"/>
            </g>
            <g transform="matrix(1,0,0,1,79,985)">
                <rect x="12" y="108" width="12" height="12" style="fill:rgb(199,204,206);fill-opacity:0.71;fill-rule:nonzero;"/>
            </g>
            <g transform="matrix(1,0,0,1,79,985)">
                <rect x="12" y="120" width="12" height="12" style="fill:rgb(199,204,206);fill-opacity:0.3;fill-rule:nonzero;"/>
            </g>
            <g transform="matrix(1,0,0,1,79,985)">
                <rect x="0" y="96" width="12" height="12" style="fill:rgb(199,204,206);fill-opacity:0.34;fill-rule:nonzero;"/>
            </g>
            <g transform="matrix(1,0,0,1,79,985)">
                <rect x="0" y="120" width="12" height="12" style="fill:rgb(199,204,206);fill-opacity:0.41;fill-rule:nonzero;"/>
            </g>
            <g transform="matrix(1,0,0,1,79,985)">
                <rect x="12" y="72" width="12" height="12" style="fill:rgb(199,204,206);fill-opacity:0.79;fill-rule:nonzero;"/>
            </g>
            <g transform="matrix(1,0,0,1,79,985)">
                <rect x="48" y="0" width="12" height="12" style="fill:rgb(199,204,206);fill-opacity:0.87;fill-rule:nonzero;"/>
            </g>
            <g transform="matrix(1,0,0,1,79,985)">
                <rect x="36" y="12" width="12" height="12" style="fill:rgb(199,204,206);fill-opacity:0.69;fill-rule:nonzero;"/>
            </g>
            <g transform="matrix(1,0,0,1,79,985)">
                <rect x="24" y="36" width="12" height="12" style="fill:rgb(199,204,206);fill-opacity:0.53;fill-rule:nonzero;"/>
            </g>
            <g transform="matrix(1,0,0,1,79,985)">
                <rect x="24" y="48" width="12" height="12" style="fill:rgb(199,204,206);fill-opacity:0.69;fill-rule:nonzero;"/>
            </g>
            <g transform="matrix(1,0,0,1,79,985)">
                <rect x="48" y="48" width="12" height="12" style="fill:rgb(199,204,206);fill-opacity:0.64;fill-rule:nonzero;"/>
            </g>
            <g transform="matrix(1,0,0,1,79,985)">
                <rect x="60" y="48" width="12" height="12" style="fill:rgb(199,204,206);fill-opacity:0.93;fill-rule:nonzero;"/>
            </g>
            <g transform="matrix(1,0,0,1,79,985)">
                <rect x="60" y="36" width="12" height="12" style="fill:rgb(199,204,206);fill-opacity:0.77;fill-rule:nonzero;"/>
            </g>
            <g transform="matrix(1,0,0,1,79,985)">
                <rect x="72" y="36" width="12" height="12" style="fill:rgb(199,204,206);fill-opacity:0.91;fill-rule:nonzero;"/>
            </g>
            <g transform="matrix(1,0,0,1,79,985)">
                <rect x="72" y="12" width="12" height="12" style="fill:rgb(199,204,206);fill-opacity:0.46;fill-rule:nonzero;"/>
            </g>
            <g transform="matrix(1,0,0,1,79,985)">
                <rect x="84" y="12" width="12" height="12" style="fill:rgb(199,204,206);fill-opacity:0.42;fill-rule:nonzero;"/>
            </g>
            <g transform="matrix(1,0,0,1,79,985)">
                <rect x="96" y="12" width="12" height="12" style="fill:rgb(199,204,206);fill-opacity:0.6;fill-rule:nonzero;"/>
            </g>
            <g transform="matrix(1,0,0,1,79,985)">
                <rect x="72" y="0" width="12" height="12" style="fill:rgb(199,204,206);fill-opacity:0.4;fill-rule:nonzero;"/>
            </g>
            <g transform="matrix(1,0,0,1,79,985)">
                <rect x="108" y="24" width="12" height="12" style="fill:rgb(199,204,206);fill-opacity:0.6;fill-rule:nonzero;"/>
            </g>
            <g transform="matrix(1,0,0,1,79,985)">
                <rect x="84" y="36" width="12" height="12" style="fill:rgb(199,204,206);fill-opacity:0.89;fill-rule:nonzero;"/>
            </g>
            <g transform="matrix(1,0,0,1,79,985)">
                <rect x="84" y="48" width="12" height="12" style="fill:rgb(199,204,206);fill-opacity:0.57;fill-rule:nonzero;"/>
            </g>
            <g transform="matrix(1,0,0,1,79,985)">
                <rect x="108" y="48" width="12" height="12" style="fill:rgb(199,204,206);fill-opacity:0.82;fill-rule:nonzero;"/>
            </g>
            <g transform="matrix(1,0,0,1,79,985)">
                <rect x="96" y="48" width="12" height="12" style="fill:rgb(199,204,206);fill-opacity:0.22;fill-rule:nonzero;"/>
            </g>
            <g transform="matrix(1,0,0,1,79,985)">
                <rect x="96" y="36" width="12" height="12" style="fill:rgb(199,204,206);fill-opacity:0.44;fill-rule:nonzero;"/>
            </g>
            <g transform="matrix(1,0,0,1,79,985)">
                <rect x="96" y="24" width="12" height="12" style="fill:rgb(199,204,206);fill-opacity:0.24;fill-rule:nonzero;"/>
            </g>
            <g transform="matrix(1,0,0,1,79,985)">
                <rect x="84" y="60" width="12" height="12" style="fill:rgb(199,204,206);fill-opacity:0.6;fill-rule:nonzero;"/>
            </g>
            <g transform="matrix(1,0,0,1,79,985)">
                <rect x="84" y="72" width="12" height="12" style="fill:rgb(199,204,206);fill-opacity:0.92;fill-rule:nonzero;"/>
            </g>
            <g transform="matrix(1,0,0,1,79,985)">
                <rect x="72" y="72" width="12" height="12" style="fill:rgb(199,204,206);fill-opacity:0.87;fill-rule:nonzero;"/>
            </g>
            <g transform="matrix(1,0,0,1,79,985)">
                <rect x="60" y="72" width="12" height="12" style="fill:rgb(199,204,206);fill-opacity:0.26;fill-rule:nonzero;"/>
            </g>
            <g transform="matrix(1,0,0,1,79,985)">
                <rect x="48" y="72" width="12" height="12" style="fill:rgb(199,204,206);fill-opacity:0.5;fill-rule:nonzero;"/>
            </g>
            <g transform="matrix(1,0,0,1,79,985)">
                <rect x="48" y="84" width="12" height="12" style="fill:rgb(199,204,206);fill-opacity:0.81;fill-rule:nonzero;"/>
            </g>
            <g transform="matrix(1,0,0,1,79,985)">
                <rect x="60" y="84" width="12" height="12" style="fill:rgb(199,204,206);fill-opacity:0.98;fill-rule:nonzero;"/>
            </g>
            <g transform="matrix(1,0,0,1,79,985)">
                <rect x="96" y="84" width="12" height="12" style="fill:rgb(199,204,206);fill-opacity:0.99;fill-rule:nonzero;"/>
            </g>
            <g transform="matrix(1,0,0,1,79,985)">
                <rect x="108" y="84" width="12" height="12" style="fill:rgb(199,204,206);fill-opacity:0.22;fill-rule:nonzero;"/>
            </g>
            <g transform="matrix(1,0,0,1,79,985)">
                <rect x="120" y="84" width="12" height="12" style="fill:rgb(199,204,206);fill-opacity:0.84;fill-rule:nonzero;"/>
            </g>
            <g transform="matrix(1,0,0,1,79,985)">
                <rect x="120" y="60" width="12" height="12" style="fill:rgb(199,204,206);fill-opacity:0.88;fill-rule:nonzero;"/>
            </g>
            <g transform="matrix(1,0,0,1,79,985)">
                <rect x="132" y="60" width="12" height="12" style="fill:rgb(199,204,206);fill-opacity:0.36;fill-rule:nonzero;"/>
            </g>
            <g transform="matrix(1,0,0,1,79,985)">
                <rect x="132" y="72" width="12" height="12" style="fill:rgb(199,204,206);fill-opacity:0.75;fill-rule:nonzero;"/>
            </g>
            <g transform="matrix(1,0,0,1,79,985)">
                <rect x="144" y="60" width="12" height="12" style="fill:rgb(199,204,206);fill-opacity:0.64;fill-rule:nonzero;"/>
            </g>
            <g transform="matrix(1,0,0,1,79,985)">
                <rect x="156" y="60" width="12" height="12" style="fill:rgb(199,204,206);fill-opacity:0.87;fill-rule:nonzero;"/>
            </g>
            <g transform="matrix(1,0,0,1,79,985)">
                <rect x="156" y="72" width="12" height="12" style="fill:rgb(199,204,206);fill-opacity:0.97;fill-rule:nonzero;"/>
            </g>
            <g transform="matrix(1,0,0,1,79,985)">
                <rect x="144" y="72" width="12" height="12" style="fill:rgb(199,204,206);fill-opacity:0.95;fill-rule:nonzero;"/>
            </g>
            <g transform="matrix(1,0,0,1,79,985)">
                <rect x="120" y="72" width="12" height="12" style="fill:rgb(199,204,206);fill-opacity:0.5;fill-rule:nonzero;"/>
            </g>
            <g transform="matrix(1,0,0,1,79,985)">
                <rect x="156" y="84" width="12" height="12" style="fill:rgb(199,204,206);fill-opacity:0.75;fill-rule:nonzero;"/>
            </g>
            <g transform="matrix(1,0,0,1,79,985)">
                <rect x="144" y="48" width="12" height="12" style="fill:rgb(199,204,206);fill-opacity:0.9;fill-rule:nonzero;"/>
            </g>
            <g transform="matrix(1,0,0,1,79,985)">
                <rect x="132" y="48" width="12" height="12" style="fill:rgb(199,204,206);fill-opacity:0.91;fill-rule:nonzero;"/>
            </g>
            <g transform="matrix(1,0,0,1,79,985)">
                <rect x="132" y="36" width="12" height="12" style="fill:rgb(199,204,206);fill-opacity:0.5;fill-rule:nonzero;"/>
            </g>
            <g transform="matrix(1,0,0,1,79,985)">
                <rect x="132" y="84" width="12" height="12" style="fill:rgb(199,204,206);fill-opacity:0.92;fill-rule:nonzero;"/>
            </g>
            <g transform="matrix(1,0,0,1,79,985)">
                <rect x="144" y="84" width="12" height="12" style="fill:rgb(199,204,206);fill-opacity:0.85;fill-rule:nonzero;"/>
            </g>
            <g transform="matrix(1,0,0,1,79,985)">
                <rect x="84" y="24" width="12" height="12" style="fill:rgb(199,204,206);fill-opacity:0.23;fill-rule:nonzero;"/>
            </g>
            <g transform="matrix(1,0,0,1,79,985)">
                <rect x="24" y="60" width="12" height="12" style="fill:rgb(199,204,206);fill-opacity:0.65;fill-rule:nonzero;"/>
            </g>
            <g transform="matrix(1,0,0,1,79,985)">
                <rect x="36" y="60" width="12" height="12" style="fill:rgb(199,204,206);fill-opacity:0.6;fill-rule:nonzero;"/>
            </g>
            <g transform="matrix(1,0,0,1,79,985)">
                <rect x="24" y="72" width="12" height="12" style="fill:rgb(199,204,206);fill-opacity:0.62;fill-rule:nonzero;"/>
            </g>
            <g transform="matrix(1,0,0,1,79,985)">
                <rect x="24" y="84" width="12" height="12" style="fill:rgb(199,204,206);fill-opacity:0.72;fill-rule:nonzero;"/>
            </g>
            <g transform="matrix(1,0,0,1,79,985)">
                <rect x="12" y="24" width="12" height="12" style="fill:rgb(199,204,206);fill-opacity:0.64;fill-rule:nonzero;"/>
            </g>
            <g transform="matrix(1,0,0,1,79,985)">
                <rect x="12" y="36" width="12" height="12" style="fill:rgb(199,204,206);fill-opacity:0.47;fill-rule:nonzero;"/>
            </g>
            <g transform="matrix(1,0,0,1,79,985)">
                <rect x="12" y="48" width="12" height="12" style="fill:rgb(199,204,206);fill-opacity:0.59;fill-rule:nonzero;"/>
            </g>
            <g transform="matrix(1,0,0,1,79,985)">
                <rect x="12" y="60" width="12" height="12" style="fill:rgb(199,204,206);fill-opacity:0.74;fill-rule:nonzero;"/>
            </g>
            <g transform="matrix(1,0,0,1,79,985)">
                <rect x="12" y="84" width="12" height="12" style="fill:rgb(199,204,206);fill-opacity:0.89;fill-rule:nonzero;"/>
            </g>
            <g transform="matrix(1,0,0,1,79,985)">
                <rect x="0" y="24" width="12" height="12" style="fill:rgb(199,204,206);fill-opacity:0.46;fill-rule:nonzero;"/>
            </g>
            <g transform="matrix(1,0,0,1,79,985)">
                <rect x="0" y="48" width="12" height="12" style="fill:rgb(199,204,206);fill-opacity:0.24;fill-rule:nonzero;"/>
            </g>
            <g transform="matrix(1,0,0,1,79,985)">
                <rect x="0" y="60" width="12" height="12" style="fill:rgb(199,204,206);fill-opacity:0.52;fill-rule:nonzero;"/>
            </g>
            <g transform="matrix(1,0,0,1,79,985)">
                <rect x="0" y="72" width="12" height="12" style="fill:rgb(199,204,206);fill-opacity:0.35;fill-rule:nonzero;"/>
            </g>
            <g transform="matrix(1,0,0,1,79,985)">
                <rect x="0" y="84" width="12" height="12" style="fill:rgb(199,204,206);fill-opacity:0.81;fill-rule:nonzero;"/>
            </g>
            <g transform="matrix(1,0,0,1,79,985)">
                <rect x="12" y="0" width="12" height="12" style="fill:rgb(199,204,206);fill-opacity:0.6;fill-rule:nonzero;"/>
            </g>
            <g transform="matrix(1,0,0,1,79,985)">
                <rect x="216" y="72" width="12" height="12" style="fill:rgb(199,204,206);fill-opacity:0.58;fill-rule:nonzero;"/>
            </g>
            <g transform="matrix(1,0,0,1,79,985)">
                <rect x="228" y="84" width="12" height="12" style="fill:rgb(199,204,206);fill-opacity:0.27;fill-rule:nonzero;"/>
            </g>
            <g transform="matrix(1,0,0,1,79,985)">
                <rect x="240" y="108" width="12" height="12" style="fill:rgb(199,204,206);fill-opacity:0.38;fill-rule:nonzero;"/>
            </g>
            <g transform="matrix(1,0,0,1,79,985)">
                <rect x="240" y="120" width="12" height="12" style="fill:rgb(199,204,206);fill-opacity:0.56;fill-rule:nonzero;"/>
            </g>
            <g transform="matrix(1,0,0,1,79,985)">
                <rect x="216" y="120" width="12" height="12" style="fill:rgb(199,204,206);fill-opacity:0.55;fill-rule:nonzero;"/>
            </g>
            <g transform="matrix(1,0,0,1,79,985)">
                <rect x="204" y="120" width="12" height="12" style="fill:rgb(199,204,206);fill-opacity:0.46;fill-rule:nonzero;"/>
            </g>
            <g transform="matrix(1,0,0,1,79,985)">
                <rect x="204" y="108" width="12" height="12" style="fill:rgb(199,204,206);fill-opacity:0.67;fill-rule:nonzero;"/>
            </g>
            <g transform="matrix(1,0,0,1,79,985)">
                <rect x="192" y="108" width="12" height="12" style="fill:rgb(199,204,206);fill-opacity:0.68;fill-rule:nonzero;"/>
            </g>
            <g transform="matrix(1,0,0,1,79,985)">
                <rect x="192" y="84" width="12" height="12" style="fill:rgb(199,204,206);fill-opacity:0.79;fill-rule:nonzero;"/>
            </g>
            <g transform="matrix(1,0,0,1,79,985)">
                <rect x="180" y="84" width="12" height="12" style="fill:rgb(199,204,206);fill-opacity:0.66;fill-rule:nonzero;"/>
            </g>
            <g transform="matrix(1,0,0,1,79,985)">
                <rect x="168" y="84" width="12" height="12" style="fill:rgb(199,204,206);fill-opacity:0.89;fill-rule:nonzero;"/>
            </g>
            <g transform="matrix(1,0,0,1,79,985)">
                <rect x="192" y="60" width="12" height="12" style="fill:rgb(199,204,206);fill-opacity:0.3;fill-rule:nonzero;"/>
            </g>
            <g transform="matrix(1,0,0,1,79,985)">
                <rect x="156" y="96" width="12" height="12" style="fill:rgb(199,204,206);fill-opacity:0.77;fill-rule:nonzero;"/>
            </g>
            <g transform="matrix(1,0,0,1,79,985)">
                <rect x="180" y="108" width="12" height="12" style="fill:rgb(199,204,206);fill-opacity:0.8;fill-rule:nonzero;"/>
            </g>
            <g transform="matrix(1,0,0,1,79,985)">
                <rect x="180" y="120" width="12" height="12" style="fill:rgb(199,204,206);fill-opacity:0.63;fill-rule:nonzero;"/>
            </g>
            <g transform="matrix(1,0,0,1,79,985)">
                <rect x="156" y="120" width="12" height="12" style="fill:rgb(199,204,206);fill-opacity:0.79;fill-rule:nonzero;"/>
            </g>
            <g transform="matrix(1,0,0,1,79,985)">
                <rect x="168" y="120" width="12" height="12" style="fill:rgb(199,204,206);fill-opacity:0.77;fill-rule:nonzero;"/>
            </g>
            <g transform="matrix(1,0,0,1,79,985)">
                <rect x="168" y="108" width="12" height="12" style="fill:rgb(199,204,206);fill-opacity:0.99;fill-rule:nonzero;"/>
            </g>
            <g transform="matrix(1,0,0,1,79,985)">
                <rect x="168" y="96" width="12" height="12" style="fill:rgb(199,204,206);fill-opacity:0.44;fill-rule:nonzero;"/>
            </g>
            <g transform="matrix(1,0,0,1,79,985)">
                <rect x="120" y="120" width="12" height="12" style="fill:rgb(199,204,206);fill-opacity:0.93;fill-rule:nonzero;"/>
            </g>
            <g transform="matrix(1,0,0,1,79,985)">
                <rect x="180" y="96" width="12" height="12" style="fill:rgb(199,204,206);fill-opacity:0.7;fill-rule:nonzero;"/>
            </g>
            <g transform="matrix(1,0,0,1,79,985)">
                <rect x="252" y="96" width="12" height="12" style="fill:rgb(199,204,206);fill-opacity:0.43;fill-rule:nonzero;"/>
            </g>
            <g transform="matrix(1,0,0,1,79,985)">
                <rect x="252" y="108" width="12" height="12" style="fill:rgb(199,204,206);fill-rule:nonzero;"/>
            </g>
            <g transform="matrix(1,0,0,1,79,985)">
                <rect x="252" y="120" width="12" height="12" style="fill:rgb(199,204,206);fill-opacity:0.48;fill-rule:nonzero;"/>
            </g>
            <g transform="matrix(1,0,0,1,79,985)">
                <rect x="264" y="96" width="12" height="12" style="fill:rgb(199,204,206);fill-opacity:0.87;fill-rule:nonzero;"/>
            </g>
            <g transform="matrix(1,0,0,1,79,985)">
                <rect x="264" y="120" width="12" height="12" style="fill:rgb(199,204,206);fill-opacity:0.32;fill-rule:nonzero;"/>
            </g>
            <g transform="matrix(1,0,0,1,79,985)">
                <rect x="276" y="84" width="12" height="12" style="fill:rgb(199,204,206);fill-opacity:0.35;fill-rule:nonzero;"/>
            </g>
            <g transform="matrix(1,0,0,1,79,985)">
                <rect x="252" y="72" width="12" height="12" style="fill:rgb(199,204,206);fill-opacity:0.62;fill-rule:nonzero;"/>
            </g>
            <g transform="matrix(1,0,0,1,79,985)">
                <rect x="276" y="120" width="12" height="12" style="fill:rgb(199,204,206);fill-opacity:0.47;fill-rule:nonzero;"/>
            </g>
            <g transform="matrix(1,0,0,1,79,985)">
                <rect x="288" y="96" width="12" height="12" style="fill:rgb(199,204,206);fill-opacity:0.35;fill-rule:nonzero;"/>
            </g>
            <g transform="matrix(1,0,0,1,79,985)">
                <rect x="288" y="120" width="12" height="12" style="fill:rgb(199,204,206);fill-opacity:0.93;fill-rule:nonzero;"/>
            </g>
            <g transform="matrix(1,0,0,1,79,985)">
                <rect x="288" y="108" width="12" height="12" style="fill:rgb(199,204,206);fill-opacity:0.63;fill-rule:nonzero;"/>
            </g>
            <g transform="matrix(1,0,0,1,79,985)">
                <rect x="312" y="96" width="12" height="12" style="fill:rgb(199,204,206);fill-opacity:0.39;fill-rule:nonzero;"/>
            </g>
            <g transform="matrix(1,0,0,1,79,985)">
                <rect x="312" y="84" width="12" height="12" style="fill:rgb(199,204,206);fill-opacity:0.37;fill-rule:nonzero;"/>
            </g>
            <g transform="matrix(1,0,0,1,79,985)">
                <rect x="348" y="120" width="12" height="12" style="fill:rgb(199,204,206);fill-opacity:0.74;fill-rule:nonzero;"/>
            </g>
            <g transform="matrix(1,0,0,1,79,985)">
                <rect x="360" y="120" width="12" height="12" style="fill:rgb(199,204,206);fill-opacity:0.94;fill-rule:nonzero;"/>
            </g>
            <g transform="matrix(1,0,0,1,79,985)">
                <rect x="624" y="72" width="12" height="12" style="fill:rgb(199,204,206);fill-opacity:0.99;fill-rule:nonzero;"/>
            </g>
            <g transform="matrix(1,0,0,1,79,985)">
                <rect x="600" y="120" width="12" height="12" style="fill:rgb(199,204,206);fill-opacity:0.25;fill-rule:nonzero;"/>
            </g>
            <g transform="matrix(1,0,0,1,79,985)">
                <rect x="624" y="120" width="12" height="12" style="fill:rgb(199,204,206);fill-opacity:0.71;fill-rule:nonzero;"/>
            </g>
            <g transform="matrix(1,0,0,1,79,985)">
                <rect x="636" y="120" width="12" height="12" style="fill:rgb(199,204,206);fill-opacity:0.86;fill-rule:nonzero;"/>
            </g>
            <g transform="matrix(1,0,0,1,79,985)">
                <rect x="648" y="60" width="12" height="12" style="fill:rgb(199,204,206);fill-opacity:0.76;fill-rule:nonzero;"/>
            </g>
            <g transform="matrix(1,0,0,1,79,985)">
                <rect x="588" y="120" width="12" height="12" style="fill:rgb(199,204,206);fill-opacity:0.29;fill-rule:nonzero;"/>
            </g>
            <g transform="matrix(1,0,0,1,79,985)">
                <rect x="576" y="120" width="12" height="12" style="fill:rgb(199,204,206);fill-opacity:0.22;fill-rule:nonzero;"/>
            </g>
            <g transform="matrix(1,0,0,1,79,985)">
                <rect x="588" y="72" width="12" height="12" style="fill:rgb(199,204,206);fill-opacity:0.89;fill-rule:nonzero;"/>
            </g>
            <g transform="matrix(1,0,0,1,79,985)">
                <rect x="564" y="120" width="12" height="12" style="fill:rgb(199,204,206);fill-opacity:0.54;fill-rule:nonzero;"/>
            </g>
            <g transform="matrix(1,0,0,1,79,985)">
                <rect x="540" y="120" width="12" height="12" style="fill:rgb(199,204,206);fill-opacity:0.59;fill-rule:nonzero;"/>
            </g>
            <g transform="matrix(1,0,0,1,79,985)">
                <rect x="552" y="120" width="12" height="12" style="fill:rgb(199,204,206);fill-opacity:0.64;fill-rule:nonzero;"/>
            </g>
            <g transform="matrix(1,0,0,1,79,985)">
                <rect x="552" y="108" width="12" height="12" style="fill:rgb(199,204,206);fill-opacity:0.47;fill-rule:nonzero;"/>
            </g>
            <g transform="matrix(1,0,0,1,79,985)">
                <rect x="528" y="108" width="12" height="12" style="fill:rgb(199,204,206);fill-opacity:0.63;fill-rule:nonzero;"/>
            </g>
            <g transform="matrix(1,0,0,1,79,985)">
                <rect x="516" y="108" width="12" height="12" style="fill:rgb(199,204,206);fill-opacity:0.65;fill-rule:nonzero;"/>
            </g>
            <g transform="matrix(1,0,0,1,79,985)">
                <rect x="504" y="108" width="12" height="12" style="fill:rgb(199,204,206);fill-opacity:0.8;fill-rule:nonzero;"/>
            </g>
            <g transform="matrix(1,0,0,1,79,985)">
                <rect x="564" y="24" width="12" height="12" style="fill:rgb(199,204,206);fill-opacity:0.98;fill-rule:nonzero;"/>
            </g>
            <g transform="matrix(1,0,0,1,79,985)">
                <rect x="576" y="36" width="12" height="12" style="fill:rgb(199,204,206);fill-opacity:0.69;fill-rule:nonzero;"/>
            </g>
            <g transform="matrix(1,0,0,1,79,985)">
                <rect x="588" y="60" width="12" height="12" style="fill:rgb(199,204,206);fill-opacity:0.34;fill-rule:nonzero;"/>
            </g>
            <g transform="matrix(1,0,0,1,79,985)">
                <rect x="564" y="72" width="12" height="12" style="fill:rgb(199,204,206);fill-opacity:0.38;fill-rule:nonzero;"/>
            </g>
            <g transform="matrix(1,0,0,1,79,985)">
                <rect x="552" y="72" width="12" height="12" style="fill:rgb(199,204,206);fill-opacity:0.97;fill-rule:nonzero;"/>
            </g>
            <g transform="matrix(1,0,0,1,79,985)">
                <rect x="552" y="60" width="12" height="12" style="fill:rgb(199,204,206);fill-opacity:0.88;fill-rule:nonzero;"/>
            </g>
            <g transform="matrix(1,0,0,1,79,985)">
                <rect x="540" y="60" width="12" height="12" style="fill:rgb(199,204,206);fill-opacity:0.51;fill-rule:nonzero;"/>
            </g>
            <g transform="matrix(1,0,0,1,79,985)">
                <rect x="540" y="36" width="12" height="12" style="fill:rgb(199,204,206);fill-opacity:0.91;fill-rule:nonzero;"/>
            </g>
            <g transform="matrix(1,0,0,1,79,985)">
                <rect x="528" y="36" width="12" height="12" style="fill:rgb(199,204,206);fill-opacity:0.36;fill-rule:nonzero;"/>
            </g>
            <g transform="matrix(1,0,0,1,79,985)">
                <rect x="516" y="36" width="12" height="12" style="fill:rgb(199,204,206);fill-opacity:0.42;fill-rule:nonzero;"/>
            </g>
            <g transform="matrix(1,0,0,1,79,985)">
                <rect x="540" y="24" width="12" height="12" style="fill:rgb(199,204,206);fill-opacity:0.47;fill-rule:nonzero;"/>
            </g>
            <g transform="matrix(1,0,0,1,79,985)">
                <rect x="540" y="12" width="12" height="12" style="fill:rgb(199,204,206);fill-opacity:0.35;fill-rule:nonzero;"/>
            </g>
            <g transform="matrix(1,0,0,1,79,985)">
                <rect x="504" y="48" width="12" height="12" style="fill:rgb(199,204,206);fill-opacity:0.21;fill-rule:nonzero;"/>
            </g>
            <g transform="matrix(1,0,0,1,79,985)">
                <rect x="528" y="60" width="12" height="12" style="fill:rgb(199,204,206);fill-opacity:0.23;fill-rule:nonzero;"/>
            </g>
            <g transform="matrix(1,0,0,1,79,985)">
                <rect x="528" y="72" width="12" height="12" style="fill:rgb(199,204,206);fill-opacity:0.75;fill-rule:nonzero;"/>
            </g>
            <g transform="matrix(1,0,0,1,79,985)">
                <rect x="504" y="72" width="12" height="12" style="fill:rgb(199,204,206);fill-opacity:0.67;fill-rule:nonzero;"/>
            </g>
            <g transform="matrix(1,0,0,1,79,985)">
                <rect x="516" y="72" width="12" height="12" style="fill:rgb(199,204,206);fill-opacity:0.42;fill-rule:nonzero;"/>
            </g>
            <g transform="matrix(1,0,0,1,79,985)">
                <rect x="516" y="60" width="12" height="12" style="fill:rgb(199,204,206);fill-opacity:0.31;fill-rule:nonzero;"/>
            </g>
            <g transform="matrix(1,0,0,1,79,985)">
                <rect x="516" y="48" width="12" height="12" style="fill:rgb(199,204,206);fill-opacity:0.78;fill-rule:nonzero;"/>
            </g>
            <g transform="matrix(1,0,0,1,79,985)">
                <rect x="564" y="108" width="12" height="12" style="fill:rgb(199,204,206);fill-opacity:0.56;fill-rule:nonzero;"/>
            </g>
            <g transform="matrix(1,0,0,1,79,985)">
                <rect x="540" y="108" width="12" height="12" style="fill:rgb(199,204,206);fill-opacity:0.85;fill-rule:nonzero;"/>
            </g>
            <g transform="matrix(1,0,0,1,79,985)">
                <rect x="492" y="108" width="12" height="12" style="fill:rgb(199,204,206);fill-opacity:0.97;fill-rule:nonzero;"/>
            </g>
            <g transform="matrix(1,0,0,1,79,985)">
                <rect x="492" y="84" width="12" height="12" style="fill:rgb(199,204,206);fill-opacity:0.34;fill-rule:nonzero;"/>
            </g>
            <g transform="matrix(1,0,0,1,79,985)">
                <rect x="480" y="84" width="12" height="12" style="fill:rgb(199,204,206);fill-opacity:0.92;fill-rule:nonzero;"/>
            </g>
            <g transform="matrix(1,0,0,1,79,985)">
                <rect x="468" y="84" width="12" height="12" style="fill:rgb(199,204,206);fill-opacity:0.2;fill-rule:nonzero;"/>
            </g>
            <g transform="matrix(1,0,0,1,79,985)">
                <rect x="456" y="84" width="12" height="12" style="fill:rgb(199,204,206);fill-opacity:0.95;fill-rule:nonzero;"/>
            </g>
            <g transform="matrix(1,0,0,1,79,985)">
                <rect x="432" y="96" width="12" height="12" style="fill:rgb(199,204,206);fill-opacity:0.8;fill-rule:nonzero;"/>
            </g>
            <g transform="matrix(1,0,0,1,79,985)">
                <rect x="456" y="96" width="12" height="12" style="fill:rgb(199,204,206);fill-opacity:0.54;fill-rule:nonzero;"/>
            </g>
            <g transform="matrix(1,0,0,1,79,985)">
                <rect x="492" y="96" width="12" height="12" style="fill:rgb(199,204,206);fill-opacity:0.89;fill-rule:nonzero;"/>
            </g>
            <g transform="matrix(1,0,0,1,79,985)">
                <rect x="468" y="72" width="12" height="12" style="fill:rgb(199,204,206);fill-opacity:0.96;fill-rule:nonzero;"/>
            </g>
            <g transform="matrix(1,0,0,1,79,985)">
                <rect x="480" y="72" width="12" height="12" style="fill:rgb(199,204,206);fill-opacity:0.35;fill-rule:nonzero;"/>
            </g>
            <g transform="matrix(1,0,0,1,79,985)">
                <rect x="480" y="60" width="12" height="12" style="fill:rgb(199,204,206);fill-opacity:0.64;fill-rule:nonzero;"/>
            </g>
            <g transform="matrix(1,0,0,1,79,985)">
                <rect x="528" y="48" width="12" height="12" style="fill:rgb(199,204,206);fill-opacity:0.29;fill-rule:nonzero;"/>
            </g>
            <g transform="matrix(1,0,0,1,79,985)">
                <rect x="600" y="48" width="12" height="12" style="fill:rgb(199,204,206);fill-opacity:0.27;fill-rule:nonzero;"/>
            </g>
            <g transform="matrix(1,0,0,1,79,985)">
                <rect x="600" y="60" width="12" height="12" style="fill:rgb(199,204,206);fill-opacity:0.89;fill-rule:nonzero;"/>
            </g>
            <g transform="matrix(1,0,0,1,79,985)">
                <rect x="600" y="72" width="12" height="12" style="fill:rgb(199,204,206);fill-opacity:0.5;fill-rule:nonzero;"/>
            </g>
            <g transform="matrix(1,0,0,1,79,985)">
                <rect x="600" y="84" width="12" height="12" style="fill:rgb(199,204,206);fill-opacity:0.3;fill-rule:nonzero;"/>
            </g>
            <g transform="matrix(1,0,0,1,79,985)">
                <rect x="612" y="48" width="12" height="12" style="fill:rgb(199,204,206);fill-opacity:0.46;fill-rule:nonzero;"/>
            </g>
            <g transform="matrix(1,0,0,1,79,985)">
                <rect x="612" y="72" width="12" height="12" style="fill:rgb(199,204,206);fill-opacity:0.75;fill-rule:nonzero;"/>
            </g>
            <g transform="matrix(1,0,0,1,79,985)">
                <rect x="624" y="36" width="12" height="12" style="fill:rgb(199,204,206);fill-opacity:0.49;fill-rule:nonzero;"/>
            </g>
            <g transform="matrix(1,0,0,1,79,985)">
                <rect x="600" y="24" width="12" height="12" style="fill:rgb(199,204,206);fill-opacity:0.88;fill-rule:nonzero;"/>
            </g>
            <g transform="matrix(1,0,0,1,79,985)">
                <rect x="636" y="48" width="12" height="12" style="fill:rgb(199,204,206);fill-opacity:0.62;fill-rule:nonzero;"/>
            </g>
            <g transform="matrix(1,0,0,1,79,985)">
                <rect x="648" y="72" width="12" height="12" style="fill:rgb(199,204,206);fill-opacity:0.22;fill-rule:nonzero;"/>
            </g>
            <g transform="matrix(1,0,0,1,79,985)">
                <rect x="636" y="72" width="12" height="12" style="fill:rgb(199,204,206);fill-opacity:0.78;fill-rule:nonzero;"/>
            </g>
            <g transform="matrix(1,0,0,1,79,985)">
                <rect x="636" y="60" width="12" height="12" style="fill:rgb(199,204,206);fill-opacity:0.51;fill-rule:nonzero;"/>
            </g>
            <g transform="matrix(1,0,0,1,79,985)">
                <rect x="576" y="96" width="12" height="12" style="fill:rgb(199,204,206);fill-opacity:0.33;fill-rule:nonzero;"/>
            </g>
            <g transform="matrix(1,0,0,1,79,985)">
                <rect x="528" y="96" width="12" height="12" style="fill:rgb(199,204,206);fill-opacity:0.99;fill-rule:nonzero;"/>
            </g>
            <g transform="matrix(1,0,0,1,79,985)">
                <rect x="540" y="96" width="12" height="12" style="fill:rgb(199,204,206);fill-opacity:0.78;fill-rule:nonzero;"/>
            </g>
            <g transform="matrix(1,0,0,1,79,985)">
                <rect x="552" y="96" width="12" height="12" style="fill:rgb(199,204,206);fill-opacity:0.26;fill-rule:nonzero;"/>
            </g>
            <g transform="matrix(1,0,0,1,79,985)">
                <rect x="564" y="96" width="12" height="12" style="fill:rgb(199,204,206);fill-opacity:0.82;fill-rule:nonzero;"/>
            </g>
            <g transform="matrix(1,0,0,1,79,985)">
                <rect x="588" y="96" width="12" height="12" style="fill:rgb(199,204,206);fill-opacity:0.44;fill-rule:nonzero;"/>
            </g>
            <g transform="matrix(1,0,0,1,79,985)">
                <rect x="600" y="96" width="12" height="12" style="fill:rgb(199,204,206);fill-opacity:0.8;fill-rule:nonzero;"/>
            </g>
            <g transform="matrix(1,0,0,1,79,985)">
                <rect x="612" y="96" width="12" height="12" style="fill:rgb(199,204,206);fill-opacity:0.35;fill-rule:nonzero;"/>
            </g>
            <g transform="matrix(1,0,0,1,79,985)">
                <rect x="564" y="84" width="12" height="12" style="fill:rgb(199,204,206);fill-opacity:0.82;fill-rule:nonzero;"/>
            </g>
            <g transform="matrix(1,0,0,1,79,985)">
                <rect x="528" y="84" width="12" height="12" style="fill:rgb(199,204,206);fill-opacity:0.96;fill-rule:nonzero;"/>
            </g>
            <g transform="matrix(1,0,0,1,79,985)">
                <rect x="588" y="84" width="12" height="12" style="fill:rgb(199,204,206);fill-rule:nonzero;"/>
            </g>
            <g transform="matrix(1,0,0,1,79,985)">
                <rect x="576" y="84" width="12" height="12" style="fill:rgb(199,204,206);fill-opacity:0.6;fill-rule:nonzero;"/>
            </g>
            <g transform="matrix(1,0,0,1,79,985)">
                <rect x="636" y="96" width="12" height="12" style="fill:rgb(199,204,206);fill-opacity:0.63;fill-rule:nonzero;"/>
            </g>
            <g transform="matrix(1,0,0,1,79,985)">
                <rect x="648" y="96" width="12" height="12" style="fill:rgb(199,204,206);fill-opacity:0.9;fill-rule:nonzero;"/>
            </g>
            <g transform="matrix(1,0,0,1,79,985)">
                <rect x="648" y="84" width="12" height="12" style="fill:rgb(199,204,206);fill-opacity:0.96;fill-rule:nonzero;"/>
            </g>
            <g transform="matrix(1,0,0,1,79,985)">
                <rect x="612" y="84" width="12" height="12" style="fill:rgb(199,204,206);fill-opacity:0.5;fill-rule:nonzero;"/>
            </g>
            <g transform="matrix(1,0,0,1,79,985)">
                <rect x="624" y="84" width="12" height="12" style="fill:rgb(199,204,206);fill-opacity:0.59;fill-rule:nonzero;"/>
            </g>
            <g transform="matrix(1,0,0,1,79,985)">
                <rect x="636" y="84" width="12" height="12" style="fill:rgb(199,204,206);fill-opacity:0.84;fill-rule:nonzero;"/>
            </g>
            <g transform="matrix(1,0,0,1,79,985)">
                <rect x="624" y="108" width="12" height="12" style="fill:rgb(199,204,206);fill-opacity:0.94;fill-rule:nonzero;"/>
            </g>
            <g transform="matrix(1,0,0,1,79,985)">
                <rect x="636" y="108" width="12" height="12" style="fill:rgb(199,204,206);fill-opacity:0.7;fill-rule:nonzero;"/>
            </g>
            <g transform="matrix(1,0,0,1,79,985)">
                <rect x="648" y="108" width="12" height="12" style="fill:rgb(199,204,206);fill-opacity:0.22;fill-rule:nonzero;"/>
            </g>
            <g transform="matrix(1,0,0,1,79,985)">
                <rect x="588" y="108" width="12" height="12" style="fill:rgb(199,204,206);fill-rule:nonzero;"/>
            </g>
            <g transform="matrix(1,0,0,1,79,985)">
                <rect x="600" y="108" width="12" height="12" style="fill:rgb(199,204,206);fill-opacity:0.41;fill-rule:nonzero;"/>
            </g>
            <g transform="matrix(1,0,0,1,79,985)">
                <rect x="612" y="108" width="12" height="12" style="fill:rgb(199,204,206);fill-opacity:0.33;fill-rule:nonzero;"/>
            </g>
        </g>
    </g>
</svg>
