<svg width="649" height="91" viewBox="0 0 649 91" fill="none" xmlns="http://www.w3.org/2000/svg">
<g clip-path="url(#clip0_610_43881)">
<path d="M144.838 92.7207V75.2207L162.338 75.2207V92.7207L144.838 92.7207Z" fill="#FF6025"/>
<path d="M127.711 58.4434V40.9434H145.211V58.4434H127.711Z" fill="#FF6025"/>
<path d="M127.711 41.2969V23.7969H145.211V41.2969H127.711Z" fill="#FF6025"/>
<path d="M161.945 41.2969V23.7969H179.445V41.2969H161.945Z" fill="#FF6025"/>
<path d="M179.062 41.2969V23.7969L196.562 23.7969V41.2969H179.062Z" fill="#FF6025"/>
<path d="M179.062 58.4434V40.9434H196.562V58.4434H179.062Z" fill="#FF6025"/>
<path d="M196.172 58.4434V40.9434H213.672V58.4434H196.172Z" fill="#FF6025"/>
<path d="M196.172 92.7227V75.2227H213.672V92.7227H196.172Z" fill="#FF6025"/>
<path d="M213.291 92.7227V75.2227H230.791V92.7227H213.291Z" fill="#FF6025"/>
<path d="M230.416 92.7227V75.2227H247.916V92.7227H230.416Z" fill="#FF6025"/>
<path d="M247.533 75.5762V58.0762H265.033V75.5762H247.533Z" fill="#FF6025"/>
<path d="M213.291 58.4434V40.9434H230.791V58.4434H213.291Z" fill="#FF6025"/>
<path d="M213.291 41.2969V23.7969H230.791V41.2969H213.291Z" fill="#FF6025"/>
<path d="M247.533 41.2969V23.7969H265.033V41.2969H247.533Z" fill="#FF6025"/>
<path d="M230.416 41.2969V23.7969H247.916V41.2969H230.416Z" fill="#FF6025"/>
<path d="M230.416 58.4434V40.9434H247.916V58.4434H230.416Z" fill="#FF6025"/>
<path d="M230.416 75.5762V58.0762H247.916V75.5762H230.416Z" fill="#FF6025"/>
<path d="M213.291 24.1543V6.6543H230.791V24.1543H213.291Z" fill="#FF6025"/>
<path d="M213.291 7.01368V-10.4863H230.791V7.01368H213.291Z" fill="#FF6025"/>
<path d="M196.172 7.01368V-10.4863L213.672 -10.4863V7.01368H196.172Z" fill="#FF6025"/>
<path d="M179.062 7.01368V-10.4863H196.562V7.01368L179.062 7.01368Z" fill="#FF6025"/>
<path d="M161.945 7.01368V-10.4863L179.445 -10.4863V7.01368H161.945Z" fill="#FF6025"/>
<path d="M161.945 -10.1289V-27.6289L179.445 -27.6289V-10.1289L161.945 -10.1289Z" fill="#FF6025"/>
<path d="M179.062 -10.1289V-27.6289L196.562 -27.6289V-10.1289H179.062Z" fill="#FF6025"/>
<path d="M196.172 -10.1289V-27.6289L213.672 -27.6289V-10.1289L196.172 -10.1289Z" fill="#FF6025"/>
<path d="M213.291 -10.1289V-27.6289L230.791 -27.6289V-10.1289H213.291Z" fill="#FF6025"/>
<path d="M230.408 -10.1289V-27.6289L247.908 -27.6289V-10.1289H230.408Z" fill="#FF6025"/>
<path d="M247.533 -10.1289V-27.6289L265.033 -27.6289V-10.1289L247.533 -10.1289Z" fill="#FF6025"/>
<path d="M264.65 -10.1289V-27.6289L282.15 -27.6289V-10.1289H264.65Z" fill="#FF6025"/>
<path d="M264.65 24.1543V6.6543L282.15 6.65431V24.1543L264.65 24.1543Z" fill="#FF6025"/>
<path d="M281.77 24.1543V6.65431H299.27V24.1543H281.77Z" fill="#FF6025"/>
<path d="M281.77 7.01368V-10.4863L299.27 -10.4863V7.01368H281.77Z" fill="#FF6025"/>
<path d="M298.879 24.1543V6.65431H316.379V24.1543H298.879Z" fill="#FF6025"/>
<path d="M315.996 24.1543V6.65431H333.496V24.1543H315.996Z" fill="#FF6025"/>
<path d="M298.879 41.2969V23.7969H316.379V41.2969H298.879Z" fill="#FF6025"/>
<path d="M281.77 41.2969V23.7969H299.27V41.2969H281.77Z" fill="#FF6025"/>
<path d="M281.77 58.4434V40.9434H299.27V58.4434H281.77Z" fill="#FF6025"/>
<path d="M281.77 -10.1289V-27.6289L299.27 -27.6289V-10.1289L281.77 -10.1289Z" fill="#FF6025"/>
<path d="M298.879 -10.1289V-27.6289L316.379 -27.6289V-10.1289L298.879 -10.1289Z" fill="#FF6025"/>
<path d="M213.291 75.5762V58.0762H230.791V75.5762H213.291Z" fill="#FF6025"/>
<path d="M127.711 24.1543V6.6543H145.211V24.1543H127.711Z" fill="#FF6025"/>
<path d="M144.828 24.1543V6.6543H162.328V24.1543H144.828Z" fill="#FF6025"/>
<path d="M127.711 7.01368V-10.4863H145.211V7.01368H127.711Z" fill="#FF6025"/>
<path d="M127.711 -10.1289V-27.6289L145.211 -27.6289V-10.1289H127.711Z" fill="#FF6025"/>
<path d="M110.602 75.5801V58.0801H128.102V75.5801H110.602Z" fill="#FF6025"/>
<path d="M110.602 58.4375V40.9375H128.102V58.4375H110.602Z" fill="#FF6025"/>
<path d="M110.602 41.293V23.793H128.102V41.293H110.602Z" fill="#FF6025"/>
<path d="M110.602 24.1543V6.6543H128.102V24.1543H110.602Z" fill="#FF6025"/>
<path d="M110.602 7.01368V-10.4863L128.102 -10.4863V7.01368H110.602Z" fill="#FF6025"/>
<path d="M110.602 -10.1289V-27.6289L128.102 -27.6289V-10.1289L110.602 -10.1289Z" fill="#FF6025"/>
<path d="M93.4844 75.5762V58.0762H110.984V75.5762H93.4844Z" fill="#FF6025"/>
<path d="M93.4844 41.291V23.791L110.984 23.791V41.291H93.4844Z" fill="#FF6025"/>
<path d="M93.4844 24.1465V6.64648L110.984 6.64649V24.1465L93.4844 24.1465Z" fill="#FF6025"/>
<path d="M93.4844 7.01172V-10.4883H110.984V7.01172L93.4844 7.01172Z" fill="#FF6025"/>
<path d="M93.4844 -10.1328V-27.6328L110.984 -27.6328V-10.1328H93.4844Z" fill="#FF6025"/>
<path d="M76.3672 92.7266V75.2266H93.8672V92.7266H76.3672Z" fill="#FF6025"/>
<path d="M76.3672 41.2969V23.7969H93.8672V41.2969H76.3672Z" fill="#FF6025"/>
<path d="M76.3672 24.1621V6.66211H93.8672V24.1621H76.3672Z" fill="#FF6025"/>
<path d="M76.3672 -10.125V-27.625L93.8672 -27.625V-10.125L76.3672 -10.125Z" fill="#FF6025"/>
<path d="M59.25 75.5762V58.0762H76.75V75.5762H59.25Z" fill="#FF6025"/>
<path d="M59.25 24.1465V6.64648H76.75V24.1465H59.25Z" fill="#FF6025"/>
<path d="M59.25 7.01172V-10.4883H76.75V7.01172H59.25Z" fill="#FF6025"/>
<path d="M59.25 -10.1328V-27.6328L76.75 -27.6328V-10.1328H59.25Z" fill="#FF6025"/>
<path d="M42.1309 24.1543V6.6543H59.6309V24.1543H42.1309Z" fill="#FF6025"/>
<path d="M42.1309 41.293V23.793H59.6309V41.293H42.1309Z" fill="#FF6025"/>
<path d="M59.2402 41.293V23.793H76.7402V41.293H59.2402Z" fill="#FF6025"/>
<path d="M59.2402 58.4375V40.9375H76.7402V58.4375H59.2402Z" fill="#FF6025"/>
<path d="M25.0137 58.4375V40.9375H42.5137V58.4375H25.0137Z" fill="#FF6025"/>
<path d="M25.0137 75.5801L25.0137 58.0801H42.5137L42.5137 75.5801H25.0137Z" fill="#FF6025"/>
<path d="M7.89648 58.4375L7.89648 40.9375H25.3965V58.4375H7.89648Z" fill="#FF6025"/>
<path d="M7.89648 41.293V23.793L25.3965 23.793V41.293H7.89648Z" fill="#FF6025"/>
<path d="M42.1309 7.01367V-10.4863H59.6309V7.01367H42.1309Z" fill="#FF6025"/>
<path d="M42.1309 -10.1289L42.1309 -27.6289L59.6309 -27.6289V-10.1289H42.1309Z" fill="#FF6025"/>
<path d="M-9.2207 24.1543L-9.2207 6.65429H8.2793V24.1543H-9.2207Z" fill="#FF6025"/>
<path d="M-9.2207 7.01367L-9.2207 -10.4863L8.2793 -10.4863L8.2793 7.01367H-9.2207Z" fill="#FF6025"/>
<path d="M7.89648 7.01367L7.89649 -10.4863H25.3965V7.01367L7.89648 7.01367Z" fill="#FF6025"/>
<path d="M25.0137 7.01367V-10.4863L42.5137 -10.4863V7.01367H25.0137Z" fill="#FF6025"/>
<path d="M-9.2207 -10.1289L-9.2207 -27.6289L8.2793 -27.6289V-10.1289L-9.2207 -10.1289Z" fill="#FF6025"/>
<path d="M7.89649 -10.1289V-27.6289L25.3965 -27.6289L25.3965 -10.1289H7.89649Z" fill="#FF6025"/>
<path d="M452.938 58.4414V40.9414H470.438V58.4414H452.938Z" fill="#FF6025"/>
<path d="M452.938 41.2969V23.7969H470.438V41.2969H452.938Z" fill="#FF6025"/>
<path d="M487.172 41.2969V23.7969H504.672V41.2969H487.172Z" fill="#FF6025"/>
<path d="M504.289 41.2969V23.7969L521.789 23.7969V41.2969H504.289Z" fill="#FF6025"/>
<path d="M504.289 58.4414V40.9414H521.789V58.4414H504.289Z" fill="#FF6025"/>
<path d="M521.398 58.4414V40.9414H538.898V58.4414H521.398Z" fill="#FF6025"/>
<path d="M521.398 92.7266V75.2266H538.898V92.7266H521.398Z" fill="#FF6025"/>
<path d="M572.76 75.5801V58.0801H590.26V75.5801H572.76Z" fill="#FF6025"/>
<path d="M538.518 58.4414V40.9414H556.018V58.4414H538.518Z" fill="#FF6025"/>
<path d="M538.518 41.2969V23.7969H556.018V41.2969H538.518Z" fill="#FF6025"/>
<path d="M572.76 41.2969V23.7969H590.26V41.2969H572.76Z" fill="#FF6025"/>
<path d="M555.643 41.2969V23.7969H573.143V41.2969H555.643Z" fill="#FF6025"/>
<path d="M555.643 58.4414V40.9414H573.143V58.4414H555.643Z" fill="#FF6025"/>
<path d="M538.518 24.1621V6.66212H556.018V24.1621H538.518Z" fill="#FF6025"/>
<path d="M538.518 7.01759V-10.4824H556.018V7.01759H538.518Z" fill="#FF6025"/>
<path d="M521.398 7.01759V-10.4824L538.898 -10.4824V7.01759H521.398Z" fill="#FF6025"/>
<path d="M504.289 7.01758V-10.4824H521.789V7.01759L504.289 7.01758Z" fill="#FF6025"/>
<path d="M487.172 7.01758V-10.4824L504.672 -10.4824V7.01758H487.172Z" fill="#FF6025"/>
<path d="M487.172 -10.125V-27.625L504.672 -27.625V-10.125L487.172 -10.125Z" fill="#FF6025"/>
<path d="M504.289 -10.125V-27.625L521.789 -27.625V-10.125H504.289Z" fill="#FF6025"/>
<path d="M521.398 -10.125V-27.625L538.898 -27.625V-10.125L521.398 -10.125Z" fill="#FF6025"/>
<path d="M538.518 -10.125V-27.625L556.018 -27.625V-10.125H538.518Z" fill="#FF6025"/>
<path d="M555.643 -10.125V-27.625L573.143 -27.625V-10.125H555.643Z" fill="#FF6025"/>
<path d="M572.76 -10.125V-27.625L590.26 -27.625V-10.125L572.76 -10.125Z" fill="#FF6025"/>
<path d="M589.877 -10.125V-27.625L607.377 -27.625V-10.125H589.877Z" fill="#FF6025"/>
<path d="M589.877 24.1621V6.66212L607.377 6.66212V24.1621L589.877 24.1621Z" fill="#FF6025"/>
<path d="M606.996 24.1621V6.66212H624.496V24.1621H606.996Z" fill="#FF6025"/>
<path d="M606.996 7.01759V-10.4824L624.496 -10.4824V7.01759H606.996Z" fill="#FF6025"/>
<path d="M624.105 24.1621V6.66212H641.605V24.1621H624.105Z" fill="#FF6025"/>
<path d="M641.223 24.1621V6.66212H658.723V24.1621H641.223Z" fill="#FF6025"/>
<path d="M624.105 41.2969V23.7969H641.605V41.2969H624.105Z" fill="#FF6025"/>
<path d="M606.996 41.2969V23.7969H624.496V41.2969H606.996Z" fill="#FF6025"/>
<path d="M606.996 58.4414V40.9414H624.496V58.4414H606.996Z" fill="#FF6025"/>
<path d="M606.996 -10.125V-27.625L624.496 -27.625V-10.125L606.996 -10.125Z" fill="#FF6025"/>
<path d="M624.105 -10.125V-27.625L641.605 -27.625V-10.125H624.105Z" fill="#FF6025"/>
<path d="M538.518 75.5801V58.0801H556.018V75.5801H538.518Z" fill="#FF6025"/>
<path d="M452.938 24.1621V6.66211H470.438V24.1621H452.938Z" fill="#FF6025"/>
<path d="M470.055 24.1621V6.66211H487.555V24.1621H470.055Z" fill="#FF6025"/>
<path d="M452.938 7.01758V-10.4824H470.438V7.01758H452.938Z" fill="#FF6025"/>
<path d="M452.938 -10.125V-27.625L470.438 -27.625V-10.125H452.938Z" fill="#FF6025"/>
<path d="M435.818 75.5801V58.0801H453.318V75.5801H435.818Z" fill="#FF6025"/>
<path d="M435.818 58.4375V40.9375H453.318V58.4375H435.818Z" fill="#FF6025"/>
<path d="M435.818 41.3008V23.8008H453.318V41.3008H435.818Z" fill="#FF6025"/>
<path d="M435.818 24.1582V6.65821H453.318V24.1582H435.818Z" fill="#FF6025"/>
<path d="M435.818 7.01368V-10.4863L453.318 -10.4863V7.01368H435.818Z" fill="#FF6025"/>
<path d="M435.818 -10.1289V-27.6289L453.318 -27.6289V-10.1289L435.818 -10.1289Z" fill="#FF6025"/>
<path d="M418.701 75.5801V58.0801H436.201V75.5801H418.701Z" fill="#FF6025"/>
<path d="M418.701 41.2949V23.7949L436.201 23.7949V41.2949H418.701Z" fill="#FF6025"/>
<path d="M418.701 24.1504V6.65039L436.201 6.65039V24.1504L418.701 24.1504Z" fill="#FF6025"/>
<path d="M418.701 7.01562V-10.4844H436.201V7.01563L418.701 7.01562Z" fill="#FF6025"/>
<path d="M418.701 -10.1289V-27.6289L436.201 -27.6289V-10.1289H418.701Z" fill="#FF6025"/>
<path d="M401.584 92.7266V75.2266H419.084V92.7266H401.584Z" fill="#FF6025"/>
<path d="M401.584 41.2969V23.7969H419.084V41.2969H401.584Z" fill="#FF6025"/>
<path d="M401.584 24.1621V6.66211H419.084V24.1621H401.584Z" fill="#FF6025"/>
<path d="M401.584 -10.125V-27.625L419.084 -27.625V-10.125L401.584 -10.125Z" fill="#FF6025"/>
<path d="M384.467 75.5801V58.0801H401.967V75.5801H384.467Z" fill="#FF6025"/>
<path d="M384.467 24.1504V6.65039H401.967V24.1504H384.467Z" fill="#FF6025"/>
<path d="M384.467 7.01562V-10.4844H401.967V7.01562H384.467Z" fill="#FF6025"/>
<path d="M384.467 -10.1289V-27.6289L401.967 -27.6289V-10.1289H384.467Z" fill="#FF6025"/>
<path d="M367.348 24.1582V6.6582H384.848V24.1582H367.348Z" fill="#FF6025"/>
<path d="M367.348 41.3008V23.8008H384.848V41.3008H367.348Z" fill="#FF6025"/>
<path d="M384.457 41.3008V23.8008H401.957V41.3008H384.457Z" fill="#FF6025"/>
<path d="M384.457 58.4375V40.9375H401.957V58.4375H384.457Z" fill="#FF6025"/>
<path d="M350.23 58.4375V40.9375H367.73V58.4375H350.23Z" fill="#FF6025"/>
<path d="M350.23 75.5801V58.0801H367.73V75.5801H350.23Z" fill="#FF6025"/>
<path d="M333.113 58.4375V40.9375H350.613V58.4375H333.113Z" fill="#FF6025"/>
<path d="M333.113 41.3008V23.8008L350.613 23.8008V41.3008H333.113Z" fill="#FF6025"/>
<path d="M367.348 7.01367V-10.4863H384.848V7.01367H367.348Z" fill="#FF6025"/>
<path d="M367.348 -10.1289V-27.6289L384.848 -27.6289V-10.1289H367.348Z" fill="#FF6025"/>
<path d="M315.996 24.1582V6.6582H333.496V24.1582H315.996Z" fill="#FF6025"/>
<path d="M315.996 7.01367V-10.4863L333.496 -10.4863V7.01367H315.996Z" fill="#FF6025"/>
<path d="M333.113 7.01367V-10.4863H350.613V7.01367L333.113 7.01367Z" fill="#FF6025"/>
<path d="M350.23 7.01367V-10.4863L367.73 -10.4863V7.01367H350.23Z" fill="#FF6025"/>
<path d="M315.996 -10.1289V-27.6289L333.496 -27.6289V-10.1289L315.996 -10.1289Z" fill="#FF6025"/>
<path d="M333.113 -10.1289V-27.6289L350.613 -27.6289V-10.1289H333.113Z" fill="#FF6025"/>
</g>
<defs>
<clipPath id="clip0_610_43881">
<rect width="649" height="91" fill="white"/>
</clipPath>
</defs>
</svg>
