<svg width="649" height="132" viewBox="0 0 649 132" fill="none" xmlns="http://www.w3.org/2000/svg">
<g clip-path="url(#clip0_763_48392)">
<rect opacity="0.76" width="12.05" height="12.05" transform="matrix(1 0 0 -1 642.562 48)" fill="#C7CCCE"/>
<rect opacity="0.89" width="12.05" height="12.05" transform="matrix(4.37114e-08 1 1 -4.37114e-08 438.562 72)" fill="#C7CCCE"/>
<rect opacity="0.49" width="12.05" height="12.05" transform="matrix(4.37114e-08 1 1 -4.37114e-08 414.562 84)" fill="#C7CCCE"/>
<rect opacity="0.6" width="12.05" height="12.05" transform="matrix(4.37114e-08 1 1 -4.37114e-08 402.562 107.996)" fill="#C7CCCE"/>
<rect opacity="0.49" width="12.05" height="12.05" transform="matrix(4.37114e-08 1 1 -4.37114e-08 402.562 120)" fill="#C7CCCE"/>
<rect opacity="0.69" width="12.05" height="12.05" transform="matrix(4.37114e-08 1 1 -4.37114e-08 426.562 120)" fill="#C7CCCE"/>
<rect opacity="0.41" width="12.05" height="12.05" transform="matrix(4.37114e-08 1 1 -4.37114e-08 438.562 120)" fill="#C7CCCE"/>
<rect opacity="0.82" width="12.05" height="12.05" transform="matrix(4.37114e-08 1 1 -4.37114e-08 438.562 107.996)" fill="#C7CCCE"/>
<rect width="12.05" height="12.05" transform="matrix(4.37114e-08 1 1 -4.37114e-08 450.562 107.996)" fill="#C7CCCE"/>
<rect opacity="0.97" width="12.05" height="12.05" transform="matrix(4.37114e-08 1 1 -4.37114e-08 450.562 84)" fill="#C7CCCE"/>
<rect opacity="0.59" width="12.05" height="12.05" transform="matrix(4.37114e-08 1 1 -4.37114e-08 462.562 84)" fill="#C7CCCE"/>
<rect opacity="0.2" width="12.05" height="12.05" transform="matrix(4.37114e-08 1 1 -4.37114e-08 474.562 84)" fill="#C7CCCE"/>
<rect opacity="0.55" width="12.05" height="12.05" transform="matrix(4.37114e-08 1 1 -4.37114e-08 450.562 72)" fill="#C7CCCE"/>
<rect opacity="0.64" width="12.05" height="12.05" transform="matrix(4.37114e-08 1 1 -4.37114e-08 450.562 60)" fill="#C7CCCE"/>
<rect opacity="0.24" width="12.05" height="12.05" transform="matrix(4.37114e-08 1 1 -4.37114e-08 486.562 96)" fill="#C7CCCE"/>
<rect opacity="0.42" width="12.05" height="12.05" transform="matrix(4.37114e-08 1 1 -4.37114e-08 462.562 107.996)" fill="#C7CCCE"/>
<rect opacity="0.42" width="12.05" height="12.05" transform="matrix(4.37114e-08 1 1 -4.37114e-08 462.562 120)" fill="#C7CCCE"/>
<rect opacity="0.78" width="12.05" height="12.05" transform="matrix(4.37114e-08 1 1 -4.37114e-08 486.562 120)" fill="#C7CCCE"/>
<rect opacity="0.81" width="12.05" height="12.05" transform="matrix(4.37114e-08 1 1 -4.37114e-08 474.562 120)" fill="#C7CCCE"/>
<rect opacity="0.51" width="12.05" height="12.05" transform="matrix(4.37114e-08 1 1 -4.37114e-08 474.562 107.996)" fill="#C7CCCE"/>
<rect opacity="0.89" width="12.05" height="12.05" transform="matrix(4.37114e-08 1 1 -4.37114e-08 474.562 96)" fill="#C7CCCE"/>
<rect opacity="0.47" width="12.05" height="12.05" transform="matrix(4.37114e-08 1 1 -4.37114e-08 522.562 120)" fill="#C7CCCE"/>
<rect opacity="0.52" width="12.05" height="12.05" transform="matrix(4.37114e-08 1 1 -4.37114e-08 510.562 120)" fill="#C7CCCE"/>
<rect opacity="0.28" width="12.05" height="12.05" transform="matrix(4.37114e-08 1 1 -4.37114e-08 510.562 107.996)" fill="#C7CCCE"/>
<rect opacity="0.88" width="12.05" height="12.05" transform="matrix(4.37114e-08 1 1 -4.37114e-08 462.562 96)" fill="#C7CCCE"/>
<rect opacity="0.94" width="12.05" height="12.05" transform="matrix(4.37114e-08 1 1 -4.37114e-08 390.562 96)" fill="#C7CCCE"/>
<rect opacity="0.43" width="12.05" height="12.05" transform="matrix(4.37114e-08 1 1 -4.37114e-08 390.562 107.996)" fill="#C7CCCE"/>
<rect opacity="0.37" width="12.05" height="12.05" transform="matrix(4.37114e-08 1 1 -4.37114e-08 390.562 120)" fill="#C7CCCE"/>
<rect opacity="0.56" width="12.05" height="12.05" transform="matrix(4.37114e-08 1 1 -4.37114e-08 366.562 84)" fill="#C7CCCE"/>
<rect opacity="0.32" width="12.05" height="12.05" transform="matrix(4.37114e-08 1 1 -4.37114e-08 390.562 71.9961)" fill="#C7CCCE"/>
<rect opacity="0.88" width="12.05" height="12.05" transform="matrix(4.37114e-08 1 1 -4.37114e-08 366.562 120.004)" fill="#C7CCCE"/>
<rect opacity="0.22" width="12.05" height="12.05" transform="matrix(4.37114e-08 1 1 -4.37114e-08 354.562 96.0039)" fill="#C7CCCE"/>
<rect opacity="0.3" width="12.05" height="12.05" transform="matrix(4.37114e-08 1 1 -4.37114e-08 342.562 120.004)" fill="#C7CCCE"/>
<rect opacity="0.2" width="12.05" height="12.05" transform="matrix(4.37114e-08 1 1 -4.37114e-08 354.562 120.004)" fill="#C7CCCE"/>
<rect opacity="0.73" width="12.05" height="12.05" transform="matrix(4.37114e-08 1 1 -4.37114e-08 354.562 108)" fill="#C7CCCE"/>
<rect opacity="0.88" width="12.05" height="12.05" transform="matrix(4.37114e-08 1 1 -4.37114e-08 330.562 107.996)" fill="#C7CCCE"/>
<rect opacity="0.51" width="12.05" height="12.05" transform="matrix(4.37114e-08 1 1 -4.37114e-08 330.562 96.0039)" fill="#C7CCCE"/>
<rect opacity="0.25" width="12.05" height="12.05" transform="matrix(4.37114e-08 1 1 -4.37114e-08 330.562 84.0039)" fill="#C7CCCE"/>
<rect opacity="0.64" width="12.05" height="12.05" transform="matrix(4.37114e-08 1 1 -4.37114e-08 318.562 107.996)" fill="#C7CCCE"/>
<rect opacity="0.68" width="12.05" height="12.05" transform="matrix(4.37114e-08 1 1 -4.37114e-08 318.562 120)" fill="#C7CCCE"/>
<rect opacity="0.6" width="12.05" height="12.05" transform="matrix(4.37114e-08 1 1 -4.37114e-08 306.555 107.996)" fill="#C7CCCE"/>
<rect opacity="0.81" width="12.05" height="12.05" transform="matrix(4.37114e-08 1 1 -4.37114e-08 294.562 120.004)" fill="#C7CCCE"/>
<rect opacity="0.22" width="12.05" height="12.05" transform="matrix(4.37114e-08 1 1 -4.37114e-08 270.562 120.004)" fill="#C7CCCE"/>
<rect opacity="0.3" width="12.05" height="12.05" transform="matrix(4.37114e-08 1 1 -4.37114e-08 282.562 120.004)" fill="#C7CCCE"/>
<rect opacity="0.46" width="12.05" height="12.05" transform="matrix(4.37114e-08 1 1 -4.37114e-08 42.5703 72)" fill="#C7CCCE"/>
<rect opacity="0.59" width="12.05" height="12.05" transform="matrix(4.37114e-08 1 1 -4.37114e-08 30.5625 84)" fill="#C7CCCE"/>
<rect opacity="0.52" width="12.05" height="12.05" transform="matrix(4.37114e-08 1 1 -4.37114e-08 18.5625 107.996)" fill="#C7CCCE"/>
<rect opacity="0.71" width="12.05" height="12.05" transform="matrix(4.37114e-08 1 1 -4.37114e-08 18.5625 120)" fill="#C7CCCE"/>
<rect opacity="0.79" width="12.05" height="12.05" transform="matrix(4.37114e-08 1 1 -4.37114e-08 42.5625 120)" fill="#C7CCCE"/>
<rect opacity="0.69" width="12.05" height="12.05" transform="matrix(4.37114e-08 1 1 -4.37114e-08 54.5625 120)" fill="#C7CCCE"/>
<rect opacity="0.45" width="12.05" height="12.05" transform="matrix(4.37114e-08 1 1 -4.37114e-08 54.5625 107.996)" fill="#C7CCCE"/>
<rect opacity="0.84" width="12.05" height="12.05" transform="matrix(4.37114e-08 1 1 -4.37114e-08 66.5625 107.996)" fill="#C7CCCE"/>
<rect opacity="0.56" width="12.05" height="12.05" transform="matrix(4.37114e-08 1 1 -4.37114e-08 66.5625 84)" fill="#C7CCCE"/>
<rect opacity="0.77" width="12.05" height="12.05" transform="matrix(4.37114e-08 1 1 -4.37114e-08 78.5625 84)" fill="#C7CCCE"/>
<rect opacity="0.3" width="12.05" height="12.05" transform="matrix(4.37114e-08 1 1 -4.37114e-08 90.5625 84)" fill="#C7CCCE"/>
<rect opacity="0.26" width="12.05" height="12.05" transform="matrix(4.37114e-08 1 1 -4.37114e-08 66.5625 72)" fill="#C7CCCE"/>
<rect opacity="0.81" width="12.05" height="12.05" transform="matrix(4.37114e-08 1 1 -4.37114e-08 66.5625 60)" fill="#C7CCCE"/>
<rect opacity="0.94" width="12.05" height="12.05" transform="matrix(4.37114e-08 1 1 -4.37114e-08 102.562 96)" fill="#C7CCCE"/>
<rect opacity="0.97" width="12.05" height="12.05" transform="matrix(4.37114e-08 1 1 -4.37114e-08 78.5625 107.996)" fill="#C7CCCE"/>
<rect opacity="0.33" width="12.05" height="12.05" transform="matrix(4.37114e-08 1 1 -4.37114e-08 78.5625 120)" fill="#C7CCCE"/>
<rect opacity="0.62" width="12.05" height="12.05" transform="matrix(4.37114e-08 1 1 -4.37114e-08 102.562 120)" fill="#C7CCCE"/>
<rect opacity="0.66" width="12.05" height="12.05" transform="matrix(4.37114e-08 1 1 -4.37114e-08 90.5625 120)" fill="#C7CCCE"/>
<rect opacity="0.54" width="12.05" height="12.05" transform="matrix(4.37114e-08 1 1 -4.37114e-08 90.5625 107.996)" fill="#C7CCCE"/>
<rect opacity="0.43" width="12.05" height="12.05" transform="matrix(4.37114e-08 1 1 -4.37114e-08 90.5625 96)" fill="#C7CCCE"/>
<rect opacity="0.23" width="12.05" height="12.05" transform="matrix(4.37114e-08 1 1 -4.37114e-08 138.562 120)" fill="#C7CCCE"/>
<rect width="12.05" height="12.05" transform="matrix(4.37114e-08 1 1 -4.37114e-08 126.562 120)" fill="#C7CCCE"/>
<rect opacity="0.83" width="12.05" height="12.05" transform="matrix(4.37114e-08 1 1 -4.37114e-08 126.562 107.996)" fill="#C7CCCE"/>
<rect opacity="0.54" width="12.05" height="12.05" transform="matrix(4.37114e-08 1 1 -4.37114e-08 78.5625 96)" fill="#C7CCCE"/>
<rect opacity="0.41" width="12.05" height="12.05" transform="matrix(4.37114e-08 1 1 -4.37114e-08 6.5625 96)" fill="#C7CCCE"/>
<rect opacity="0.71" width="12.05" height="12.05" transform="matrix(4.37114e-08 1 1 -4.37114e-08 6.5625 107.996)" fill="#C7CCCE"/>
<rect opacity="0.3" width="12.05" height="12.05" transform="matrix(4.37114e-08 1 1 -4.37114e-08 6.5625 120)" fill="#C7CCCE"/>
<rect opacity="0.34" width="12.05" height="12.05" transform="matrix(4.37114e-08 1 1 -4.37114e-08 -5.4375 96.0039)" fill="#C7CCCE"/>
<rect opacity="0.41" width="12.05" height="12.05" transform="matrix(4.37114e-08 1 1 -4.37114e-08 -5.4375 120.004)" fill="#C7CCCE"/>
<rect opacity="0.79" width="12.05" height="12.05" transform="matrix(4.37114e-08 1 1 -4.37114e-08 6.5625 71.9961)" fill="#C7CCCE"/>
<rect opacity="0.87" width="12.05" height="12.05" transform="matrix(4.37114e-08 1 1 -4.37114e-08 42.5703 0)" fill="#C7CCCE"/>
<rect opacity="0.69" width="12.05" height="12.05" transform="matrix(4.37114e-08 1 1 -4.37114e-08 30.5625 12)" fill="#C7CCCE"/>
<rect opacity="0.53" width="12.05" height="12.05" transform="matrix(4.37114e-08 1 1 -4.37114e-08 18.5625 35.9961)" fill="#C7CCCE"/>
<rect opacity="0.69" width="12.05" height="12.05" transform="matrix(4.37114e-08 1 1 -4.37114e-08 18.5625 48)" fill="#C7CCCE"/>
<rect opacity="0.64" width="12.05" height="12.05" transform="matrix(4.37114e-08 1 1 -4.37114e-08 42.5625 48)" fill="#C7CCCE"/>
<rect opacity="0.93" width="12.05" height="12.05" transform="matrix(4.37114e-08 1 1 -4.37114e-08 54.5625 48)" fill="#C7CCCE"/>
<rect opacity="0.77" width="12.05" height="12.05" transform="matrix(4.37114e-08 1 1 -4.37114e-08 54.5625 35.9961)" fill="#C7CCCE"/>
<rect opacity="0.91" width="12.05" height="12.05" transform="matrix(4.37114e-08 1 1 -4.37114e-08 66.5625 35.9961)" fill="#C7CCCE"/>
<rect opacity="0.46" width="12.05" height="12.05" transform="matrix(4.37114e-08 1 1 -4.37114e-08 66.5625 12)" fill="#C7CCCE"/>
<rect opacity="0.42" width="12.05" height="12.05" transform="matrix(4.37114e-08 1 1 -4.37114e-08 78.5625 12)" fill="#C7CCCE"/>
<rect opacity="0.6" width="12.05" height="12.05" transform="matrix(4.37114e-08 1 1 -4.37114e-08 90.5625 12)" fill="#C7CCCE"/>
<rect opacity="0.4" width="12.05" height="12.05" transform="matrix(4.37114e-08 1 1 -4.37114e-08 66.5625 0)" fill="#C7CCCE"/>
<rect opacity="0.6" width="12.05" height="12.05" transform="matrix(4.37114e-08 1 1 -4.37114e-08 102.562 24)" fill="#C7CCCE"/>
<rect opacity="0.89" width="12.05" height="12.05" transform="matrix(4.37114e-08 1 1 -4.37114e-08 78.5625 35.9961)" fill="#C7CCCE"/>
<rect opacity="0.57" width="12.05" height="12.05" transform="matrix(4.37114e-08 1 1 -4.37114e-08 78.5625 48)" fill="#C7CCCE"/>
<rect opacity="0.82" width="12.05" height="12.05" transform="matrix(4.37114e-08 1 1 -4.37114e-08 102.562 48)" fill="#C7CCCE"/>
<rect opacity="0.22" width="12.05" height="12.05" transform="matrix(4.37114e-08 1 1 -4.37114e-08 90.5625 48)" fill="#C7CCCE"/>
<rect opacity="0.44" width="12.05" height="12.05" transform="matrix(4.37114e-08 1 1 -4.37114e-08 90.5625 35.9961)" fill="#C7CCCE"/>
<rect opacity="0.24" width="12.05" height="12.05" transform="matrix(4.37114e-08 1 1 -4.37114e-08 90.5625 24)" fill="#C7CCCE"/>
<rect opacity="0.6" width="12.05" height="12.05" transform="matrix(4.37114e-08 1 1 -4.37114e-08 78.5625 60)" fill="#C7CCCE"/>
<rect opacity="0.92" width="12.05" height="12.05" transform="matrix(4.37114e-08 1 1 -4.37114e-08 78.5625 72)" fill="#C7CCCE"/>
<rect opacity="0.87" width="12.05" height="12.05" transform="matrix(4.37114e-08 1 1 -4.37114e-08 66.5625 72)" fill="#C7CCCE"/>
<rect opacity="0.26" width="12.05" height="12.05" transform="matrix(4.37114e-08 1 1 -4.37114e-08 54.5625 72)" fill="#C7CCCE"/>
<rect opacity="0.32" width="12.05" height="12.05" transform="matrix(4.37114e-08 1 1 -4.37114e-08 42.5625 72)" fill="#C7CCCE"/>
<rect opacity="0.81" width="12.05" height="12.05" transform="matrix(4.37114e-08 1 1 -4.37114e-08 42.5625 84)" fill="#C7CCCE"/>
<rect opacity="0.98" width="12.05" height="12.05" transform="matrix(4.37114e-08 1 1 -4.37114e-08 54.5625 84)" fill="#C7CCCE"/>
<rect opacity="0.85" width="12.05" height="12.05" transform="matrix(4.37114e-08 1 1 -4.37114e-08 66.5625 84)" fill="#C7CCCE"/>
<rect opacity="0.76" width="12.05" height="12.05" transform="matrix(4.37114e-08 1 1 -4.37114e-08 78.5625 84)" fill="#C7CCCE"/>
<rect opacity="0.99" width="12.05" height="12.05" transform="matrix(4.37114e-08 1 1 -4.37114e-08 90.5625 84)" fill="#C7CCCE"/>
<rect opacity="0.22" width="12.05" height="12.05" transform="matrix(4.37114e-08 1 1 -4.37114e-08 102.562 84)" fill="#C7CCCE"/>
<rect opacity="0.84" width="12.05" height="12.05" transform="matrix(4.37114e-08 1 1 -4.37114e-08 114.562 84.0039)" fill="#C7CCCE"/>
<rect opacity="0.88" width="12.05" height="12.05" transform="matrix(4.37114e-08 1 1 -4.37114e-08 114.562 60.0039)" fill="#C7CCCE"/>
<rect opacity="0.36" width="12.05" height="12.05" transform="matrix(4.37114e-08 1 1 -4.37114e-08 126.562 60.0039)" fill="#C7CCCE"/>
<rect opacity="0.75" width="12.05" height="12.05" transform="matrix(4.37114e-08 1 1 -4.37114e-08 126.562 72.0039)" fill="#C7CCCE"/>
<rect opacity="0.64" width="12.05" height="12.05" transform="matrix(4.37114e-08 1 1 -4.37114e-08 138.562 60.0039)" fill="#C7CCCE"/>
<rect opacity="0.87" width="12.05" height="12.05" transform="matrix(4.37114e-08 1 1 -4.37114e-08 150.562 60)" fill="#C7CCCE"/>
<rect opacity="0.97" width="12.05" height="12.05" transform="matrix(4.37114e-08 1 1 -4.37114e-08 150.562 72.0039)" fill="#C7CCCE"/>
<rect opacity="0.95" width="12.05" height="12.05" transform="matrix(4.37114e-08 1 1 -4.37114e-08 138.562 72.0039)" fill="#C7CCCE"/>
<rect opacity="0.5" width="12.05" height="12.05" transform="matrix(4.37114e-08 1 1 -4.37114e-08 114.562 72.0039)" fill="#C7CCCE"/>
<rect opacity="0.75" width="12.05" height="12.05" transform="matrix(4.37114e-08 1 1 -4.37114e-08 150.562 84.0039)" fill="#C7CCCE"/>
<rect opacity="0.29" width="12.05" height="12.05" transform="matrix(4.37114e-08 1 1 -4.37114e-08 162.562 84.0039)" fill="#C7CCCE"/>
<rect opacity="0.9" width="12.05" height="12.05" transform="matrix(4.37114e-08 1 1 -4.37114e-08 138.562 48)" fill="#C7CCCE"/>
<rect opacity="0.91" width="12.05" height="12.05" transform="matrix(4.37114e-08 1 1 -4.37114e-08 126.562 48)" fill="#C7CCCE"/>
<rect opacity="0.5" width="12.05" height="12.05" transform="matrix(4.37114e-08 1 1 -4.37114e-08 126.562 35.9961)" fill="#C7CCCE"/>
<rect opacity="0.92" width="12.05" height="12.05" transform="matrix(4.37114e-08 1 1 -4.37114e-08 126.562 84.0039)" fill="#C7CCCE"/>
<rect opacity="0.85" width="12.05" height="12.05" transform="matrix(4.37114e-08 1 1 -4.37114e-08 138.562 84.0039)" fill="#C7CCCE"/>
<rect opacity="0.23" width="12.05" height="12.05" transform="matrix(4.37114e-08 1 1 -4.37114e-08 78.5625 24)" fill="#C7CCCE"/>
<rect opacity="0.65" width="12.05" height="12.05" transform="matrix(4.37114e-08 1 1 -4.37114e-08 18.5625 60.0039)" fill="#C7CCCE"/>
<rect opacity="0.6" width="12.05" height="12.05" transform="matrix(4.37114e-08 1 1 -4.37114e-08 30.5625 60)" fill="#C7CCCE"/>
<rect opacity="0.62" width="12.05" height="12.05" transform="matrix(4.37114e-08 1 1 -4.37114e-08 18.5625 72)" fill="#C7CCCE"/>
<rect opacity="0.72" width="12.05" height="12.05" transform="matrix(4.37114e-08 1 1 -4.37114e-08 18.5625 84)" fill="#C7CCCE"/>
<rect opacity="0.64" width="12.05" height="12.05" transform="matrix(4.37114e-08 1 1 -4.37114e-08 6.5625 24)" fill="#C7CCCE"/>
<rect opacity="0.47" width="12.05" height="12.05" transform="matrix(4.37114e-08 1 1 -4.37114e-08 6.5625 35.9961)" fill="#C7CCCE"/>
<rect opacity="0.59" width="12.05" height="12.05" transform="matrix(4.37114e-08 1 1 -4.37114e-08 6.5625 48)" fill="#C7CCCE"/>
<rect opacity="0.74" width="12.05" height="12.05" transform="matrix(4.37114e-08 1 1 -4.37114e-08 6.5625 60)" fill="#C7CCCE"/>
<rect opacity="0.51" width="12.05" height="12.05" transform="matrix(4.37114e-08 1 1 -4.37114e-08 6.5625 72)" fill="#C7CCCE"/>
<rect opacity="0.89" width="12.05" height="12.05" transform="matrix(4.37114e-08 1 1 -4.37114e-08 6.5625 84)" fill="#C7CCCE"/>
<rect opacity="0.46" width="12.05" height="12.05" transform="matrix(4.37114e-08 1 1 -4.37114e-08 -5.4375 24.0039)" fill="#C7CCCE"/>
<rect opacity="0.24" width="12.05" height="12.05" transform="matrix(4.37114e-08 1 1 -4.37114e-08 -5.4375 48.0039)" fill="#C7CCCE"/>
<rect opacity="0.52" width="12.05" height="12.05" transform="matrix(4.37114e-08 1 1 -4.37114e-08 -5.4375 60.0039)" fill="#C7CCCE"/>
<rect opacity="0.35" width="12.05" height="12.05" transform="matrix(4.37114e-08 1 1 -4.37114e-08 -5.4375 72)" fill="#C7CCCE"/>
<rect opacity="0.81" width="12.05" height="12.05" transform="matrix(4.37114e-08 1 1 -4.37114e-08 -5.4375 84.0039)" fill="#C7CCCE"/>
<rect opacity="0.6" width="12.05" height="12.05" transform="matrix(4.37114e-08 1 1 -4.37114e-08 6.5625 -0.00390625)" fill="#C7CCCE"/>
<rect opacity="0.58" x="222.555" y="72" width="12.05" height="12.05" transform="rotate(90 222.555 72)" fill="#C7CCCE"/>
<rect opacity="0.27" x="234.562" y="84" width="12.05" height="12.05" transform="rotate(90 234.562 84)" fill="#C7CCCE"/>
<rect opacity="0.38" x="246.562" y="107.996" width="12.05" height="12.05" transform="rotate(90 246.562 107.996)" fill="#C7CCCE"/>
<rect opacity="0.56" x="246.562" y="120" width="12.05" height="12.05" transform="rotate(90 246.562 120)" fill="#C7CCCE"/>
<rect opacity="0.55" x="222.562" y="120" width="12.05" height="12.05" transform="rotate(90 222.562 120)" fill="#C7CCCE"/>
<rect opacity="0.46" x="210.562" y="120" width="12.05" height="12.05" transform="rotate(90 210.562 120)" fill="#C7CCCE"/>
<rect opacity="0.67" x="210.562" y="107.996" width="12.05" height="12.05" transform="rotate(90 210.562 107.996)" fill="#C7CCCE"/>
<rect opacity="0.68" x="198.562" y="107.996" width="12.05" height="12.05" transform="rotate(90 198.562 107.996)" fill="#C7CCCE"/>
<rect opacity="0.79" x="198.562" y="84" width="12.05" height="12.05" transform="rotate(90 198.562 84)" fill="#C7CCCE"/>
<rect opacity="0.66" x="186.562" y="84" width="12.05" height="12.05" transform="rotate(90 186.562 84)" fill="#C7CCCE"/>
<rect opacity="0.89" x="174.562" y="84" width="12.05" height="12.05" transform="rotate(90 174.562 84)" fill="#C7CCCE"/>
<rect opacity="0.3" x="198.562" y="60" width="12.05" height="12.05" transform="rotate(90 198.562 60)" fill="#C7CCCE"/>
<rect opacity="0.77" x="162.562" y="96" width="12.05" height="12.05" transform="rotate(90 162.562 96)" fill="#C7CCCE"/>
<rect opacity="0.8" x="186.562" y="107.996" width="12.05" height="12.05" transform="rotate(90 186.562 107.996)" fill="#C7CCCE"/>
<rect opacity="0.63" x="186.562" y="120" width="12.05" height="12.05" transform="rotate(90 186.562 120)" fill="#C7CCCE"/>
<rect opacity="0.79" x="162.562" y="120" width="12.05" height="12.05" transform="rotate(90 162.562 120)" fill="#C7CCCE"/>
<rect opacity="0.77" x="174.562" y="120" width="12.05" height="12.05" transform="rotate(90 174.562 120)" fill="#C7CCCE"/>
<rect opacity="0.99" x="174.562" y="107.996" width="12.05" height="12.05" transform="rotate(90 174.562 107.996)" fill="#C7CCCE"/>
<rect opacity="0.44" x="174.562" y="96" width="12.05" height="12.05" transform="rotate(90 174.562 96)" fill="#C7CCCE"/>
<rect opacity="0.93" x="126.562" y="120" width="12.05" height="12.05" transform="rotate(90 126.562 120)" fill="#C7CCCE"/>
<rect opacity="0.84" x="138.562" y="120" width="12.05" height="12.05" transform="rotate(90 138.562 120)" fill="#C7CCCE"/>
<rect opacity="0.53" x="138.562" y="107.996" width="12.05" height="12.05" transform="rotate(90 138.562 107.996)" fill="#C7CCCE"/>
<rect opacity="0.7" x="186.562" y="96" width="12.05" height="12.05" transform="rotate(90 186.562 96)" fill="#C7CCCE"/>
<rect opacity="0.43" x="258.562" y="96" width="12.05" height="12.05" transform="rotate(90 258.562 96)" fill="#C7CCCE"/>
<rect x="258.562" y="107.996" width="12.05" height="12.05" transform="rotate(90 258.562 107.996)" fill="#C7CCCE"/>
<rect opacity="0.48" x="258.562" y="120" width="12.05" height="12.05" transform="rotate(90 258.562 120)" fill="#C7CCCE"/>
<rect opacity="0.87" x="270.562" y="96.0039" width="12.05" height="12.05" transform="rotate(90 270.562 96.0039)" fill="#C7CCCE"/>
<rect opacity="0.32" x="270.562" y="120.004" width="12.05" height="12.05" transform="rotate(90 270.562 120.004)" fill="#C7CCCE"/>
<rect opacity="0.35" x="282.562" y="84" width="12.05" height="12.05" transform="rotate(90 282.562 84)" fill="#C7CCCE"/>
<rect opacity="0.62" x="258.562" y="71.9961" width="12.05" height="12.05" transform="rotate(90 258.562 71.9961)" fill="#C7CCCE"/>
<rect opacity="0.47" x="282.562" y="120.004" width="12.05" height="12.05" transform="rotate(90 282.562 120.004)" fill="#C7CCCE"/>
<rect opacity="0.35" x="294.562" y="96.0039" width="12.05" height="12.05" transform="rotate(90 294.562 96.0039)" fill="#C7CCCE"/>
<rect opacity="0.68" x="306.562" y="120.004" width="12.05" height="12.05" transform="rotate(90 306.562 120.004)" fill="#C7CCCE"/>
<rect opacity="0.93" x="294.562" y="120.004" width="12.05" height="12.05" transform="rotate(90 294.562 120.004)" fill="#C7CCCE"/>
<rect opacity="0.63" x="294.562" y="108" width="12.05" height="12.05" transform="rotate(90 294.562 108)" fill="#C7CCCE"/>
<rect opacity="0.59" x="318.562" y="107.996" width="12.05" height="12.05" transform="rotate(90 318.562 107.996)" fill="#C7CCCE"/>
<rect opacity="0.39" x="318.562" y="96.0039" width="12.05" height="12.05" transform="rotate(90 318.562 96.0039)" fill="#C7CCCE"/>
<rect opacity="0.37" x="318.562" y="84.0039" width="12.05" height="12.05" transform="rotate(90 318.562 84.0039)" fill="#C7CCCE"/>
<rect opacity="0.31" x="330.562" y="107.996" width="12.05" height="12.05" transform="rotate(90 330.562 107.996)" fill="#C7CCCE"/>
<rect opacity="0.95" x="330.562" y="120" width="12.05" height="12.05" transform="rotate(90 330.562 120)" fill="#C7CCCE"/>
<rect opacity="0.23" x="342.57" y="107.996" width="12.05" height="12.05" transform="rotate(90 342.57 107.996)" fill="#C7CCCE"/>
<rect opacity="0.74" x="354.562" y="120.004" width="12.05" height="12.05" transform="rotate(90 354.562 120.004)" fill="#C7CCCE"/>
<rect opacity="0.84" x="378.562" y="120.004" width="12.05" height="12.05" transform="rotate(90 378.562 120.004)" fill="#C7CCCE"/>
<rect opacity="0.94" x="366.562" y="120.004" width="12.05" height="12.05" transform="rotate(90 366.562 120.004)" fill="#C7CCCE"/>
<rect opacity="0.99" width="12.05" height="12.05" transform="matrix(4.37114e-08 1 1 -4.37114e-08 618.57 72)" fill="#C7CCCE"/>
<rect opacity="0.85" width="12.05" height="12.05" transform="matrix(4.37114e-08 1 1 -4.37114e-08 606.562 84)" fill="#C7CCCE"/>
<rect opacity="0.23" width="12.05" height="12.05" transform="matrix(4.37114e-08 1 1 -4.37114e-08 594.562 107.996)" fill="#C7CCCE"/>
<rect opacity="0.25" width="12.05" height="12.05" transform="matrix(4.37114e-08 1 1 -4.37114e-08 594.562 120)" fill="#C7CCCE"/>
<rect opacity="0.71" width="12.05" height="12.05" transform="matrix(4.37114e-08 1 1 -4.37114e-08 618.562 120)" fill="#C7CCCE"/>
<rect opacity="0.86" width="12.05" height="12.05" transform="matrix(4.37114e-08 1 1 -4.37114e-08 630.562 120)" fill="#C7CCCE"/>
<rect opacity="0.65" width="12.05" height="12.05" transform="matrix(4.37114e-08 1 1 -4.37114e-08 630.562 107.996)" fill="#C7CCCE"/>
<rect opacity="0.78" width="12.05" height="12.05" transform="matrix(4.37114e-08 1 1 -4.37114e-08 642.562 107.996)" fill="#C7CCCE"/>
<rect opacity="0.96" width="12.05" height="12.05" transform="matrix(4.37114e-08 1 1 -4.37114e-08 642.562 84)" fill="#C7CCCE"/>
<rect opacity="0.22" width="12.05" height="12.05" transform="matrix(4.37114e-08 1 1 -4.37114e-08 642.562 72)" fill="#C7CCCE"/>
<rect opacity="0.76" width="12.05" height="12.05" transform="matrix(4.37114e-08 1 1 -4.37114e-08 642.562 60)" fill="#C7CCCE"/>
<rect opacity="0.46" width="12.05" height="12.05" transform="matrix(4.37114e-08 1 1 -4.37114e-08 582.562 96)" fill="#C7CCCE"/>
<rect opacity="0.5" width="12.05" height="12.05" transform="matrix(4.37114e-08 1 1 -4.37114e-08 582.562 107.996)" fill="#C7CCCE"/>
<rect opacity="0.29" width="12.05" height="12.05" transform="matrix(4.37114e-08 1 1 -4.37114e-08 582.562 120)" fill="#C7CCCE"/>
<rect opacity="0.33" width="12.05" height="12.05" transform="matrix(4.37114e-08 1 1 -4.37114e-08 570.562 96.0039)" fill="#C7CCCE"/>
<rect opacity="0.22" width="12.05" height="12.05" transform="matrix(4.37114e-08 1 1 -4.37114e-08 570.562 120.004)" fill="#C7CCCE"/>
<rect opacity="0.82" width="12.05" height="12.05" transform="matrix(4.37114e-08 1 1 -4.37114e-08 558.562 84)" fill="#C7CCCE"/>
<rect opacity="0.89" width="12.05" height="12.05" transform="matrix(4.37114e-08 1 1 -4.37114e-08 582.562 71.9961)" fill="#C7CCCE"/>
<rect opacity="0.54" width="12.05" height="12.05" transform="matrix(4.37114e-08 1 1 -4.37114e-08 558.562 120.004)" fill="#C7CCCE"/>
<rect opacity="0.96" width="12.05" height="12.05" transform="matrix(4.37114e-08 1 1 -4.37114e-08 546.562 96.0039)" fill="#C7CCCE"/>
<rect opacity="0.59" width="12.05" height="12.05" transform="matrix(4.37114e-08 1 1 -4.37114e-08 534.562 120.004)" fill="#C7CCCE"/>
<rect opacity="0.64" width="12.05" height="12.05" transform="matrix(4.37114e-08 1 1 -4.37114e-08 546.562 120.004)" fill="#C7CCCE"/>
<rect opacity="0.47" width="12.05" height="12.05" transform="matrix(4.37114e-08 1 1 -4.37114e-08 546.562 108)" fill="#C7CCCE"/>
<rect opacity="0.63" width="12.05" height="12.05" transform="matrix(4.37114e-08 1 1 -4.37114e-08 522.562 107.996)" fill="#C7CCCE"/>
<rect opacity="0.93" width="12.05" height="12.05" transform="matrix(4.37114e-08 1 1 -4.37114e-08 522.562 96.0039)" fill="#C7CCCE"/>
<rect opacity="0.67" width="12.05" height="12.05" transform="matrix(4.37114e-08 1 1 -4.37114e-08 522.562 84.0039)" fill="#C7CCCE"/>
<rect opacity="0.65" width="12.05" height="12.05" transform="matrix(4.37114e-08 1 1 -4.37114e-08 510.562 107.996)" fill="#C7CCCE"/>
<rect opacity="0.38" width="12.05" height="12.05" transform="matrix(4.37114e-08 1 1 -4.37114e-08 510.562 120)" fill="#C7CCCE"/>
<rect opacity="0.8" width="12.05" height="12.05" transform="matrix(4.37114e-08 1 1 -4.37114e-08 498.555 107.996)" fill="#C7CCCE"/>
<rect opacity="0.79" width="12.05" height="12.05" transform="matrix(4.37114e-08 1 1 -4.37114e-08 486.562 120.004)" fill="#C7CCCE"/>
<rect opacity="0.73" width="12.05" height="12.05" transform="matrix(4.37114e-08 1 1 -4.37114e-08 462.562 120.004)" fill="#C7CCCE"/>
<rect opacity="0.64" width="12.05" height="12.05" transform="matrix(4.37114e-08 1 1 -4.37114e-08 474.562 120.004)" fill="#C7CCCE"/>
<rect opacity="0.98" x="570.555" y="24" width="12.05" height="12.05" transform="rotate(90 570.555 24)" fill="#C7CCCE"/>
<rect opacity="0.69" x="582.562" y="36" width="12.05" height="12.05" transform="rotate(90 582.562 36)" fill="#C7CCCE"/>
<rect opacity="0.34" x="594.562" y="59.9961" width="12.05" height="12.05" transform="rotate(90 594.562 59.9961)" fill="#C7CCCE"/>
<rect opacity="0.24" x="594.562" y="72" width="12.05" height="12.05" transform="rotate(90 594.562 72)" fill="#C7CCCE"/>
<rect opacity="0.38" x="570.562" y="72" width="12.05" height="12.05" transform="rotate(90 570.562 72)" fill="#C7CCCE"/>
<rect opacity="0.97" x="558.562" y="72" width="12.05" height="12.05" transform="rotate(90 558.562 72)" fill="#C7CCCE"/>
<rect opacity="0.88" x="558.562" y="59.9961" width="12.05" height="12.05" transform="rotate(90 558.562 59.9961)" fill="#C7CCCE"/>
<rect opacity="0.51" x="546.562" y="59.9961" width="12.05" height="12.05" transform="rotate(90 546.562 59.9961)" fill="#C7CCCE"/>
<rect opacity="0.91" x="546.562" y="36" width="12.05" height="12.05" transform="rotate(90 546.562 36)" fill="#C7CCCE"/>
<rect opacity="0.36" x="534.562" y="36" width="12.05" height="12.05" transform="rotate(90 534.562 36)" fill="#C7CCCE"/>
<rect opacity="0.42" x="522.562" y="36" width="12.05" height="12.05" transform="rotate(90 522.562 36)" fill="#C7CCCE"/>
<rect opacity="0.47" x="546.562" y="24" width="12.05" height="12.05" transform="rotate(90 546.562 24)" fill="#C7CCCE"/>
<rect opacity="0.35" x="546.562" y="12" width="12.05" height="12.05" transform="rotate(90 546.562 12)" fill="#C7CCCE"/>
<rect opacity="0.21" x="510.562" y="48" width="12.05" height="12.05" transform="rotate(90 510.562 48)" fill="#C7CCCE"/>
<rect opacity="0.23" x="534.562" y="59.9961" width="12.05" height="12.05" transform="rotate(90 534.562 59.9961)" fill="#C7CCCE"/>
<rect opacity="0.75" x="534.562" y="72" width="12.05" height="12.05" transform="rotate(90 534.562 72)" fill="#C7CCCE"/>
<rect opacity="0.67" x="510.562" y="72" width="12.05" height="12.05" transform="rotate(90 510.562 72)" fill="#C7CCCE"/>
<rect opacity="0.42" x="522.562" y="72" width="12.05" height="12.05" transform="rotate(90 522.562 72)" fill="#C7CCCE"/>
<rect opacity="0.31" x="522.562" y="59.9961" width="12.05" height="12.05" transform="rotate(90 522.562 59.9961)" fill="#C7CCCE"/>
<rect opacity="0.78" x="522.562" y="48" width="12.05" height="12.05" transform="rotate(90 522.562 48)" fill="#C7CCCE"/>
<rect opacity="0.96" x="534.562" y="84" width="12.05" height="12.05" transform="rotate(90 534.562 84)" fill="#C7CCCE"/>
<rect opacity="0.99" x="534.562" y="96" width="12.05" height="12.05" transform="rotate(90 534.562 96)" fill="#C7CCCE"/>
<rect opacity="0.78" x="546.562" y="96" width="12.05" height="12.05" transform="rotate(90 546.562 96)" fill="#C7CCCE"/>
<rect opacity="0.26" x="558.562" y="96" width="12.05" height="12.05" transform="rotate(90 558.562 96)" fill="#C7CCCE"/>
<rect opacity="0.82" x="570.562" y="96" width="12.05" height="12.05" transform="rotate(90 570.562 96)" fill="#C7CCCE"/>
<rect opacity="0.56" x="570.562" y="108" width="12.05" height="12.05" transform="rotate(90 570.562 108)" fill="#C7CCCE"/>
<rect opacity="0.26" x="558.562" y="108" width="12.05" height="12.05" transform="rotate(90 558.562 108)" fill="#C7CCCE"/>
<rect opacity="0.85" x="546.562" y="108" width="12.05" height="12.05" transform="rotate(90 546.562 108)" fill="#C7CCCE"/>
<rect opacity="0.49" x="534.562" y="108" width="12.05" height="12.05" transform="rotate(90 534.562 108)" fill="#C7CCCE"/>
<rect opacity="0.55" x="522.562" y="108" width="12.05" height="12.05" transform="rotate(90 522.562 108)" fill="#C7CCCE"/>
<rect opacity="0.97" x="510.562" y="108" width="12.05" height="12.05" transform="rotate(90 510.562 108)" fill="#C7CCCE"/>
<rect opacity="0.97" x="498.562" y="108.004" width="12.05" height="12.05" transform="rotate(90 498.562 108.004)" fill="#C7CCCE"/>
<rect opacity="0.34" x="498.562" y="84.0039" width="12.05" height="12.05" transform="rotate(90 498.562 84.0039)" fill="#C7CCCE"/>
<rect opacity="0.92" x="486.562" y="84.0039" width="12.05" height="12.05" transform="rotate(90 486.562 84.0039)" fill="#C7CCCE"/>
<rect opacity="0.75" x="486.562" y="96.0039" width="12.05" height="12.05" transform="rotate(90 486.562 96.0039)" fill="#C7CCCE"/>
<rect opacity="0.2" x="474.562" y="84.0039" width="12.05" height="12.05" transform="rotate(90 474.562 84.0039)" fill="#C7CCCE"/>
<rect opacity="0.95" x="462.562" y="84" width="12.05" height="12.05" transform="rotate(90 462.562 84)" fill="#C7CCCE"/>
<rect opacity="0.8" x="438.562" y="96" width="12.05" height="12.05" transform="rotate(90 438.562 96)" fill="#C7CCCE"/>
<rect opacity="0.54" x="462.562" y="96.0039" width="12.05" height="12.05" transform="rotate(90 462.562 96.0039)" fill="#C7CCCE"/>
<rect opacity="0.43" x="474.562" y="96.0039" width="12.05" height="12.05" transform="rotate(90 474.562 96.0039)" fill="#C7CCCE"/>
<rect opacity="0.89" x="498.562" y="96.0039" width="12.05" height="12.05" transform="rotate(90 498.562 96.0039)" fill="#C7CCCE"/>
<rect opacity="0.87" x="462.562" y="108.004" width="12.05" height="12.05" transform="rotate(90 462.562 108.004)" fill="#C7CCCE"/>
<rect opacity="0.63" x="450.562" y="108.004" width="12.05" height="12.05" transform="rotate(90 450.562 108.004)" fill="#C7CCCE"/>
<rect opacity="0.96" x="474.562" y="72" width="12.05" height="12.05" transform="rotate(90 474.562 72)" fill="#C7CCCE"/>
<rect opacity="0.35" x="486.562" y="72" width="12.05" height="12.05" transform="rotate(90 486.562 72)" fill="#C7CCCE"/>
<rect opacity="0.64" x="486.562" y="59.9961" width="12.05" height="12.05" transform="rotate(90 486.562 59.9961)" fill="#C7CCCE"/>
<rect opacity="0.74" x="486.562" y="108.004" width="12.05" height="12.05" transform="rotate(90 486.562 108.004)" fill="#C7CCCE"/>
<rect opacity="0.4" x="474.562" y="108.004" width="12.05" height="12.05" transform="rotate(90 474.562 108.004)" fill="#C7CCCE"/>
<rect opacity="0.29" x="534.562" y="48" width="12.05" height="12.05" transform="rotate(90 534.562 48)" fill="#C7CCCE"/>
<rect x="594.562" y="84.0039" width="12.05" height="12.05" transform="rotate(90 594.562 84.0039)" fill="#C7CCCE"/>
<rect opacity="0.6" x="582.562" y="84" width="12.05" height="12.05" transform="rotate(90 582.562 84)" fill="#C7CCCE"/>
<rect opacity="0.44" x="594.562" y="96" width="12.05" height="12.05" transform="rotate(90 594.562 96)" fill="#C7CCCE"/>
<rect x="594.562" y="108" width="12.05" height="12.05" transform="rotate(90 594.562 108)" fill="#C7CCCE"/>
<rect opacity="0.27" x="606.562" y="48.0039" width="12.05" height="12.05" transform="rotate(90 606.562 48.0039)" fill="#C7CCCE"/>
<rect opacity="0.89" x="606.562" y="60" width="12.05" height="12.05" transform="rotate(90 606.562 60)" fill="#C7CCCE"/>
<rect opacity="0.5" x="606.562" y="72.0039" width="12.05" height="12.05" transform="rotate(90 606.562 72.0039)" fill="#C7CCCE"/>
<rect opacity="0.3" x="606.562" y="84.0039" width="12.05" height="12.05" transform="rotate(90 606.562 84.0039)" fill="#C7CCCE"/>
<rect opacity="0.8" x="606.562" y="96.0039" width="12.05" height="12.05" transform="rotate(90 606.562 96.0039)" fill="#C7CCCE"/>
<rect opacity="0.41" x="606.562" y="108.004" width="12.05" height="12.05" transform="rotate(90 606.562 108.004)" fill="#C7CCCE"/>
<rect opacity="0.46" x="618.562" y="48.0039" width="12.05" height="12.05" transform="rotate(90 618.562 48.0039)" fill="#C7CCCE"/>
<rect opacity="0.75" x="618.562" y="72.0039" width="12.05" height="12.05" transform="rotate(90 618.562 72.0039)" fill="#C7CCCE"/>
<rect opacity="0.5" x="618.562" y="84.0039" width="12.05" height="12.05" transform="rotate(90 618.562 84.0039)" fill="#C7CCCE"/>
<rect opacity="0.35" x="618.562" y="96" width="12.05" height="12.05" transform="rotate(90 618.562 96)" fill="#C7CCCE"/>
<rect opacity="0.33" x="618.562" y="108.004" width="12.05" height="12.05" transform="rotate(90 618.562 108.004)" fill="#C7CCCE"/>
<rect opacity="0.49" x="630.562" y="36" width="12.05" height="12.05" transform="rotate(90 630.562 36)" fill="#C7CCCE"/>
<rect opacity="0.88" x="606.562" y="24" width="12.05" height="12.05" transform="rotate(90 606.562 24)" fill="#C7CCCE"/>
<rect opacity="0.2" x="630.562" y="72.0039" width="12.05" height="12.05" transform="rotate(90 630.562 72.0039)" fill="#C7CCCE"/>
<rect opacity="0.59" x="630.562" y="84.0039" width="12.05" height="12.05" transform="rotate(90 630.562 84.0039)" fill="#C7CCCE"/>
<rect opacity="0.94" x="630.562" y="108.004" width="12.05" height="12.05" transform="rotate(90 630.562 108.004)" fill="#C7CCCE"/>
<rect opacity="0.62" x="642.562" y="48.0039" width="12.05" height="12.05" transform="rotate(90 642.562 48.0039)" fill="#C7CCCE"/>
<rect opacity="0.84" x="642.562" y="84.0039" width="12.05" height="12.05" transform="rotate(90 642.562 84.0039)" fill="#C7CCCE"/>
<rect opacity="0.63" x="642.562" y="96" width="12.05" height="12.05" transform="rotate(90 642.562 96)" fill="#C7CCCE"/>
<rect opacity="0.7" x="642.562" y="108.004" width="12.05" height="12.05" transform="rotate(90 642.562 108.004)" fill="#C7CCCE"/>
<rect opacity="0.76" x="654.562" y="84" width="12.05" height="12.05" transform="rotate(90 654.562 84)" fill="#C7CCCE"/>
<rect opacity="0.22" x="654.562" y="72" width="12.05" height="12.05" transform="rotate(90 654.562 72)" fill="#C7CCCE"/>
<rect opacity="0.78" x="642.562" y="72.0039" width="12.05" height="12.05" transform="rotate(90 642.562 72.0039)" fill="#C7CCCE"/>
<rect opacity="0.51" x="642.562" y="60" width="12.05" height="12.05" transform="rotate(90 642.562 60)" fill="#C7CCCE"/>
<rect opacity="0.9" x="654.562" y="96.0039" width="12.05" height="12.05" transform="rotate(90 654.562 96.0039)" fill="#C7CCCE"/>
<rect opacity="0.22" x="654.562" y="108.004" width="12.05" height="12.05" transform="rotate(90 654.562 108.004)" fill="#C7CCCE"/>
</g>
<defs>
<clipPath id="clip0_763_48392">
<rect width="649" height="132" fill="white"/>
</clipPath>
</defs>
</svg>
