<svg width="649" height="132" viewBox="0 0 649 132" fill="none" xmlns="http://www.w3.org/2000/svg">
<g clip-path="url(#clip0_763_51792)">
<rect width="12.05" height="12.05" transform="matrix(1 0 0 -1 642.562 48)" fill="#DEE1E2"/>
<rect width="12.05" height="12.05" transform="matrix(4.37114e-08 1 1 -4.37114e-08 438.562 72)" fill="#FF6025"/>
<rect width="12.05" height="12.05" transform="matrix(4.37114e-08 1 1 -4.37114e-08 414.562 84)" fill="#FF6025"/>
<rect width="12.05" height="12.05" transform="matrix(4.37114e-08 1 1 -4.37114e-08 402.562 107.996)" fill="#FF6025"/>
<rect width="12.05" height="12.05" transform="matrix(4.37114e-08 1 1 -4.37114e-08 402.562 120)" fill="#FF6025"/>
<rect width="12.05" height="12.05" transform="matrix(4.37114e-08 1 1 -4.37114e-08 426.562 120)" fill="#DEE1E2"/>
<rect width="12.05" height="12.05" transform="matrix(4.37114e-08 1 1 -4.37114e-08 438.562 120)" fill="#FF6025"/>
<rect width="12.05" height="12.05" transform="matrix(4.37114e-08 1 1 -4.37114e-08 438.562 107.996)" fill="#DEE1E2"/>
<rect width="12.05" height="12.05" transform="matrix(4.37114e-08 1 1 -4.37114e-08 450.562 107.996)" fill="#DEE1E2"/>
<rect width="12.05" height="12.05" transform="matrix(4.37114e-08 1 1 -4.37114e-08 450.562 84)" fill="#DEE1E2"/>
<rect width="12.05" height="12.05" transform="matrix(4.37114e-08 1 1 -4.37114e-08 462.562 84)" fill="#DEE1E2"/>
<rect width="12.05" height="12.05" transform="matrix(4.37114e-08 1 1 -4.37114e-08 474.562 84)" fill="#DEE1E2"/>
<rect width="12.05" height="12.05" transform="matrix(4.37114e-08 1 1 -4.37114e-08 450.562 72)" fill="#FF6025"/>
<rect width="12.05" height="12.05" transform="matrix(4.37114e-08 1 1 -4.37114e-08 450.562 60)" fill="#DEE1E2"/>
<rect width="12.05" height="12.05" transform="matrix(4.37114e-08 1 1 -4.37114e-08 486.562 96)" fill="#DEE1E2"/>
<rect width="12.05" height="12.05" transform="matrix(4.37114e-08 1 1 -4.37114e-08 462.562 107.996)" fill="#DEE1E2"/>
<rect width="12.05" height="12.05" transform="matrix(4.37114e-08 1 1 -4.37114e-08 462.562 120)" fill="#DEE1E2"/>
<rect width="12.05" height="12.05" transform="matrix(4.37114e-08 1 1 -4.37114e-08 486.562 120)" fill="#DEE1E2"/>
<rect width="12.05" height="12.05" transform="matrix(4.37114e-08 1 1 -4.37114e-08 474.562 120)" fill="#DEE1E2"/>
<rect width="12.05" height="12.05" transform="matrix(4.37114e-08 1 1 -4.37114e-08 474.562 107.996)" fill="#DEE1E2"/>
<rect width="12.05" height="12.05" transform="matrix(4.37114e-08 1 1 -4.37114e-08 474.562 96)" fill="#DEE1E2"/>
<rect width="12.05" height="12.05" transform="matrix(4.37114e-08 1 1 -4.37114e-08 522.562 120)" fill="#DEE1E2"/>
<rect width="12.05" height="12.05" transform="matrix(4.37114e-08 1 1 -4.37114e-08 510.562 120)" fill="#DEE1E2"/>
<rect width="12.05" height="12.05" transform="matrix(4.37114e-08 1 1 -4.37114e-08 510.562 107.996)" fill="#DEE1E2"/>
<rect width="12.05" height="12.05" transform="matrix(4.37114e-08 1 1 -4.37114e-08 462.562 96)" fill="#DEE1E2"/>
<rect width="12.05" height="12.05" transform="matrix(4.37114e-08 1 1 -4.37114e-08 390.562 96)" fill="#FF6025"/>
<rect width="12.05" height="12.05" transform="matrix(4.37114e-08 1 1 -4.37114e-08 390.562 107.996)" fill="#FF6025"/>
<rect width="12.05" height="12.05" transform="matrix(4.37114e-08 1 1 -4.37114e-08 390.562 120)" fill="#DEE1E2"/>
<rect width="12.05" height="12.05" transform="matrix(4.37114e-08 1 1 -4.37114e-08 378.562 96.0039)" fill="#FF6025"/>
<rect width="12.05" height="12.05" transform="matrix(4.37114e-08 1 1 -4.37114e-08 378.562 120.004)" fill="#DEE1E2"/>
<rect width="12.05" height="12.05" transform="matrix(4.37114e-08 1 1 -4.37114e-08 366.562 84)" fill="#FF6025"/>
<rect width="12.05" height="12.05" transform="matrix(4.37114e-08 1 1 -4.37114e-08 390.562 71.9961)" fill="#FF6025"/>
<rect width="12.05" height="12.05" transform="matrix(4.37114e-08 1 1 -4.37114e-08 366.562 120.004)" fill="#DEE1E2"/>
<rect width="12.05" height="12.05" transform="matrix(4.37114e-08 1 1 -4.37114e-08 354.562 96.0039)" fill="#DEE1E2"/>
<rect width="12.05" height="12.05" transform="matrix(4.37114e-08 1 1 -4.37114e-08 342.562 120.004)" fill="#DEE1E2"/>
<rect width="12.05" height="12.05" transform="matrix(4.37114e-08 1 1 -4.37114e-08 354.562 120.004)" fill="#DEE1E2"/>
<rect width="12.05" height="12.05" transform="matrix(4.37114e-08 1 1 -4.37114e-08 354.562 108)" fill="#FF6025"/>
<rect width="12.05" height="12.05" transform="matrix(4.37114e-08 1 1 -4.37114e-08 330.562 107.996)" fill="#DEE1E2"/>
<rect width="12.05" height="12.05" transform="matrix(4.37114e-08 1 1 -4.37114e-08 330.562 96.0039)" fill="#DEE1E2"/>
<rect width="12.05" height="12.05" transform="matrix(4.37114e-08 1 1 -4.37114e-08 330.562 84.0039)" fill="#FF6025"/>
<rect width="12.05" height="12.05" transform="matrix(4.37114e-08 1 1 -4.37114e-08 318.562 107.996)" fill="#DEE1E2"/>
<rect width="12.05" height="12.05" transform="matrix(4.37114e-08 1 1 -4.37114e-08 318.562 120)" fill="#DEE1E2"/>
<rect width="12.05" height="12.05" transform="matrix(4.37114e-08 1 1 -4.37114e-08 306.555 107.996)" fill="#DEE1E2"/>
<rect width="12.05" height="12.05" transform="matrix(4.37114e-08 1 1 -4.37114e-08 294.562 120.004)" fill="#DEE1E2"/>
<rect width="12.05" height="12.05" transform="matrix(4.37114e-08 1 1 -4.37114e-08 270.562 120.004)" fill="#DEE1E2"/>
<rect width="12.05" height="12.05" transform="matrix(4.37114e-08 1 1 -4.37114e-08 282.562 120.004)" fill="#DEE1E2"/>
<rect width="12.05" height="12.05" transform="matrix(4.37114e-08 1 1 -4.37114e-08 42.5703 72)" fill="#DEE1E2"/>
<rect width="12.05" height="12.05" transform="matrix(4.37114e-08 1 1 -4.37114e-08 30.5625 84)" fill="#DEE1E2"/>
<rect width="12.05" height="12.05" transform="matrix(4.37114e-08 1 1 -4.37114e-08 18.5625 107.996)" fill="#FF6025"/>
<rect width="12.05" height="12.05" transform="matrix(4.37114e-08 1 1 -4.37114e-08 18.5625 120)" fill="#FF6025"/>
<rect width="12.05" height="12.05" transform="matrix(4.37114e-08 1 1 -4.37114e-08 42.5625 120)" fill="#FF6025"/>
<rect width="12.05" height="12.05" transform="matrix(4.37114e-08 1 1 -4.37114e-08 54.5625 120)" fill="#DEE1E2"/>
<rect width="12.05" height="12.05" transform="matrix(4.37114e-08 1 1 -4.37114e-08 54.5625 107.996)" fill="#FF6025"/>
<rect width="12.05" height="12.05" transform="matrix(4.37114e-08 1 1 -4.37114e-08 66.5625 107.996)" fill="#FF6025"/>
<rect width="12.05" height="12.05" transform="matrix(4.37114e-08 1 1 -4.37114e-08 66.5625 84)" fill="#DEE1E2"/>
<rect width="12.05" height="12.05" transform="matrix(4.37114e-08 1 1 -4.37114e-08 78.5625 84)" fill="#DEE1E2"/>
<rect width="12.05" height="12.05" transform="matrix(4.37114e-08 1 1 -4.37114e-08 90.5625 84)" fill="#DEE1E2"/>
<rect width="12.05" height="12.05" transform="matrix(4.37114e-08 1 1 -4.37114e-08 66.5625 72)" fill="#DEE1E2"/>
<rect width="12.05" height="12.05" transform="matrix(4.37114e-08 1 1 -4.37114e-08 66.5625 60)" fill="#DEE1E2"/>
<rect width="12.05" height="12.05" transform="matrix(4.37114e-08 1 1 -4.37114e-08 102.562 96)" fill="#DEE1E2"/>
<rect width="12.05" height="12.05" transform="matrix(4.37114e-08 1 1 -4.37114e-08 78.5625 107.996)" fill="#DEE1E2"/>
<rect width="12.05" height="12.05" transform="matrix(4.37114e-08 1 1 -4.37114e-08 78.5625 120)" fill="#FF6025"/>
<rect width="12.05" height="12.05" transform="matrix(4.37114e-08 1 1 -4.37114e-08 102.562 120)" fill="#DEE1E2"/>
<rect width="12.05" height="12.05" transform="matrix(4.37114e-08 1 1 -4.37114e-08 90.5625 120)" fill="#FF6025"/>
<rect width="12.05" height="12.05" transform="matrix(4.37114e-08 1 1 -4.37114e-08 90.5625 107.996)" fill="#FF6025"/>
<rect width="12.05" height="12.05" transform="matrix(4.37114e-08 1 1 -4.37114e-08 90.5625 96)" fill="#FF6025"/>
<rect width="12.05" height="12.05" transform="matrix(4.37114e-08 1 1 -4.37114e-08 138.562 120)" fill="#FF6025"/>
<rect width="12.05" height="12.05" transform="matrix(4.37114e-08 1 1 -4.37114e-08 126.562 120)" fill="#DEE1E2"/>
<rect width="12.05" height="12.05" transform="matrix(4.37114e-08 1 1 -4.37114e-08 126.562 107.996)" fill="#DEE1E2"/>
<rect width="12.05" height="12.05" transform="matrix(4.37114e-08 1 1 -4.37114e-08 78.5625 96)" fill="#FF6025"/>
<rect width="12.05" height="12.05" transform="matrix(4.37114e-08 1 1 -4.37114e-08 6.5625 96)" fill="#FF6025"/>
<rect width="12.05" height="12.05" transform="matrix(4.37114e-08 1 1 -4.37114e-08 6.5625 107.996)" fill="#DEE1E2"/>
<rect width="12.05" height="12.05" transform="matrix(4.37114e-08 1 1 -4.37114e-08 6.5625 120)" fill="#FF6025"/>
<rect width="12.05" height="12.05" transform="matrix(4.37114e-08 1 1 -4.37114e-08 -5.4375 96.0039)" fill="#DEE1E2"/>
<rect width="12.05" height="12.05" transform="matrix(4.37114e-08 1 1 -4.37114e-08 -5.4375 120.004)" fill="#DEE1E2"/>
<rect width="12.05" height="12.05" transform="matrix(4.37114e-08 1 1 -4.37114e-08 6.5625 71.9961)" fill="#DEE1E2"/>
<rect width="12.05" height="12.05" transform="matrix(4.37114e-08 1 1 -4.37114e-08 42.5703 0)" fill="#FF6025"/>
<rect width="12.05" height="12.05" transform="matrix(4.37114e-08 1 1 -4.37114e-08 30.5625 12)" fill="#FF6025"/>
<rect width="12.05" height="12.05" transform="matrix(4.37114e-08 1 1 -4.37114e-08 18.5625 35.9961)" fill="#DEE1E2"/>
<rect width="12.05" height="12.05" transform="matrix(4.37114e-08 1 1 -4.37114e-08 18.5625 48)" fill="#FF6025"/>
<rect width="12.05" height="12.05" transform="matrix(4.37114e-08 1 1 -4.37114e-08 42.5625 48)" fill="#FF6025"/>
<rect width="12.05" height="12.05" transform="matrix(4.37114e-08 1 1 -4.37114e-08 54.5625 48)" fill="#FF6025"/>
<rect width="12.05" height="12.05" transform="matrix(4.37114e-08 1 1 -4.37114e-08 54.5625 35.9961)" fill="#DEE1E2"/>
<rect width="12.05" height="12.05" transform="matrix(4.37114e-08 1 1 -4.37114e-08 66.5625 35.9961)" fill="#FF6025"/>
<rect width="12.05" height="12.05" transform="matrix(4.37114e-08 1 1 -4.37114e-08 66.5625 12)" fill="#DEE1E2"/>
<rect width="12.05" height="12.05" transform="matrix(4.37114e-08 1 1 -4.37114e-08 78.5625 12)" fill="#DEE1E2"/>
<rect width="12.05" height="12.05" transform="matrix(4.37114e-08 1 1 -4.37114e-08 90.5625 12)" fill="#DEE1E2"/>
<rect width="12.05" height="12.05" transform="matrix(4.37114e-08 1 1 -4.37114e-08 66.5625 0)" fill="#DEE1E2"/>
<rect width="12.05" height="12.05" transform="matrix(4.37114e-08 1 1 -4.37114e-08 102.562 24)" fill="#FF6025"/>
<rect width="12.05" height="12.05" transform="matrix(4.37114e-08 1 1 -4.37114e-08 78.5625 35.9961)" fill="#DEE1E2"/>
<rect width="12.05" height="12.05" transform="matrix(4.37114e-08 1 1 -4.37114e-08 78.5625 48)" fill="#FF6025"/>
<rect width="12.05" height="12.05" transform="matrix(4.37114e-08 1 1 -4.37114e-08 102.562 48)" fill="#DEE1E2"/>
<rect width="12.05" height="12.05" transform="matrix(4.37114e-08 1 1 -4.37114e-08 90.5625 48)" fill="#DEE1E2"/>
<rect width="12.05" height="12.05" transform="matrix(4.37114e-08 1 1 -4.37114e-08 90.5625 35.9961)" fill="#FF6025"/>
<rect width="12.05" height="12.05" transform="matrix(4.37114e-08 1 1 -4.37114e-08 90.5625 24)" fill="#FF6025"/>
<rect width="12.05" height="12.05" transform="matrix(4.37114e-08 1 1 -4.37114e-08 78.5625 60)" fill="#DEE1E2"/>
<rect width="12.05" height="12.05" transform="matrix(4.37114e-08 1 1 -4.37114e-08 78.5625 72)" fill="#DEE1E2"/>
<rect width="12.05" height="12.05" transform="matrix(4.37114e-08 1 1 -4.37114e-08 66.5625 72)" fill="#FF6025"/>
<rect width="12.05" height="12.05" transform="matrix(4.37114e-08 1 1 -4.37114e-08 54.5625 72)" fill="#DEE1E2"/>
<rect width="12.05" height="12.05" transform="matrix(4.37114e-08 1 1 -4.37114e-08 42.5625 72)" fill="#FF6025"/>
<rect width="12.05" height="12.05" transform="matrix(4.37114e-08 1 1 -4.37114e-08 42.5625 84)" fill="#DEE1E2"/>
<rect width="12.05" height="12.05" transform="matrix(4.37114e-08 1 1 -4.37114e-08 54.5625 84)" fill="#FF6025"/>
<rect width="12.05" height="12.05" transform="matrix(4.37114e-08 1 1 -4.37114e-08 66.5625 84)" fill="#DEE1E2"/>
<rect width="12.05" height="12.05" transform="matrix(4.37114e-08 1 1 -4.37114e-08 78.5625 84)" fill="#DEE1E2"/>
<rect width="12.05" height="12.05" transform="matrix(4.37114e-08 1 1 -4.37114e-08 90.5625 84)" fill="#DEE1E2"/>
<rect width="12.05" height="12.05" transform="matrix(4.37114e-08 1 1 -4.37114e-08 102.562 84)" fill="#FF6025"/>
<rect width="12.05" height="12.05" transform="matrix(4.37114e-08 1 1 -4.37114e-08 114.562 84.0039)" fill="#FF6025"/>
<rect width="12.05" height="12.05" transform="matrix(4.37114e-08 1 1 -4.37114e-08 114.562 60.0039)" fill="#FF6025"/>
<rect width="12.05" height="12.05" transform="matrix(4.37114e-08 1 1 -4.37114e-08 126.562 60.0039)" fill="#DEE1E2"/>
<rect width="12.05" height="12.05" transform="matrix(4.37114e-08 1 1 -4.37114e-08 126.562 72.0039)" fill="#DEE1E2"/>
<rect width="12.05" height="12.05" transform="matrix(4.37114e-08 1 1 -4.37114e-08 138.562 60.0039)" fill="#FF6025"/>
<rect width="12.05" height="12.05" transform="matrix(4.37114e-08 1 1 -4.37114e-08 150.562 60)" fill="#DEE1E2"/>
<rect width="12.05" height="12.05" transform="matrix(4.37114e-08 1 1 -4.37114e-08 150.562 72.0039)" fill="#FF6025"/>
<rect width="12.05" height="12.05" transform="matrix(4.37114e-08 1 1 -4.37114e-08 138.562 72.0039)" fill="#FF6025"/>
<rect width="12.05" height="12.05" transform="matrix(4.37114e-08 1 1 -4.37114e-08 114.562 72.0039)" fill="#DEE1E2"/>
<rect width="12.05" height="12.05" transform="matrix(4.37114e-08 1 1 -4.37114e-08 150.562 84.0039)" fill="#FF6025"/>
<rect width="12.05" height="12.05" transform="matrix(4.37114e-08 1 1 -4.37114e-08 162.562 84.0039)" fill="#DEE1E2"/>
<rect width="12.05" height="12.05" transform="matrix(4.37114e-08 1 1 -4.37114e-08 138.562 48)" fill="#FF6025"/>
<rect width="12.05" height="12.05" transform="matrix(4.37114e-08 1 1 -4.37114e-08 126.562 48)" fill="#DEE1E2"/>
<rect width="12.05" height="12.05" transform="matrix(4.37114e-08 1 1 -4.37114e-08 126.562 35.9961)" fill="#FF6025"/>
<rect width="12.05" height="12.05" transform="matrix(4.37114e-08 1 1 -4.37114e-08 126.562 84.0039)" fill="#DEE1E2"/>
<rect width="12.05" height="12.05" transform="matrix(4.37114e-08 1 1 -4.37114e-08 138.562 84.0039)" fill="#FF6025"/>
<rect width="12.05" height="12.05" transform="matrix(4.37114e-08 1 1 -4.37114e-08 78.5625 24)" fill="#FF6025"/>
<rect width="12.05" height="12.05" transform="matrix(4.37114e-08 1 1 -4.37114e-08 18.5625 60.0039)" fill="#DEE1E2"/>
<rect width="12.05" height="12.05" transform="matrix(4.37114e-08 1 1 -4.37114e-08 30.5625 60)" fill="#DEE1E2"/>
<rect width="12.05" height="12.05" transform="matrix(4.37114e-08 1 1 -4.37114e-08 18.5625 72)" fill="#DEE1E2"/>
<rect width="12.05" height="12.05" transform="matrix(4.37114e-08 1 1 -4.37114e-08 18.5625 84)" fill="#DEE1E2"/>
<rect width="12.05" height="12.05" transform="matrix(4.37114e-08 1 1 -4.37114e-08 6.5625 24)" fill="#FF6025"/>
<rect width="12.05" height="12.05" transform="matrix(4.37114e-08 1 1 -4.37114e-08 6.5625 35.9961)" fill="#FF6025"/>
<rect width="12.05" height="12.05" transform="matrix(4.37114e-08 1 1 -4.37114e-08 6.5625 48)" fill="#FF6025"/>
<rect width="12.05" height="12.05" transform="matrix(4.37114e-08 1 1 -4.37114e-08 6.5625 60)" fill="#FF6025"/>
<rect width="12.05" height="12.05" transform="matrix(4.37114e-08 1 1 -4.37114e-08 6.5625 72)" fill="#DEE1E2"/>
<rect width="12.05" height="12.05" transform="matrix(4.37114e-08 1 1 -4.37114e-08 6.5625 84)" fill="#FF6025"/>
<rect width="12.05" height="12.05" transform="matrix(4.37114e-08 1 1 -4.37114e-08 -5.4375 24.0039)" fill="#DEE1E2"/>
<rect width="12.05" height="12.05" transform="matrix(4.37114e-08 1 1 -4.37114e-08 -5.4375 48.0039)" fill="#DEE1E2"/>
<rect width="12.05" height="12.05" transform="matrix(4.37114e-08 1 1 -4.37114e-08 -5.4375 60.0039)" fill="#DEE1E2"/>
<rect width="12.05" height="12.05" transform="matrix(4.37114e-08 1 1 -4.37114e-08 -5.4375 72)" fill="#DEE1E2"/>
<rect width="12.05" height="12.05" transform="matrix(4.37114e-08 1 1 -4.37114e-08 -5.4375 84.0039)" fill="#DEE1E2"/>
<rect width="12.05" height="12.05" transform="matrix(4.37114e-08 1 1 -4.37114e-08 6.5625 -0.00390625)" fill="#DEE1E2"/>
<rect x="222.555" y="72" width="12.05" height="12.05" transform="rotate(90 222.555 72)" fill="#FF6025"/>
<rect x="234.562" y="84" width="12.05" height="12.05" transform="rotate(90 234.562 84)" fill="#FF6025"/>
<rect x="246.562" y="107.996" width="12.05" height="12.05" transform="rotate(90 246.562 107.996)" fill="#FF6025"/>
<rect x="246.562" y="120" width="12.05" height="12.05" transform="rotate(90 246.562 120)" fill="#DEE1E2"/>
<rect x="222.562" y="120" width="12.05" height="12.05" transform="rotate(90 222.562 120)" fill="#FF6025"/>
<rect x="210.562" y="120" width="12.05" height="12.05" transform="rotate(90 210.562 120)" fill="#DEE1E2"/>
<rect x="210.562" y="107.996" width="12.05" height="12.05" transform="rotate(90 210.562 107.996)" fill="#DEE1E2"/>
<rect x="198.562" y="107.996" width="12.05" height="12.05" transform="rotate(90 198.562 107.996)" fill="#FF6025"/>
<rect x="198.562" y="84" width="12.05" height="12.05" transform="rotate(90 198.562 84)" fill="#FF6025"/>
<rect x="186.562" y="84" width="12.05" height="12.05" transform="rotate(90 186.562 84)" fill="#FF6025"/>
<rect x="174.562" y="84" width="12.05" height="12.05" transform="rotate(90 174.562 84)" fill="#DEE1E2"/>
<rect x="198.562" y="60" width="12.05" height="12.05" transform="rotate(90 198.562 60)" fill="#DEE1E2"/>
<rect x="162.562" y="96" width="12.05" height="12.05" transform="rotate(90 162.562 96)" fill="#DEE1E2"/>
<rect x="186.562" y="107.996" width="12.05" height="12.05" transform="rotate(90 186.562 107.996)" fill="#FF6025"/>
<rect x="186.562" y="120" width="12.05" height="12.05" transform="rotate(90 186.562 120)" fill="#DEE1E2"/>
<rect x="162.562" y="120" width="12.05" height="12.05" transform="rotate(90 162.562 120)" fill="#DEE1E2"/>
<rect x="174.562" y="120" width="12.05" height="12.05" transform="rotate(90 174.562 120)" fill="#FF6025"/>
<rect x="174.562" y="107.996" width="12.05" height="12.05" transform="rotate(90 174.562 107.996)" fill="#DEE1E2"/>
<rect x="174.562" y="96" width="12.05" height="12.05" transform="rotate(90 174.562 96)" fill="#FF6025"/>
<rect x="126.562" y="120" width="12.05" height="12.05" transform="rotate(90 126.562 120)" fill="#FF6025"/>
<rect x="138.562" y="120" width="12.05" height="12.05" transform="rotate(90 138.562 120)" fill="#DEE1E2"/>
<rect x="138.562" y="107.996" width="12.05" height="12.05" transform="rotate(90 138.562 107.996)" fill="#FF6025"/>
<rect x="186.562" y="96" width="12.05" height="12.05" transform="rotate(90 186.562 96)" fill="#FF6025"/>
<rect x="258.562" y="96" width="12.05" height="12.05" transform="rotate(90 258.562 96)" fill="#FF6025"/>
<rect x="258.562" y="107.996" width="12.05" height="12.05" transform="rotate(90 258.562 107.996)" fill="#FF6025"/>
<rect x="258.562" y="120" width="12.05" height="12.05" transform="rotate(90 258.562 120)" fill="#DEE1E2"/>
<rect x="270.562" y="96.0039" width="12.05" height="12.05" transform="rotate(90 270.562 96.0039)" fill="#DEE1E2"/>
<rect x="270.562" y="120.004" width="12.05" height="12.05" transform="rotate(90 270.562 120.004)" fill="#FF6025"/>
<rect x="282.562" y="84" width="12.05" height="12.05" transform="rotate(90 282.562 84)" fill="#DEE1E2"/>
<rect x="258.562" y="71.9961" width="12.05" height="12.05" transform="rotate(90 258.562 71.9961)" fill="#FF6025"/>
<rect x="282.562" y="120.004" width="12.05" height="12.05" transform="rotate(90 282.562 120.004)" fill="#FF6025"/>
<rect x="294.562" y="96.0039" width="12.05" height="12.05" transform="rotate(90 294.562 96.0039)" fill="#DEE1E2"/>
<rect x="306.562" y="120.004" width="12.05" height="12.05" transform="rotate(90 306.562 120.004)" fill="#FF6025"/>
<rect x="294.562" y="120.004" width="12.05" height="12.05" transform="rotate(90 294.562 120.004)" fill="#FF6025"/>
<rect x="294.562" y="108" width="12.05" height="12.05" transform="rotate(90 294.562 108)" fill="#FF6025"/>
<rect x="318.562" y="107.996" width="12.05" height="12.05" transform="rotate(90 318.562 107.996)" fill="#DEE1E2"/>
<rect x="318.562" y="96.0039" width="12.05" height="12.05" transform="rotate(90 318.562 96.0039)" fill="#FF6025"/>
<rect x="318.562" y="84.0039" width="12.05" height="12.05" transform="rotate(90 318.562 84.0039)" fill="#FF6025"/>
<rect x="330.562" y="107.996" width="12.05" height="12.05" transform="rotate(90 330.562 107.996)" fill="#FF6025"/>
<rect x="330.562" y="120" width="12.05" height="12.05" transform="rotate(90 330.562 120)" fill="#FF6025"/>
<rect x="342.57" y="107.996" width="12.05" height="12.05" transform="rotate(90 342.57 107.996)" fill="#DEE1E2"/>
<rect x="354.562" y="120.004" width="12.05" height="12.05" transform="rotate(90 354.562 120.004)" fill="#DEE1E2"/>
<rect x="378.562" y="120.004" width="12.05" height="12.05" transform="rotate(90 378.562 120.004)" fill="#FF6025"/>
<rect x="366.562" y="120.004" width="12.05" height="12.05" transform="rotate(90 366.562 120.004)" fill="#FF6025"/>
<rect width="12.05" height="12.05" transform="matrix(4.37114e-08 1 1 -4.37114e-08 618.57 72)" fill="#DEE1E2"/>
<rect width="12.05" height="12.05" transform="matrix(4.37114e-08 1 1 -4.37114e-08 606.562 84)" fill="#DEE1E2"/>
<rect width="12.05" height="12.05" transform="matrix(4.37114e-08 1 1 -4.37114e-08 594.562 107.996)" fill="#DEE1E2"/>
<rect width="12.05" height="12.05" transform="matrix(4.37114e-08 1 1 -4.37114e-08 594.562 120)" fill="#DEE1E2"/>
<rect width="12.05" height="12.05" transform="matrix(4.37114e-08 1 1 -4.37114e-08 618.562 120)" fill="#DEE1E2"/>
<rect width="12.05" height="12.05" transform="matrix(4.37114e-08 1 1 -4.37114e-08 630.562 120)" fill="#FF6025"/>
<rect width="12.05" height="12.05" transform="matrix(4.37114e-08 1 1 -4.37114e-08 630.562 107.996)" fill="#DEE1E2"/>
<rect width="12.05" height="12.05" transform="matrix(4.37114e-08 1 1 -4.37114e-08 642.562 107.996)" fill="#DEE1E2"/>
<rect width="12.05" height="12.05" transform="matrix(4.37114e-08 1 1 -4.37114e-08 642.562 84)" fill="#DEE1E2"/>
<rect width="12.05" height="12.05" transform="matrix(4.37114e-08 1 1 -4.37114e-08 642.562 72)" fill="#DEE1E2"/>
<rect width="12.05" height="12.05" transform="matrix(4.37114e-08 1 1 -4.37114e-08 642.562 60)" fill="#FF6025"/>
<rect width="12.05" height="12.05" transform="matrix(4.37114e-08 1 1 -4.37114e-08 582.562 96)" fill="#DEE1E2"/>
<rect width="12.05" height="12.05" transform="matrix(4.37114e-08 1 1 -4.37114e-08 582.562 107.996)" fill="#DEE1E2"/>
<rect width="12.05" height="12.05" transform="matrix(4.37114e-08 1 1 -4.37114e-08 582.562 120)" fill="#DEE1E2"/>
<rect width="12.05" height="12.05" transform="matrix(4.37114e-08 1 1 -4.37114e-08 570.562 96.0039)" fill="#DEE1E2"/>
<rect width="12.05" height="12.05" transform="matrix(4.37114e-08 1 1 -4.37114e-08 570.562 120.004)" fill="#FF6025"/>
<rect width="12.05" height="12.05" transform="matrix(4.37114e-08 1 1 -4.37114e-08 558.562 84)" fill="#DEE1E2"/>
<rect width="12.05" height="12.05" transform="matrix(4.37114e-08 1 1 -4.37114e-08 582.562 71.9961)" fill="#DEE1E2"/>
<rect width="12.05" height="12.05" transform="matrix(4.37114e-08 1 1 -4.37114e-08 558.562 120.004)" fill="#DEE1E2"/>
<rect width="12.05" height="12.05" transform="matrix(4.37114e-08 1 1 -4.37114e-08 546.562 96.0039)" fill="#DEE1E2"/>
<rect width="12.05" height="12.05" transform="matrix(4.37114e-08 1 1 -4.37114e-08 534.562 120.004)" fill="#FF6025"/>
<rect width="12.05" height="12.05" transform="matrix(4.37114e-08 1 1 -4.37114e-08 546.562 120.004)" fill="#FF6025"/>
<rect width="12.05" height="12.05" transform="matrix(4.37114e-08 1 1 -4.37114e-08 546.562 108)" fill="#DEE1E2"/>
<rect width="12.05" height="12.05" transform="matrix(4.37114e-08 1 1 -4.37114e-08 522.562 107.996)" fill="#DEE1E2"/>
<rect width="12.05" height="12.05" transform="matrix(4.37114e-08 1 1 -4.37114e-08 522.562 96.0039)" fill="#DEE1E2"/>
<rect width="12.05" height="12.05" transform="matrix(4.37114e-08 1 1 -4.37114e-08 522.562 84.0039)" fill="#DEE1E2"/>
<rect width="12.05" height="12.05" transform="matrix(4.37114e-08 1 1 -4.37114e-08 510.562 107.996)" fill="#DEE1E2"/>
<rect width="12.05" height="12.05" transform="matrix(4.37114e-08 1 1 -4.37114e-08 510.562 120)" fill="#DEE1E2"/>
<rect width="12.05" height="12.05" transform="matrix(4.37114e-08 1 1 -4.37114e-08 498.555 107.996)" fill="#DEE1E2"/>
<rect width="12.05" height="12.05" transform="matrix(4.37114e-08 1 1 -4.37114e-08 486.562 120.004)" fill="#DEE1E2"/>
<rect width="12.05" height="12.05" transform="matrix(4.37114e-08 1 1 -4.37114e-08 462.562 120.004)" fill="#FF6025"/>
<rect width="12.05" height="12.05" transform="matrix(4.37114e-08 1 1 -4.37114e-08 474.562 120.004)" fill="#FF6025"/>
<rect x="570.555" y="24" width="12.05" height="12.05" transform="rotate(90 570.555 24)" fill="#DEE1E2"/>
<rect x="582.562" y="36" width="12.05" height="12.05" transform="rotate(90 582.562 36)" fill="#DEE1E2"/>
<rect x="594.562" y="59.9961" width="12.05" height="12.05" transform="rotate(90 594.562 59.9961)" fill="#DEE1E2"/>
<rect x="594.562" y="72" width="12.05" height="12.05" transform="rotate(90 594.562 72)" fill="#DEE1E2"/>
<rect x="570.562" y="72" width="12.05" height="12.05" transform="rotate(90 570.562 72)" fill="#FF6025"/>
<rect x="558.562" y="72" width="12.05" height="12.05" transform="rotate(90 558.562 72)" fill="#DEE1E2"/>
<rect x="558.562" y="59.9961" width="12.05" height="12.05" transform="rotate(90 558.562 59.9961)" fill="#FF6025"/>
<rect x="546.562" y="59.9961" width="12.05" height="12.05" transform="rotate(90 546.562 59.9961)" fill="#DEE1E2"/>
<rect x="546.562" y="36" width="12.05" height="12.05" transform="rotate(90 546.562 36)" fill="#FF6025"/>
<rect x="534.562" y="36" width="12.05" height="12.05" transform="rotate(90 534.562 36)" fill="#DEE1E2"/>
<rect x="522.562" y="36" width="12.05" height="12.05" transform="rotate(90 522.562 36)" fill="#FF6025"/>
<rect x="546.562" y="24" width="12.05" height="12.05" transform="rotate(90 546.562 24)" fill="#FF6025"/>
<rect x="546.562" y="12" width="12.05" height="12.05" transform="rotate(90 546.562 12)" fill="#DEE1E2"/>
<rect x="510.562" y="48" width="12.05" height="12.05" transform="rotate(90 510.562 48)" fill="#FF6025"/>
<rect x="534.562" y="59.9961" width="12.05" height="12.05" transform="rotate(90 534.562 59.9961)" fill="#FF6025"/>
<rect x="534.562" y="72" width="12.05" height="12.05" transform="rotate(90 534.562 72)" fill="#FF6025"/>
<rect x="510.562" y="72" width="12.05" height="12.05" transform="rotate(90 510.562 72)" fill="#DEE1E2"/>
<rect x="522.562" y="72" width="12.05" height="12.05" transform="rotate(90 522.562 72)" fill="#FF6025"/>
<rect x="522.562" y="59.9961" width="12.05" height="12.05" transform="rotate(90 522.562 59.9961)" fill="#FF6025"/>
<rect x="522.562" y="48" width="12.05" height="12.05" transform="rotate(90 522.562 48)" fill="#DEE1E2"/>
<rect x="534.562" y="84" width="12.05" height="12.05" transform="rotate(90 534.562 84)" fill="#DEE1E2"/>
<rect x="534.562" y="96" width="12.05" height="12.05" transform="rotate(90 534.562 96)" fill="#FF6025"/>
<rect x="546.562" y="96" width="12.05" height="12.05" transform="rotate(90 546.562 96)" fill="#DEE1E2"/>
<rect x="558.562" y="96" width="12.05" height="12.05" transform="rotate(90 558.562 96)" fill="#FF6025"/>
<rect x="570.562" y="96" width="12.05" height="12.05" transform="rotate(90 570.562 96)" fill="#FF6025"/>
<rect x="570.562" y="108" width="12.05" height="12.05" transform="rotate(90 570.562 108)" fill="#DEE1E2"/>
<rect x="558.562" y="108" width="12.05" height="12.05" transform="rotate(90 558.562 108)" fill="#DEE1E2"/>
<rect x="546.562" y="108" width="12.05" height="12.05" transform="rotate(90 546.562 108)" fill="#FF6025"/>
<rect x="534.562" y="108" width="12.05" height="12.05" transform="rotate(90 534.562 108)" fill="#FF6025"/>
<rect x="522.562" y="108" width="12.05" height="12.05" transform="rotate(90 522.562 108)" fill="#DEE1E2"/>
<rect x="510.562" y="108" width="12.05" height="12.05" transform="rotate(90 510.562 108)" fill="#FF6025"/>
<rect x="498.562" y="108.004" width="12.05" height="12.05" transform="rotate(90 498.562 108.004)" fill="#DEE1E2"/>
<rect x="498.562" y="84.0039" width="12.05" height="12.05" transform="rotate(90 498.562 84.0039)" fill="#DEE1E2"/>
<rect x="486.562" y="84.0039" width="12.05" height="12.05" transform="rotate(90 486.562 84.0039)" fill="#FF6025"/>
<rect x="486.562" y="96.0039" width="12.05" height="12.05" transform="rotate(90 486.562 96.0039)" fill="#FF6025"/>
<rect x="474.562" y="84.0039" width="12.05" height="12.05" transform="rotate(90 474.562 84.0039)" fill="#DEE1E2"/>
<rect x="462.562" y="84" width="12.05" height="12.05" transform="rotate(90 462.562 84)" fill="#DEE1E2"/>
<rect x="438.562" y="96" width="12.05" height="12.05" transform="rotate(90 438.562 96)" fill="#FF6025"/>
<rect x="462.562" y="96.0039" width="12.05" height="12.05" transform="rotate(90 462.562 96.0039)" fill="#DEE1E2"/>
<rect x="474.562" y="96.0039" width="12.05" height="12.05" transform="rotate(90 474.562 96.0039)" fill="#FF6025"/>
<rect x="498.562" y="96.0039" width="12.05" height="12.05" transform="rotate(90 498.562 96.0039)" fill="#FF6025"/>
<rect x="462.562" y="108.004" width="12.05" height="12.05" transform="rotate(90 462.562 108.004)" fill="#FF6025"/>
<rect x="450.562" y="108.004" width="12.05" height="12.05" transform="rotate(90 450.562 108.004)" fill="#FF6025"/>
<rect x="474.562" y="72" width="12.05" height="12.05" transform="rotate(90 474.562 72)" fill="#DEE1E2"/>
<rect x="486.562" y="72" width="12.05" height="12.05" transform="rotate(90 486.562 72)" fill="#FF6025"/>
<rect x="486.562" y="59.9961" width="12.05" height="12.05" transform="rotate(90 486.562 59.9961)" fill="#DEE1E2"/>
<rect x="486.562" y="108.004" width="12.05" height="12.05" transform="rotate(90 486.562 108.004)" fill="#FF6025"/>
<rect x="474.562" y="108.004" width="12.05" height="12.05" transform="rotate(90 474.562 108.004)" fill="#FF6025"/>
<rect x="534.562" y="48" width="12.05" height="12.05" transform="rotate(90 534.562 48)" fill="#DEE1E2"/>
<rect x="594.562" y="84.0039" width="12.05" height="12.05" transform="rotate(90 594.562 84.0039)" fill="#DEE1E2"/>
<rect x="582.562" y="84" width="12.05" height="12.05" transform="rotate(90 582.562 84)" fill="#FF6025"/>
<rect x="594.562" y="96" width="12.05" height="12.05" transform="rotate(90 594.562 96)" fill="#FF6025"/>
<rect x="594.562" y="108" width="12.05" height="12.05" transform="rotate(90 594.562 108)" fill="#FF6025"/>
<rect x="606.562" y="48.0039" width="12.05" height="12.05" transform="rotate(90 606.562 48.0039)" fill="#DEE1E2"/>
<rect x="606.562" y="60" width="12.05" height="12.05" transform="rotate(90 606.562 60)" fill="#DEE1E2"/>
<rect x="606.562" y="72.0039" width="12.05" height="12.05" transform="rotate(90 606.562 72.0039)" fill="#FF6025"/>
<rect x="606.562" y="84.0039" width="12.05" height="12.05" transform="rotate(90 606.562 84.0039)" fill="#FF6025"/>
<rect x="606.562" y="96.0039" width="12.05" height="12.05" transform="rotate(90 606.562 96.0039)" fill="#DEE1E2"/>
<rect x="606.562" y="108.004" width="12.05" height="12.05" transform="rotate(90 606.562 108.004)" fill="#FF6025"/>
<rect x="618.562" y="48.0039" width="12.05" height="12.05" transform="rotate(90 618.562 48.0039)" fill="#DEE1E2"/>
<rect x="618.562" y="72.0039" width="12.05" height="12.05" transform="rotate(90 618.562 72.0039)" fill="#DEE1E2"/>
<rect x="618.562" y="84.0039" width="12.05" height="12.05" transform="rotate(90 618.562 84.0039)" fill="#DEE1E2"/>
<rect x="618.562" y="96" width="12.05" height="12.05" transform="rotate(90 618.562 96)" fill="#DEE1E2"/>
<rect x="618.562" y="108.004" width="12.05" height="12.05" transform="rotate(90 618.562 108.004)" fill="#DEE1E2"/>
<rect x="630.562" y="36" width="12.05" height="12.05" transform="rotate(90 630.562 36)" fill="#FF6025"/>
<rect x="606.562" y="24" width="12.05" height="12.05" transform="rotate(90 606.562 24)" fill="#FF6025"/>
<rect x="630.562" y="72.0039" width="12.05" height="12.05" transform="rotate(90 630.562 72.0039)" fill="#FF6025"/>
<rect x="630.562" y="84.0039" width="12.05" height="12.05" transform="rotate(90 630.562 84.0039)" fill="#DEE1E2"/>
<rect x="630.562" y="108.004" width="12.05" height="12.05" transform="rotate(90 630.562 108.004)" fill="#FF6025"/>
<rect x="642.562" y="48.0039" width="12.05" height="12.05" transform="rotate(90 642.562 48.0039)" fill="#DEE1E2"/>
<rect x="642.562" y="84.0039" width="12.05" height="12.05" transform="rotate(90 642.562 84.0039)" fill="#DEE1E2"/>
<rect x="642.562" y="96" width="12.05" height="12.05" transform="rotate(90 642.562 96)" fill="#DEE1E2"/>
<rect x="642.562" y="108.004" width="12.05" height="12.05" transform="rotate(90 642.562 108.004)" fill="#FF6025"/>
<rect x="654.562" y="84" width="12.05" height="12.05" transform="rotate(90 654.562 84)" fill="#FF6025"/>
<rect x="654.562" y="72" width="12.05" height="12.05" transform="rotate(90 654.562 72)" fill="#DEE1E2"/>
<rect x="642.562" y="72.0039" width="12.05" height="12.05" transform="rotate(90 642.562 72.0039)" fill="#DEE1E2"/>
<rect x="642.562" y="60" width="12.05" height="12.05" transform="rotate(90 642.562 60)" fill="#FF6025"/>
<rect x="654.562" y="96.0039" width="12.05" height="12.05" transform="rotate(90 654.562 96.0039)" fill="#DEE1E2"/>
<rect x="654.562" y="108.004" width="12.05" height="12.05" transform="rotate(90 654.562 108.004)" fill="#DEE1E2"/>
</g>
<defs>
<clipPath id="clip0_763_51792">
<rect width="649" height="132" fill="white"/>
</clipPath>
</defs>
</svg>
