<svg width="320" height="141" viewBox="0 0 320 141" fill="none" xmlns="http://www.w3.org/2000/svg">
<path fill-rule="evenodd" clip-rule="evenodd" d="M230 141V102.545H242.818V115.364H255.636V141H230ZM-141.727 12.8182V25.6364H-154.545V12.8182H-141.727ZM-141.727 12.8182V0H-128.909V12.8182H-141.727ZM50.5455 89.7273H37.7273V76.9091H50.5455V89.7273ZM50.5455 89.7273H63.3636V102.545H50.5455V89.7273ZM204.364 102.545V89.7273H217.182V102.545H204.364ZM178.727 128.182H191.545V102.545H204.364V128.182H217.182V141H178.727V128.182ZM63.3636 141V115.364H76.1818V102.545H101.818V115.364H89V128.182H114.636V102.545H127.455V128.182H140.273V141H63.3636ZM101.818 102.545V89.7273H114.636V102.545H101.818ZM140.273 128.182V89.7273H153.091V115.364H165.909V89.7273H178.727V128.182H165.909V141H153.091V128.182H140.273ZM-180.182 38.4545H-193V25.6364H-167.364V38.4545H-154.545V64.0909H-141.727V76.9091H-154.545V89.7273H-141.727V76.9091H-116.091V64.0909H-103.273V51.2727H-116.091V64.0909H-141.727V51.2727H-128.909V38.4545H-103.273V25.6364H-116.091V0H-103.273V12.8182H-77.6364V25.6364H-64.8182V38.4545H-77.6364V51.2727H-64.8182V64.0909H-90.4545V89.7273H-64.8182V64.0909H-52V38.4545H-39.1818V51.2727H-26.3636V64.0909H-13.5454V89.7273H24.9091V102.545H12.0909V115.364H37.7273V128.182H50.5455V141H24.9091V128.182H12.0909V141H-103.273V128.182H-116.091V141H-141.727V128.182H-128.909V115.364H-103.273V102.545H-167.364V115.364H-154.545V141H-193V128.182H-180.182V115.364H-193V51.2727H-180.182V38.4545ZM-39.1818 128.182H-13.5454V115.364H-26.3636V102.545H-64.8182V115.364H-77.6364V128.182H-52V115.364H-39.1818V128.182ZM422.273 38.4545H409.455V25.6364H422.273V38.4545ZM422.273 38.4545H435.091V51.2727H422.273V38.4545ZM268.455 102.545H255.636V89.7273H268.455V102.545ZM499.182 51.2727V38.4545H512V51.2727H499.182ZM281.273 115.364H294.091V89.7273H281.273V76.9091H294.091V64.0909H306.909V76.9091H319.727V64.0909H332.545V89.7273H345.364V115.364H371V89.7273H345.364V76.9091H358.182V64.0909H345.364V51.2727H358.182V38.4545H383.818V12.8182H396.636V51.2727H383.818V64.0909H409.455V76.9091H422.273V89.7273H435.091V64.0909H447.909V51.2727H473.545V64.0909H460.727V76.9091H486.364V51.2727H499.182V64.0909H512V128.182H499.182V141H473.545V128.182H460.727V141H358.182V128.182H345.364V141H306.909V128.182H294.091V141H268.455V128.182H281.273V115.364ZM473.545 51.2727V38.4545H486.364V51.2727H473.545ZM396.636 76.9091H383.818V102.545H409.455V89.7273H396.636V76.9091ZM422.273 128.182H435.091V115.364H422.273V128.182ZM486.364 115.364V102.545H473.545V115.364H486.364ZM268.455 102.545H281.273V115.364H268.455V102.545ZM230 76.9091H242.818V89.7273H230V76.9091ZM-180.182 0H-167.364V12.8182H-180.182V0ZM24.9091 64.0909V76.9091H12.0909V64.0909H24.9091ZM89 76.9091V89.7273H76.1818V76.9091H89ZM460.727 25.6364V38.4545H447.909V25.6364H460.727Z" fill="#FF6025"/>
</svg>
