<svg width="22" height="22" viewBox="0 0 22 22" fill="none" xmlns="http://www.w3.org/2000/svg">
<g clip-path="url(#clip0_24_34)">
<path fill-rule="evenodd" clip-rule="evenodd" d="M5.375 5.28962V3.00391H7.0625V5.28962H14.9375V3.00391H16.625V5.28962H17.75C18.9927 5.28962 20 6.31297 20 7.57534V16.7182C20 17.9806 18.9927 19.0039 17.75 19.0039H4.25C3.00736 19.0039 2 17.9806 2 16.7182V7.57534C2 6.31297 3.00736 5.28962 4.25 5.28962H5.375ZM17.851 16.8594H4.22145V14.8521H17.851V16.8594ZM17.8329 12.7565V12.2556V11.7548V11.2539H14.4255H11.0181H7.61072H4.20332V11.7548V12.2556V12.7565V13.2573H7.61072H11.0181H14.4255H17.8329V12.7565ZM17.8329 8.76544V9.26492V9.7644H14.4255H11.0181H7.61072H4.20332V9.26492V8.76544V8.26596V7.76648H7.61072H11.0181H14.4255H17.8329V8.26596V8.76544Z" fill="white"/>
<path d="M17.832 12.7568V12.2559V11.7549V11.2539H14.4248H11.0176H7.61035H4.20312V11.7549V12.2559V12.7568V13.2578H7.61035H11.0176H14.4248H17.832V12.7568Z" fill="white" fill-opacity="0.57"/>
<path d="M17.832 9.2627V8.76367V8.26465V7.76562H14.4248H11.0176H7.61035H4.20312V8.26465V8.76367V9.2627V9.76172H7.61035H11.0176H14.4248H17.832V9.2627Z" fill="white" fill-opacity="0.57"/>
</g>
<defs>
<clipPath id="clip0_24_34">
<rect width="18" height="18" fill="white" transform="translate(2 2)"/>
</clipPath>
</defs>
</svg>
