<svg width="18" height="18" viewBox="3 2 18 18" fill="none" xmlns="http://www.w3.org/2000/svg">
<path d="M20.25 15H19.5H18.75H18V15.3V15.6V15.9V16.2V16.5V16.8V17.1V17.4V17.7V18H18.75H19.5H20.25H21V17.7V17.4V17.1V16.8V16.5V16.2V15.9V15.6V15.3V15H20.25Z" fill="#54D661"/>
<path fill-rule="evenodd" clip-rule="evenodd" d="M6 6V4H7.5V6H14.5V4H16V6H17C18.1046 6 19 6.89543 19 8V13.5H16.4957V18H5C3.89543 18 3 17.1046 3 16V8C3 6.89543 3.89543 6 5 6H6Z" fill="black"/>
<path fill-rule="evenodd" clip-rule="evenodd" d="M13.5 15L11 12.7197L11.7998 11.8428L12.9066 12.8523V8.5H14.0934V12.8523L15.2002 11.8428L16 12.7197L13.5 15Z" fill="white" fill-opacity="0.37"/>
<path fill-rule="evenodd" clip-rule="evenodd" d="M8.5 8.5L6 10.7803L6.79984 11.6572L7.90656 10.6477L7.90656 15H9.09344V10.6477L10.2002 11.6572L11 10.7803L8.5 8.5Z" fill="white" fill-opacity="0.37"/>
</svg>
