<svg width="18" height="18" viewBox="3 2 18 18" fill="none" xmlns="http://www.w3.org/2000/svg">
<path d="M20.25 15H19.5H18.75H18V15.3V15.6V15.9V16.2V16.5V16.8V17.1V17.4V17.7V18H18.75H19.5H20.25H21V17.7V17.4V17.1V16.8V16.5V16.2V15.9V15.6V15.3V15H20.25Z" fill="#54D661"/>
<path fill-rule="evenodd" clip-rule="evenodd" d="M6 4V6H5C3.89543 6 3 6.89543 3 8V16C3 17.1046 3.89543 18 5 18H16.4957V13.5H19V8C19 6.89543 18.1046 6 17 6H16V4H14.5V6H7.5V4H6ZM6 10.7803L8.5 8.5L11 10.7803L10.2002 11.6572L9.09344 10.6477V15H7.90656V10.6477L6.79984 11.6572L6 10.7803ZM11 12.7197L13.5 15L16 12.7197L15.2002 11.8428L14.0934 12.8523V8.5H12.9066V12.8523L11.7998 11.8428L11 12.7197Z" fill="white"/>
</svg>
