<svg width="859" height="97" viewBox="0 0 859 97" fill="none" xmlns="http://www.w3.org/2000/svg">
<g clip-path="url(#clip0_435_11843)">
<path fill-rule="evenodd" clip-rule="evenodd" d="M667.4 96.8V70.4H676.2V79.2H685V96.8H667.4ZM412.2 8.8V17.6H403.4V8.8H412.2ZM412.2 8.8V0H421V8.8H412.2ZM544.2 61.6H535.4V52.8H544.2V61.6ZM544.2 61.6H553V70.4H544.2V61.6ZM649.8 70.4V61.6H658.6V70.4H649.8ZM632.2 88H641V70.4H649.8V88H658.6V96.8H632.2V88ZM553 96.8V79.2H561.8V70.4H579.4V79.2H570.6V88H588.2V70.4H597V88H605.8V96.8H553ZM579.4 70.4V61.6H588.2V70.4H579.4ZM605.8 88V61.6H614.6V79.2H623.4V61.6H632.2V88H623.4V96.8H614.6V88H605.8ZM385.8 26.4H377V17.6H394.6V26.4H403.4V44H412.2V52.8H403.4V61.6H412.2V52.8H429.8V44H438.6V35.2H429.8V44H412.2V35.2H421V26.4H438.6V17.6H429.8V0H438.6V8.8H456.2V17.6H465V26.4H456.2V35.2H465V44H447.4V61.6H465V44H473.8V26.4H482.6V35.2H491.4V44H500.2V61.6H526.6V70.4H517.8V79.2H535.4V88H544.2V96.8H526.6V88H517.8V96.8H438.6V88H429.8V96.8H412.2V88H421V79.2H438.6V70.4H394.6V79.2H403.4V96.8H377V88H385.8V79.2H377V35.2H385.8V26.4ZM482.6 88H500.2V79.2H491.4V70.4H465V79.2H456.2V88H473.8V79.2H482.6V88ZM799.4 26.4H790.6V17.6H799.4V26.4ZM799.4 26.4H808.2V35.2H799.4V26.4ZM693.8 70.4H685V61.6H693.8V70.4ZM852.2 35.2V26.4H861V35.2H852.2ZM702.6 79.2H711.4V61.6H702.6V52.8H711.4V44H720.2V52.8H729V44H737.8V61.6H746.6V79.2H764.2V61.6H746.6V52.8H755.4V44H746.6V35.2H755.4V26.4H773V8.8H781.8V35.2H773V44H790.6V52.8H799.4V61.6H808.2V44H817V35.2H834.6V44H825.8V52.8H843.4V35.2H852.2V44H861V88H852.2V96.8H834.6V88H825.8V96.8H755.4V88H746.6V96.8H720.2V88H711.4V96.8H693.8V88H702.6V79.2ZM834.6 35.2V26.4H843.4V35.2H834.6ZM781.8 52.8H773V70.4H790.6V61.6H781.8V52.8ZM799.4 88H808.2V79.2H799.4V88ZM843.4 79.2V70.4H834.6V79.2H843.4ZM693.8 70.4H702.6V79.2H693.8V70.4ZM667.4 52.8H676.2V61.6H667.4V52.8ZM385.8 0H394.6V8.8H385.8V0ZM526.6 44V52.8H517.8V44H526.6ZM570.6 52.8V61.6H561.8V52.8H570.6ZM825.8 17.6V26.4H817V17.6H825.8Z" fill="#FF6025"/>
</g>
<g clip-path="url(#clip1_435_11843)">
<path fill-rule="evenodd" clip-rule="evenodd" d="M183.4 96.8V70.4H192.2V79.2H201V96.8H183.4ZM-71.7999 8.8V17.6H-80.5999V8.8H-71.7999ZM-71.7999 8.8V0H-62.9999V8.8H-71.7999ZM60.2001 61.6H51.4001V52.8H60.2001V61.6ZM60.2001 61.6H69.0001V70.4H60.2001V61.6ZM165.8 70.4V61.6H174.6V70.4H165.8ZM148.2 88H157V70.4H165.8V88H174.6V96.8H148.2V88ZM69.0001 96.8V79.2H77.8001V70.4H95.4001V79.2H86.6001V88H104.2V70.4H113V88H121.8V96.8H69.0001ZM95.4001 70.4V61.6H104.2V70.4H95.4001ZM121.8 88V61.6H130.6V79.2H139.4V61.6H148.2V88H139.4V96.8H130.6V88H121.8ZM-98.1999 26.4H-107V17.6H-89.3999V26.4H-80.5999V44H-71.7999V52.8H-80.5999V61.6H-71.7999V52.8H-54.1999V44H-45.3999V35.2H-54.1999V44H-71.7999V35.2H-62.9999V26.4H-45.3999V17.6H-54.1999V0H-45.3999V8.8H-27.7999V17.6H-18.9999V26.4H-27.7999V35.2H-18.9999V44H-36.5999V61.6H-18.9999V44H-10.1999V26.4H-1.39987V35.2H7.40012V44H16.2001V61.6H42.6001V70.4H33.8001V79.2H51.4001V88H60.2001V96.8H42.6001V88H33.8001V96.8H-45.3999V88H-54.1999V96.8H-71.7999V88H-62.9999V79.2H-45.3999V70.4H-89.3999V79.2H-80.5999V96.8H-107V88H-98.1999V79.2H-107V35.2H-98.1999V26.4ZM-1.39987 88H16.2001V79.2H7.40012V70.4H-18.9999V79.2H-27.7999V88H-10.1999V79.2H-1.39987V88ZM315.4 26.4H306.6V17.6H315.4V26.4ZM315.4 26.4H324.2V35.2H315.4V26.4ZM209.8 70.4H201V61.6H209.8V70.4ZM368.2 35.2V26.4H377V35.2H368.2ZM218.6 79.2H227.4V61.6H218.6V52.8H227.4V44H236.2V52.8H245V44H253.8V61.6H262.6V79.2H280.2V61.6H262.6V52.8H271.4V44H262.6V35.2H271.4V26.4H289V8.8H297.8V35.2H289V44H306.6V52.8H315.4V61.6H324.2V44H333V35.2H350.6V44H341.8V52.8H359.4V35.2H368.2V44H377V88H368.2V96.8H350.6V88H341.8V96.8H271.4V88H262.6V96.8H236.2V88H227.4V96.8H209.8V88H218.6V79.2ZM350.6 35.2V26.4H359.4V35.2H350.6ZM297.8 52.8H289V70.4H306.6V61.6H297.8V52.8ZM315.4 88H324.2V79.2H315.4V88ZM359.4 79.2V70.4H350.6V79.2H359.4ZM209.8 70.4H218.6V79.2H209.8V70.4ZM183.4 52.8H192.2V61.6H183.4V52.8ZM-98.1999 0H-89.3999V8.8H-98.1999V0ZM42.6001 44V52.8H33.8001V44H42.6001ZM86.6001 52.8V61.6H77.8001V52.8H86.6001ZM341.8 17.6V26.4H333V17.6H341.8Z" fill="#FF6025"/>
</g>
<defs>
<clipPath id="clip0_435_11843">
<rect width="484" height="96.8" fill="white" transform="translate(377)"/>
</clipPath>
<clipPath id="clip1_435_11843">
<rect width="484" height="96.8" fill="white" transform="translate(-107)"/>
</clipPath>
</defs>
</svg>
