<svg width="22" height="22" viewBox="0 0 22 22" fill="none" xmlns="http://www.w3.org/2000/svg">
<path fill-rule="evenodd" clip-rule="evenodd" d="M5.375 5.375V3.125H7.0625V5.375H14.9375V3.125H16.625V5.375H17.75C18.9927 5.375 20 6.38236 20 7.625V13.8125H17.1827V18.875H4.25C3.00736 18.875 2 17.8677 2 16.625V7.625C2 6.38236 3.00736 5.375 4.25 5.375H5.375ZM13.8125 15.5L11 12.9347L11.8998 11.9481L13.1449 13.0838V8.1875H14.4801V13.0838L15.7252 11.9481L16.625 12.9347L13.8125 15.5ZM5.375 10.7528L8.1875 8.1875L11 10.7528L10.1002 11.7394L8.85512 10.6037V15.5H7.51988V10.6037L6.27482 11.7394L5.375 10.7528Z" fill="white"/>
<path fill-rule="evenodd" clip-rule="evenodd" d="M8.1875 8.1875L5.375 10.7528L6.27482 11.7394L7.51988 10.6037L7.51988 15.5H8.85512V10.6037L10.1002 11.7394L11 10.7528L8.1875 8.1875Z" fill="white" fill-opacity="0.57"/>
</svg>
