<svg width="65" height="65" viewBox="0 0 65 65" fill="none" xmlns="http://www.w3.org/2000/svg">
<path d="M14.8787 46.148V48.708V49.988V51.268H34.7187H54.5587V48.708V47.428V46.148H14.8787Z" fill="#FF6025"/>
<path d="M19.9987 20.548H18.7187H17.4387H16.1587H14.8787L14.8787 46.148H17.4387H19.9987L19.9987 20.548Z" fill="#FF6025"/>
<path d="M17.4387 23.108H51.9987V46.148H17.4387L17.4387 23.108Z" fill="#F6F8F7"/>
<path d="M17.4387 7.74805V10.308H19.9987V7.74805H17.4387Z" fill="#FF6025"/>
<path d="M48.1587 7.74805V10.308H50.7187V7.74805H48.1587Z" fill="#FF6025"/>
<path d="M17.4387 10.308V15.428H19.9987V10.308H17.4387Z" fill="black"/>
<path d="M48.1587 10.308V15.428H50.7187V10.308H48.1587Z" fill="black"/>
<path d="M50.7187 15.428H48.1587H19.9987H17.4387H7.19867V17.988H14.2387H14.8787H21.2787H54.5587H57.1187V15.428H50.7187Z" fill="black"/>
<path d="M14.8787 17.988L14.8787 20.548H16.1587H17.4387H18.7187H19.9987H21.2787V17.988H14.8787Z" fill="#FFEBE3"/>
<path d="M21.2787 17.988V20.548H54.5587V17.988H21.2787Z" fill="#FF6025"/>
<path d="M9.75867 20.548V23.108H12.3187V21.188V20.548H9.75867Z" fill="#FF6025"/>
<path d="M21.2787 20.548H19.9987H18.7187H17.4387L17.4387 23.108H51.9987H54.5587V20.548H21.2787Z" fill="#FFC7B2"/>
<path d="M9.75867 25.668V28.228H12.3187V26.308V25.668H9.75867Z" fill="#FF6025"/>
<path d="M9.75867 37.188V39.748H12.3187V37.828V37.188H9.75867Z" fill="#FF6025"/>
<path d="M9.75867 42.308V44.868H12.3187V42.948V42.308H9.75867Z" fill="#FF6025"/>
<path d="M51.9987 23.108V46.148H54.5587V23.108H51.9987Z" fill="#FFC7B2"/>
<path d="M4.63867 17.988V48.708H7.19867V17.988H4.63867Z" fill="black"/>
<path d="M14.2387 17.988H7.19867V48.708H14.8787V17.988H14.2387ZM12.3187 21.188V23.108H9.75867V20.548H12.3187V21.188ZM12.3187 26.308V28.228H9.75867V25.668H12.3187V26.308ZM12.3187 37.828V39.748H9.75867V37.188H12.3187V37.828ZM12.3187 42.948V44.868H9.75867V42.308H12.3187V42.948Z" fill="#FFC7B2"/>
<path d="M54.5587 17.988V20.548V23.108V46.148V47.428V48.708H57.1187V17.988H54.5587Z" fill="#FF6025"/>
<path d="M57.1187 17.988V48.708H59.6787V17.988H57.1187Z" fill="black"/>
<path d="M7.19867 48.708V51.268H9.75867V48.708H7.19867Z" fill="black"/>
<path d="M9.75867 48.708V51.268H10.3987H11.0387H11.6787H12.3187H14.8787V49.988V48.708H9.75867Z" fill="#FFC7B2"/>
<path d="M45.5987 51.268H40.4787H35.3587H30.2387H25.1187H19.9987H14.8787H9.75867V53.828H14.8787H25.1187H50.7187V51.268H45.5987Z" fill="#FF6025"/>
<path d="M19.9987 48.708V51.268H25.1187H30.2387H34.7187H35.3587H40.4787H41.7587V48.708H19.9987Z" fill="#FFC7B2"/>
<path d="M45.5987 48.708V51.268H48.1587V48.708H45.5987Z" fill="#FFC7B2"/>
<path d="M54.5587 48.708H53.2787V51.268H54.5587H57.1187V48.708H54.5587Z" fill="black"/>
<path d="M11.6787 51.268H11.0387H10.3987H9.75867V53.828H12.3187V51.268H11.6787Z" fill="black"/>
<path d="M50.7187 51.268V53.828H53.2787V51.268H50.7187Z" fill="black"/>
<path d="M12.3187 53.828V56.388H14.8787V53.828H12.3187Z" fill="#FF6025"/>
<path d="M25.1187 53.828H12.3187V56.388H50.7187V53.828H25.1187Z" fill="black"/>
<path d="M30.2387 30.388H26.3987V34.228H30.2387V30.388Z" fill="black"/>
<path d="M37.2787 32.388H33.4387V36.228H37.2787V32.388Z" fill="black"/>
<path d="M44.3187 32.388H40.4787V36.228H44.3187V32.388Z" fill="black"/>
</svg>
