<svg width="65" height="65" viewBox="0 0 65 65" fill="none" xmlns="http://www.w3.org/2000/svg">
<path d="M14.8787 47.0045V49.5645V50.8445V52.1245H34.7187H54.5587V49.5645V48.2845V47.0045H14.8787Z" fill="#FF6025"/>
<path d="M19.9987 21.4045H18.7187H17.4387H16.1587H14.8787L14.8787 47.0045H17.4387H19.9987L19.9987 21.4045Z" fill="#FF6025"/>
<path d="M17.4387 23.9645H51.9987V47.0045H17.4387L17.4387 23.9645Z" fill="#F6F8F7"/>
<path d="M17.4387 8.60449V11.1645H19.9987V8.60449H17.4387Z" fill="#FF6025"/>
<path d="M48.1587 8.60449V11.1645H50.7187V8.60449H48.1587Z" fill="#FF6025"/>
<path d="M17.4387 11.1645V16.2845H19.9987V11.1645H17.4387Z" fill="black"/>
<path d="M48.1587 11.1645V16.2845H50.7187V11.1645H48.1587Z" fill="black"/>
<path d="M50.7187 16.2845H48.1587H19.9987H17.4387H7.19867V18.8445H14.2387H14.8787H21.2787H54.5587H57.1187V16.2845H50.7187Z" fill="black"/>
<path d="M14.8787 18.8445L14.8787 21.4045H16.1587H17.4387H18.7187H19.9987H21.2787V18.8445H14.8787Z" fill="#FFEBE3"/>
<path d="M21.2787 18.8445V21.4045H54.5587V18.8445H21.2787Z" fill="#FF6025"/>
<path d="M9.75867 21.4045V23.9645H12.3187V22.0445V21.4045H9.75867Z" fill="#FF6025"/>
<path d="M21.2787 21.4045H19.9987H18.7187H17.4387L17.4387 23.9645H51.9987H54.5587V21.4045H21.2787Z" fill="#FFC7B2"/>
<path d="M9.75867 26.5245V29.0845H12.3187V27.1645V26.5245H9.75867Z" fill="#FF6025"/>
<path d="M9.75867 38.0445V40.6045H12.3187V38.6845V38.0445H9.75867Z" fill="#FF6025"/>
<path d="M9.75867 43.1645V45.7245H12.3187V43.8045V43.1645H9.75867Z" fill="#FF6025"/>
<path d="M51.9987 23.9645V47.0045H54.5587V23.9645H51.9987Z" fill="#FFC7B2"/>
<path d="M4.63867 18.8445V49.5645H7.19867V18.8445H4.63867Z" fill="black"/>
<path d="M14.2387 18.8445H7.19867V49.5645H14.8787V18.8445H14.2387ZM12.3187 22.0445V23.9645H9.75867V21.4045H12.3187V22.0445ZM12.3187 27.1645V29.0845H9.75867V26.5245H12.3187V27.1645ZM12.3187 38.6845V40.6045H9.75867V38.0445H12.3187V38.6845ZM12.3187 43.8045V45.7245H9.75867V43.1645H12.3187V43.8045Z" fill="#FFC7B2"/>
<path d="M54.5587 18.8445V21.4045V23.9645V47.0045V48.2845V49.5645H57.1187V18.8445H54.5587Z" fill="#FF6025"/>
<path d="M57.1187 18.8445V49.5645H59.6787V18.8445H57.1187Z" fill="black"/>
<path d="M7.19867 49.5645V52.1245H9.75867V49.5645H7.19867Z" fill="black"/>
<path d="M9.75867 49.5645V52.1245H10.3987H11.0387H11.6787H12.3187H14.8787V50.8445V49.5645H9.75867Z" fill="#FFC7B2"/>
<path d="M45.5987 52.1245H40.4787H35.3587H30.2387H25.1187H19.9987H14.8787H9.75867V54.6845H14.8787H25.1187H50.7187V52.1245H45.5987Z" fill="#FF6025"/>
<path d="M19.9987 49.5645V52.1245H25.1187H30.2387H34.7187H35.3587H40.4787H41.7587V49.5645H19.9987Z" fill="#FFC7B2"/>
<path d="M45.5987 49.5645V52.1245H48.1587V49.5645H45.5987Z" fill="#FFC7B2"/>
<path d="M54.5587 49.5645H53.2787V52.1245H54.5587H57.1187V49.5645H54.5587Z" fill="black"/>
<path d="M11.6787 52.1245H11.0387H10.3987H9.75867V54.6845H12.3187V52.1245H11.6787Z" fill="black"/>
<path d="M50.7187 52.1245V54.6845H53.2787V52.1245H50.7187Z" fill="black"/>
<path d="M12.3187 54.6845V57.2445H14.8787V54.6845H12.3187Z" fill="#FF6025"/>
<path d="M25.1187 54.6845H12.3187V57.2445H50.7187V54.6845H25.1187Z" fill="black"/>
<path d="M30.2387 33.2445H26.3987V37.0845H30.2387V33.2445Z" fill="black"/>
<path d="M37.2787 33.2445H33.4387V37.0845H37.2787V33.2445Z" fill="black"/>
<path d="M44.3187 33.2445H40.4787V37.0845H44.3187V33.2445Z" fill="black"/>
</svg>
