<svg width="200" height="200" viewBox="0 0 200 200" fill="none" xmlns="http://www.w3.org/2000/svg">
<path d="M46 144V152V156V160H108H170V152V148V144H46Z" fill="#FF6025"/>
<path d="M62 64H58H54H50H46L46 144H54H62L62 64Z" fill="#FF6025"/>
<path d="M54 72H162V144H54L54 72Z" fill="#F6F8F7"/>
<path d="M54 24V32H62V24H54Z" fill="#FF6025"/>
<path d="M150 24V32H158V24H150Z" fill="#FF6025"/>
<path d="M54 32V48H62V32H54Z" fill="black"/>
<path d="M150 32V48H158V32H150Z" fill="black"/>
<path d="M158 48H150H62H54H22V56H44H46H66H170H178V48H158Z" fill="black"/>
<path d="M46 56L46 64H50H54H58H62H66V56H46Z" fill="#FFEBE3"/>
<path d="M66 56V64H170V56H66Z" fill="#FF6025"/>
<path d="M30 64V72H38V66V64H30Z" fill="#FF6025"/>
<path d="M66 64H62H58H54L54 72H162H170V64H66Z" fill="#FFC7B2"/>
<path d="M30 80V88H38V82V80H30Z" fill="#FF6025"/>
<path d="M30 116V124H38V118V116H30Z" fill="#FF6025"/>
<path d="M30 132V140H38V134V132H30Z" fill="#FF6025"/>
<path d="M162 72V144H170V72H162Z" fill="#FFC7B2"/>
<path d="M14 56V152H22V56H14Z" fill="black"/>
<path d="M44 56H22V152H46V56H44ZM38 66V72H30V64H38V66ZM38 82V88H30V80H38V82ZM38 118V124H30V116H38V118ZM38 134V140H30V132H38V134Z" fill="#FFC7B2"/>
<path d="M170 56V64V72V144V148V152H178V56H170Z" fill="#FF6025"/>
<path d="M178 56V152H186V56H178Z" fill="black"/>
<path d="M22 152V160H30V152H22Z" fill="black"/>
<path d="M30 152V160H32H34H36H38H46V156V152H30Z" fill="#FFC7B2"/>
<path d="M142 160H126H110H94H78H62H46H30V168H46H78H158V160H142Z" fill="#FF6025"/>
<path d="M62 152V160H78H94H108H110H126H130V152H62Z" fill="#FFC7B2"/>
<path d="M142 152V160H150V152H142Z" fill="#FFC7B2"/>
<path d="M170 152H166V160H170H178V152H170Z" fill="black"/>
<path d="M36 160H34H32H30V168H38V160H36Z" fill="black"/>
<path d="M158 160V168H166V160H158Z" fill="black"/>
<path d="M38 168V176H46V168H38Z" fill="#FF6025"/>
<path d="M78 168H38V176H158V168H78Z" fill="black"/>
<path d="M64 94V102H72V94H64Z" fill="black"/>
<path d="M80 94V102H88V94H80Z" fill="black"/>
<path d="M130 94V102H138V94H130Z" fill="black"/>
<path d="M138 86V94H146V86H138Z" fill="black"/>
<path d="M72 86V94H80V86H72Z" fill="black"/>
<path d="M146 94V102H154V94H146Z" fill="black"/>
<path d="M134 120V128H142V120H134Z" fill="black"/>
<path d="M82 120V128H90V120H82Z" fill="black"/>
<path d="M90 128V136H134V128H90Z" fill="black"/>
</svg>
