<svg width="65" height="65" viewBox="0 0 65 65" fill="none" xmlns="http://www.w3.org/2000/svg">
<path d="M17.7422 46.148V48.708V49.988V51.268H37.5822H57.4222V48.708V47.428V46.148H17.7422Z" fill="#FF6025"/>
<path d="M22.8622 33.348V20.548H21.5822H20.3022H19.0222H17.7422L17.7422 46.148H20.3022H22.8622V33.348Z" fill="#FF6025"/>
<path d="M20.3022 23.108H54.8622V46.148H20.3022V23.108Z" fill="#F6F8F7"/>
<path d="M20.3022 7.74805V10.308H22.8622V7.74805H20.3022Z" fill="#FF6025"/>
<path d="M51.0222 7.74805V10.308H53.5822V7.74805H51.0222Z" fill="#FF6025"/>
<path d="M20.3022 10.308V15.428H22.8622V10.308H20.3022Z" fill="black"/>
<path d="M51.0222 10.308V15.428H53.5822V10.308H51.0222Z" fill="black"/>
<path d="M53.5822 15.428H51.0222H29.9022H27.9822H22.8622H20.3022H11.9822H10.0622V17.988H17.1022H17.7422H24.1422H57.4222H59.9822V15.428H53.5822Z" fill="black"/>
<path d="M17.7422 17.988L17.7422 20.548H19.0222H20.3022H21.5822H22.8622H24.1422V17.988H17.7422Z" fill="#FFEBE3"/>
<path d="M24.1422 17.988V20.548H57.4222V17.988H24.1422Z" fill="#FF6025"/>
<path d="M12.6222 20.548V23.108H15.1822V21.188V20.548H12.6222Z" fill="#FF6025"/>
<path d="M24.1422 20.548H22.8622H21.5822H20.3022L20.3022 23.108H54.8622H57.4222V20.548H24.1422Z" fill="#FFC7B2"/>
<path d="M12.6222 25.668V28.228H15.1822V26.308V25.668H12.6222Z" fill="#FF6025"/>
<path d="M12.6222 37.188V39.748H15.1822V37.828V37.188H12.6222Z" fill="#FF6025"/>
<path d="M12.6222 42.308V44.868H15.1822V42.948V42.308H12.6222Z" fill="#FF6025"/>
<path d="M54.8622 23.108V27.588V30.148V46.148H57.4222V30.148V27.588V23.108H54.8622Z" fill="#FFC7B2"/>
<path d="M7.50219 17.988V23.108V25.028V48.708H10.0622V17.988H7.50219Z" fill="black"/>
<path d="M17.1022 17.988H10.0622V48.708H17.7422V17.988H17.1022ZM15.1822 21.188V23.108H12.6222V20.548H15.1822V21.188ZM15.1822 26.308V28.228H12.6222V25.668H15.1822V26.308ZM15.1822 37.828V39.748H12.6222V37.188H15.1822V37.828ZM15.1822 42.948V44.868H12.6222V42.308H15.1822V42.948Z" fill="#FFC7B2"/>
<path d="M57.4222 17.988V20.548V23.108V27.588V30.148V46.148V47.428V48.708H59.9822V17.988H57.4222Z" fill="#FF6025"/>
<path d="M59.9822 17.988V48.708H62.5422V17.988H59.9822Z" fill="black"/>
<path d="M10.0622 48.708V51.268H12.6222V48.708H10.0622Z" fill="black"/>
<path d="M12.6222 48.708V51.268H13.2622H13.9022H14.5422H15.1822H17.7422V49.988V48.708H12.6222Z" fill="#FFC7B2"/>
<path d="M48.4622 51.268H43.3422H38.2222H33.1022H27.9822H22.8622H17.7422H12.6222V53.828H17.7422H27.9822H53.5822V51.268H48.4622Z" fill="#FF6025"/>
<path d="M22.8622 48.708V51.268H27.9822H33.1022H37.5822H38.2222H43.3422H44.6222V48.708H22.8622Z" fill="#FFC7B2"/>
<path d="M48.4622 48.708V51.268H51.0222V48.708H48.4622Z" fill="#FFC7B2"/>
<path d="M57.4222 48.708H56.1422V51.268H57.4222H59.9822V48.708H57.4222Z" fill="black"/>
<path d="M14.5422 51.268H13.9022H13.2622H12.6222V53.828H15.1822V51.268H14.5422Z" fill="black"/>
<path d="M53.5822 51.268V53.828H56.1422V51.268H53.5822Z" fill="black"/>
<path d="M15.1822 53.828V56.388H17.7422V53.828H15.1822Z" fill="#FF6025"/>
<path d="M27.9822 53.828H15.1822V56.388H53.5822V53.828H27.9822Z" fill="black"/>
<path d="M23.5022 30.148V32.708H26.0622V30.148H23.5022Z" fill="black"/>
<path d="M28.6222 30.148V32.708H31.1822V30.148H28.6222Z" fill="black"/>
<path d="M44.6222 30.148V32.708H47.1822V30.148H44.6222Z" fill="black"/>
<path d="M47.1822 27.588V30.148H49.7422V27.588H47.1822Z" fill="black"/>
<path d="M26.0622 27.588V30.148H28.6222V27.588H26.0622Z" fill="black"/>
<path d="M49.7422 30.148V32.708H52.3022V30.148H49.7422Z" fill="black"/>
<path d="M45.9022 38.468V41.028H48.4622V38.468H45.9022Z" fill="black"/>
<path d="M29.2622 38.468V41.028H31.8222V38.468H29.2622Z" fill="black"/>
<path d="M31.8222 41.028V43.588H45.9022V41.028H31.8222Z" fill="black"/>
<path d="M27.9822 15.428H29.9022L29.9022 17.3481H27.9822V15.428Z" fill="#A04AD3"/>
<path d="M27.9822 17.3481H29.9022V19.2681H27.9822V17.3481Z" fill="#A04AD3"/>
<path d="M29.9009 19.268H31.821V21.1881H29.9009V19.268Z" fill="#A04AD3"/>
<path d="M29.9009 21.1881H31.821V23.1081H29.9009V21.1881Z" fill="#A04AD3"/>
<path d="M31.821 23.1081L33.741 23.108V25.0281H31.8209L31.821 23.1081Z" fill="#D081F4"/>
<path d="M33.741 23.108H35.6609V25.0281H33.741V23.108Z" fill="#D081F4"/>
<path d="M10.0622 11.588H11.9822V13.5081H10.0622V11.588Z" fill="#FF678E"/>
<path d="M10.0622 13.5081H11.9822L11.9822 15.428H10.0622L10.0622 13.5081Z" fill="#FF678E"/>
<path d="M11.9822 9.66805H13.9022V11.5881L11.9822 11.588L11.9822 9.66805Z" fill="#FF678E"/>
<path d="M13.9035 11.588H15.8235V13.5081H13.9035V11.588Z" fill="#FF678E"/>
<path d="M15.8222 7.74805H17.7422V9.66806H15.8222V7.74805Z" fill="#FF678E"/>
<path d="M15.8222 9.66806H17.7422V11.5881H15.8222V9.66806Z" fill="#FF678E"/>
<path d="M7.50219 23.108H5.58219V25.0281L7.50219 25.028V23.108Z" fill="#FF678E"/>
<path d="M5.58219 23.108H3.66219V25.0281H5.58219V23.108Z" fill="#FF678E"/>
<path d="M5.5822 30.788H3.66219V32.7081H5.5822V30.788Z" fill="#FF678E"/>
<path d="M3.66219 25.0281L1.74219 25.028V26.9481H3.6622L3.66219 25.0281Z" fill="#FF678E"/>
<path d="M3.6622 26.9481H1.74219V28.8681H3.6622V26.9481Z" fill="#FF678E"/>
<path d="M3.6622 28.8681H1.74219V30.7881L3.66219 30.788L3.6622 28.8681Z" fill="#FF678E"/>
<path d="M45.9647 12.866H48.5242V15.4255H45.9647V12.866Z" fill="#5279F8"/>
<path d="M48.5226 10.308H51.0821V12.8676H48.5226V10.308Z" fill="#5279F8"/>
<path d="M48.5226 15.4265H51.0821V17.986H48.5226V15.4265Z" fill="#5279F8"/>
<path d="M51.0831 15.4265H53.6427V17.986H51.0831V15.4265Z" fill="#5279F8"/>
<path d="M51.0831 20.5476H53.6427V23.1071H51.0831V20.5476Z" fill="#5279F8"/>
<path d="M53.6437 17.9871H56.2032V20.5466H53.6437V17.9871Z" fill="#5279F8"/>
<path d="M17.7422 35.9081H20.3022V38.4681H17.7422V35.9081Z" fill="#F9D952"/>
<path d="M20.3022 33.3481L22.8622 33.348L22.8622 35.9081L20.3022 35.9081L20.3022 33.3481Z" fill="#F9D952"/>
<path d="M20.3022 38.4681L22.8622 38.468V41.0281H20.3022L20.3022 38.4681Z" fill="#F9D952"/>
<path d="M22.8622 38.468H25.4222V41.0281H22.8622V38.468Z" fill="#F9D952"/>
<path d="M22.8622 43.588H25.4222V46.1481L22.8622 46.148L22.8622 43.588Z" fill="#F9D952"/>
<path d="M25.4222 41.0281L27.9822 41.028V43.5881L25.4222 43.588V41.0281Z" fill="#F9D952"/>
<path d="M54.8622 27.588H57.4222V30.148H54.8622V27.588Z" fill="#F9D952"/>
<path d="M57.4213 27.588H59.9813V30.1481H57.4213V27.588Z" fill="#F9D952"/>
<path d="M57.4213 37.8271H59.9813V40.3871H57.4213V37.8271Z" fill="#F9D952"/>
<path d="M59.983 30.1472H62.543V32.7072H59.983V30.1472Z" fill="#F9D952"/>
<path d="M59.983 32.7089H62.543V35.2689H59.983V32.7089Z" fill="#F9D952"/>
<path d="M59.983 35.268H62.543V37.828H59.983V35.268Z" fill="#F9D952"/>
</svg>
