<svg width="65" height="65" viewBox="0 0 65 65" fill="none" xmlns="http://www.w3.org/2000/svg">
<path d="M14.8787 46.7193V49.2793V50.5593V51.8393H34.7187H54.5587V49.2793V47.9993V46.7193H14.8787Z" fill="#FF6025"/>
<path d="M19.9987 21.1193H18.7187H17.4387H16.1587H14.8787L14.8787 46.7193H17.4387H19.9987L19.9987 21.1193Z" fill="#FF6025"/>
<path d="M17.4387 23.6793H51.9987V46.7193H17.4387L17.4387 23.6793Z" fill="#F6F8F7"/>
<path d="M17.4387 8.31934V10.8793H19.9987V8.31934H17.4387Z" fill="#FF6025"/>
<path d="M48.1587 8.31934V10.8793H50.7187V8.31934H48.1587Z" fill="#FF6025"/>
<path d="M17.4387 10.8793V15.9993H19.9987V10.8793H17.4387Z" fill="black"/>
<path d="M48.1587 10.8793V15.9993H50.7187V10.8793H48.1587Z" fill="black"/>
<path d="M50.7187 15.9993H48.1587H19.9987H17.4387H7.19867V18.5593H14.2387H14.8787H21.2787H54.5587H57.1187V15.9993H50.7187Z" fill="black"/>
<path d="M14.8787 18.5593L14.8787 21.1193H16.1587H17.4387H18.7187H19.9987H21.2787V18.5593H14.8787Z" fill="#FFEBE3"/>
<path d="M21.2787 18.5593V21.1193H54.5587V18.5593H21.2787Z" fill="#FF6025"/>
<path d="M9.75867 21.1193V23.6793H12.3187V21.7593V21.1193H9.75867Z" fill="#FF6025"/>
<path d="M21.2787 21.1193H19.9987H18.7187H17.4387L17.4387 23.6793H51.9987H54.5587V21.1193H21.2787Z" fill="#FFC7B2"/>
<path d="M9.75867 26.2393V28.7993H12.3187V26.8793V26.2393H9.75867Z" fill="#FF6025"/>
<path d="M9.75867 37.7593V40.3193H12.3187V38.3993V37.7593H9.75867Z" fill="#FF6025"/>
<path d="M9.75867 42.8793V45.4393H12.3187V43.5193V42.8793H9.75867Z" fill="#FF6025"/>
<path d="M51.9987 23.6793V46.7193H54.5587V23.6793H51.9987Z" fill="#FFC7B2"/>
<path d="M4.63867 18.5593V49.2793H7.19867V18.5593H4.63867Z" fill="black"/>
<path d="M14.2387 18.5593H7.19867V49.2793H14.8787V18.5593H14.2387ZM12.3187 21.7593V23.6793H9.75867V21.1193H12.3187V21.7593ZM12.3187 26.8793V28.7993H9.75867V26.2393H12.3187V26.8793ZM12.3187 38.3993V40.3193H9.75867V37.7593H12.3187V38.3993ZM12.3187 43.5193V45.4393H9.75867V42.8793H12.3187V43.5193Z" fill="#FFC7B2"/>
<path d="M54.5587 18.5593V21.1193V23.6793V46.7193V47.9993V49.2793H57.1187V18.5593H54.5587Z" fill="#FF6025"/>
<path d="M57.1187 18.5593V49.2793H59.6787V18.5593H57.1187Z" fill="black"/>
<path d="M7.19867 49.2793V51.8393H9.75867V49.2793H7.19867Z" fill="black"/>
<path d="M9.75867 49.2793V51.8393H10.3987H11.0387H11.6787H12.3187H14.8787V50.5593V49.2793H9.75867Z" fill="#FFC7B2"/>
<path d="M45.5987 51.8393H40.4787H35.3587H30.2387H25.1187H19.9987H14.8787H9.75867V54.3993H14.8787H25.1187H50.7187V51.8393H45.5987Z" fill="#FF6025"/>
<path d="M19.9987 49.2793V51.8393H25.1187H30.2387H34.7187H35.3587H40.4787H41.7587V49.2793H19.9987Z" fill="#FFC7B2"/>
<path d="M45.5987 49.2793V51.8393H48.1587V49.2793H45.5987Z" fill="#FFC7B2"/>
<path d="M54.5587 49.2793H53.2787V51.8393H54.5587H57.1187V49.2793H54.5587Z" fill="black"/>
<path d="M11.6787 51.8393H11.0387H10.3987H9.75867V54.3993H12.3187V51.8393H11.6787Z" fill="black"/>
<path d="M50.7187 51.8393V54.3993H53.2787V51.8393H50.7187Z" fill="black"/>
<path d="M12.3187 54.3993V56.9593H14.8787V54.3993H12.3187Z" fill="#FF6025"/>
<path d="M25.1187 54.3993H12.3187V56.9593H50.7187V54.3993H25.1187Z" fill="black"/>
<path d="M30.2387 32.9593H26.3987V36.7993H30.2387V32.9593Z" fill="black"/>
<path d="M37.2787 32.9593H33.4387V36.7993H37.2787V32.9593Z" fill="black"/>
<path d="M44.3187 30.9593H40.4787V34.7993H44.3187V30.9593Z" fill="black"/>
</svg>
