<svg width="65" height="65" viewBox="0 0 65 65" fill="none" xmlns="http://www.w3.org/2000/svg">
<path d="M14.8787 46.4332V48.9932V50.2732V51.5532H34.7187H54.5587V48.9932V47.7132V46.4332H14.8787Z" fill="#FF6025"/>
<path d="M19.9987 20.8332H18.7187H17.4387H16.1587H14.8787L14.8787 46.4332H17.4387H19.9987L19.9987 20.8332Z" fill="#FF6025"/>
<path d="M17.4387 23.3932H51.9987V46.4332H17.4387L17.4387 23.3932Z" fill="#F6F8F7"/>
<path d="M17.4387 8.0332V10.5932H19.9987V8.0332H17.4387Z" fill="#FF6025"/>
<path d="M48.1587 8.0332V10.5932H50.7187V8.0332H48.1587Z" fill="#FF6025"/>
<path d="M17.4387 10.5932V15.7132H19.9987V10.5932H17.4387Z" fill="black"/>
<path d="M48.1587 10.5932V15.7132H50.7187V10.5932H48.1587Z" fill="black"/>
<path d="M50.7187 15.7132H48.1587H19.9987H17.4387H7.19867V18.2732H14.2387H14.8787H21.2787H54.5587H57.1187V15.7132H50.7187Z" fill="black"/>
<path d="M14.8787 18.2732L14.8787 20.8332H16.1587H17.4387H18.7187H19.9987H21.2787V18.2732H14.8787Z" fill="#FFEBE3"/>
<path d="M21.2787 18.2732V20.8332H54.5587V18.2732H21.2787Z" fill="#FF6025"/>
<path d="M9.75867 20.8332V23.3932H12.3187V21.4732V20.8332H9.75867Z" fill="#FF6025"/>
<path d="M21.2787 20.8332H19.9987H18.7187H17.4387L17.4387 23.3932H51.9987H54.5587V20.8332H21.2787Z" fill="#FFC7B2"/>
<path d="M9.75867 25.9532V28.5132H12.3187V26.5932V25.9532H9.75867Z" fill="#FF6025"/>
<path d="M9.75867 37.4732V40.0332H12.3187V38.1132V37.4732H9.75867Z" fill="#FF6025"/>
<path d="M9.75867 42.5932V45.1532H12.3187V43.2332V42.5932H9.75867Z" fill="#FF6025"/>
<path d="M51.9987 23.3932V46.4332H54.5587V23.3932H51.9987Z" fill="#FFC7B2"/>
<path d="M4.63867 18.2732V48.9932H7.19867V18.2732H4.63867Z" fill="black"/>
<path d="M14.2387 18.2732H7.19867V48.9932H14.8787V18.2732H14.2387ZM12.3187 21.4732V23.3932H9.75867V20.8332H12.3187V21.4732ZM12.3187 26.5932V28.5132H9.75867V25.9532H12.3187V26.5932ZM12.3187 38.1132V40.0332H9.75867V37.4732H12.3187V38.1132ZM12.3187 43.2332V45.1532H9.75867V42.5932H12.3187V43.2332Z" fill="#FFC7B2"/>
<path d="M54.5587 18.2732V20.8332V23.3932V46.4332V47.7132V48.9932H57.1187V18.2732H54.5587Z" fill="#FF6025"/>
<path d="M57.1187 18.2732V48.9932H59.6787V18.2732H57.1187Z" fill="black"/>
<path d="M7.19867 48.9932V51.5532H9.75867V48.9932H7.19867Z" fill="black"/>
<path d="M9.75867 48.9932V51.5532H10.3987H11.0387H11.6787H12.3187H14.8787V50.2732V48.9932H9.75867Z" fill="#FFC7B2"/>
<path d="M45.5987 51.5532H40.4787H35.3587H30.2387H25.1187H19.9987H14.8787H9.75867V54.1132H14.8787H25.1187H50.7187V51.5532H45.5987Z" fill="#FF6025"/>
<path d="M19.9987 48.9932V51.5532H25.1187H30.2387H34.7187H35.3587H40.4787H41.7587V48.9932H19.9987Z" fill="#FFC7B2"/>
<path d="M45.5987 48.9932V51.5532H48.1587V48.9932H45.5987Z" fill="#FFC7B2"/>
<path d="M54.5587 48.9932H53.2787V51.5532H54.5587H57.1187V48.9932H54.5587Z" fill="black"/>
<path d="M11.6787 51.5532H11.0387H10.3987H9.75867V54.1132H12.3187V51.5532H11.6787Z" fill="black"/>
<path d="M50.7187 51.5532V54.1132H53.2787V51.5532H50.7187Z" fill="black"/>
<path d="M12.3187 54.1132V56.6732H14.8787V54.1132H12.3187Z" fill="#FF6025"/>
<path d="M25.1187 54.1132H12.3187V56.6732H50.7187V54.1132H25.1187Z" fill="black"/>
<path d="M30.2387 32.6732H26.3987V36.5132H30.2387V32.6732Z" fill="black"/>
<path d="M37.2787 30.6732H33.4387V34.5132H37.2787V30.6732Z" fill="black"/>
<path d="M44.3187 32.6732H40.4787V36.5132H44.3187V32.6732Z" fill="black"/>
</svg>
