<svg width="65" height="65" viewBox="0 0 65 65" fill="none" xmlns="http://www.w3.org/2000/svg">
<path d="M14.8962 46.15V48.71V49.99V51.27H34.7362H54.5763V48.71V47.43V46.15H14.8962Z" fill="#FF6025"/>
<path d="M20.0163 20.55H18.7362H17.4563H16.1763H14.8963L14.8962 46.15H17.4562H20.0162L20.0163 20.55Z" fill="#FF6025"/>
<path d="M17.4563 23.11H52.0163V46.15H17.4562L17.4563 23.11Z" fill="#F6F8F7"/>
<path d="M17.4563 7.75V10.31H20.0163V7.75H17.4563Z" fill="#FF6025"/>
<path d="M48.1763 7.75V10.31H50.7363V7.75H48.1763Z" fill="#FF6025"/>
<path d="M17.4563 10.31V15.43H20.0163V10.31H17.4563Z" fill="black"/>
<path d="M48.1763 10.31V15.43H50.7363V10.31H48.1763Z" fill="black"/>
<path d="M50.7363 15.43H48.1763H20.0163H17.4563H7.21625V17.99H14.2563H14.8962H21.2963H54.5763H57.1362V15.43H50.7363Z" fill="black"/>
<path d="M14.8962 17.99L14.8963 20.55H16.1763H17.4563H18.7362H20.0163H21.2963V17.99H14.8962Z" fill="#FFEBE3"/>
<path d="M21.2963 17.99V20.55H54.5763V17.99H21.2963Z" fill="#FF6025"/>
<path d="M9.77625 20.55V23.11H12.3363V21.19V20.55H9.77625Z" fill="#FF6025"/>
<path d="M21.2963 20.55H20.0163H18.7362H17.4563L17.4563 23.11H52.0163H54.5763V20.55H21.2963Z" fill="#FFC7B2"/>
<path d="M9.77625 25.67V28.23H12.3363V26.31V25.67H9.77625Z" fill="#FF6025"/>
<path d="M22.5763 28.23V34.63H25.1362V28.23H22.5763Z" fill="black"/>
<path d="M45.6162 28.23V34.63H48.1763V28.23H45.6162Z" fill="black"/>
<path d="M9.77625 37.19V39.75H12.3363V37.83V37.19H9.77625Z" fill="#FF6025"/>
<path d="M28.9762 41.03V43.59H43.0563V41.03H28.9762Z" fill="black"/>
<path d="M9.77625 42.31V44.87H12.3363V42.95V42.31H9.77625Z" fill="#FF6025"/>
<path d="M52.0163 23.11V46.15H54.5763V23.11H52.0163Z" fill="#FFC7B2"/>
<path d="M4.65625 17.99V48.71H7.21625V17.99H4.65625Z" fill="black"/>
<path d="M14.2563 17.99H7.21625V48.71H14.8962V17.99H14.2563ZM12.3363 21.19V23.11H9.77625V20.55H12.3363V21.19ZM12.3363 26.31V28.23H9.77625V25.67H12.3363V26.31ZM12.3363 37.83V39.75H9.77625V37.19H12.3363V37.83ZM12.3363 42.95V44.87H9.77625V42.31H12.3363V42.95Z" fill="#FFC7B2"/>
<path d="M54.5763 17.99V20.55V23.11V46.15V47.43V48.71H57.1362V17.99H54.5763Z" fill="#FF6025"/>
<path d="M57.1362 17.99V48.71H59.6963V17.99H57.1362Z" fill="black"/>
<path d="M7.21625 48.71V51.27H9.77625V48.71H7.21625Z" fill="black"/>
<path d="M9.77625 48.71V51.27H10.4163H11.0563H11.6962H12.3363H14.8962V49.99V48.71H9.77625Z" fill="#FFC7B2"/>
<path d="M45.6162 51.27H40.4963H35.3763H30.2563H25.1362H20.0163H14.8962H9.77625V53.83H14.8962H25.1362H50.7363V51.27H45.6162Z" fill="#FF6025"/>
<path d="M20.0163 48.71V51.27H25.1362H30.2563H34.7362H35.3763H40.4963H41.7763V48.71H20.0163Z" fill="#FFC7B2"/>
<path d="M45.6162 48.71V51.27H48.1763V48.71H45.6162Z" fill="#FFC7B2"/>
<path d="M54.5763 48.71H53.2962V51.27H54.5763H57.1362V48.71H54.5763Z" fill="black"/>
<path d="M11.6962 51.27H11.0563H10.4163H9.77625V53.83H12.3363V51.27H11.6962Z" fill="black"/>
<path d="M50.7363 51.27V53.83H53.2962V51.27H50.7363Z" fill="black"/>
<path d="M12.3363 53.83V56.39H14.8962V53.83H12.3363Z" fill="#FF6025"/>
<path d="M25.1362 53.83H12.3363V56.39H50.7363V53.83H25.1362Z" fill="black"/>
</svg>
