<svg width="258" height="228" viewBox="0 0 258 228" fill="none" xmlns="http://www.w3.org/2000/svg">
<path d="M48 180V192V198V204H141H234V192V186V180H48Z" fill="#FF6025"/>
<path d="M72 60H66H60H54H48L48 180H60H72L72 60Z" fill="#FF6025"/>
<path d="M60 72H222V180H60L60 72Z" fill="#F6F8F7"/>
<path d="M60 0V12H72V0H60Z" fill="#FF6025"/>
<path d="M204 0V12H216V0H204Z" fill="#FF6025"/>
<path d="M60 12V36H72V12H60Z" fill="black"/>
<path d="M204 12V36H216V12H204Z" fill="black"/>
<path d="M216 36H204H72H60H12V48H45H48H78H234H246V36H216Z" fill="black"/>
<path d="M48 48L48 60H54H60H66H72H78V48H48Z" fill="#FFEBE3"/>
<path d="M78 48V60H234V48H78Z" fill="#FF6025"/>
<path d="M24 60V72H36V63V60H24Z" fill="#FF6025"/>
<path d="M78 60H72H66H60L60 72H222H234V60H78Z" fill="#FFC7B2"/>
<path d="M24 84V96H36V87V84H24Z" fill="#FF6025"/>
<path d="M24 138V150H36V141V138H24Z" fill="#FF6025"/>
<path d="M24 162V174H36V165V162H24Z" fill="#FF6025"/>
<path d="M222 72V180H234V72H222Z" fill="#FFC7B2"/>
<path d="M0 48V192H12V48H0Z" fill="black"/>
<path d="M45 48H12V192H48V48H45ZM36 63V72H24V60H36V63ZM36 87V96H24V84H36V87ZM36 141V150H24V138H36V141ZM36 165V174H24V162H36V165Z" fill="#FFC7B2"/>
<path d="M234 48V60V72V180V186V192H246V48H234Z" fill="#FF6025"/>
<path d="M246 48V192H258V48H246Z" fill="black"/>
<path d="M12 192V204H24V192H12Z" fill="black"/>
<path d="M24 192V204H27H30H33H36H48V198V192H24Z" fill="#FFC7B2"/>
<path d="M192 204H168H144H120H96H72H48H24V216H48H96H216V204H192Z" fill="#FF6025"/>
<path d="M72 192V204H96H120H141H144H168H174V192H72Z" fill="#FFC7B2"/>
<path d="M192 192V204H204V192H192Z" fill="#FFC7B2"/>
<path d="M234 192H228V204H234H246V192H234Z" fill="black"/>
<path d="M33 204H30H27H24V216H36V204H33Z" fill="black"/>
<path d="M216 204V216H228V204H216Z" fill="black"/>
<path d="M36 216V228H48V216H36Z" fill="#FF6025"/>
<path d="M96 216H36V228H216V216H96Z" fill="black"/>
<path d="M72 84V166H84V84H72Z" fill="black"/>
<path d="M93 84V166H105V84H93Z" fill="black"/>
<path d="M114 84V166H126V84H114Z" fill="black"/>
<path d="M135 84V166H147V84H135Z" fill="#CCCCCC"/>
<path d="M156 84V166H168V84H156Z" fill="#CCCCCC"/>
<path d="M177 84V166H189V84H177Z" fill="#CCCCCC"/>
<path d="M198 84V166H210V84H198Z" fill="#CCCCCC"/>
</svg>
