<svg width="39" height="39" viewBox="0 0 39 39" fill="none" xmlns="http://www.w3.org/2000/svg">
<rect x="1.60938" y="1.85547" width="35" height="35" rx="9.5" fill="#D80027"/>
<rect x="1.60938" y="1.85547" width="35" height="35" rx="9.5" stroke-width="3"/>
<g clip-path="url(#clip0_1091_28995)">
<path d="M12.1123 17.2667L13.9248 19.8553C14.2383 20.3014 14.0832 20.7008 13.5081 20.7008H12.3751C12.9809 23.8585 15.7597 26.2433 19.1067 26.2433C20.0145 26.2433 20.8846 26.0669 21.6819 25.7447C21.7151 26.2199 21.8162 26.6761 21.9781 27.1035C21.0833 27.4367 20.1154 27.6167 19.1067 27.6167C15.0008 27.6167 11.5904 24.6176 10.9588 20.7008H9.79508C9.20963 20.7008 9.06491 20.3014 9.38525 19.8467L11.1995 17.2667C11.4648 16.8877 11.8556 16.8963 12.1123 17.2667ZM27.2529 17.9958H28.4269C29.002 17.9958 29.1571 18.3953 28.835 18.8501L27.8858 20.2011C27.5626 20.1351 27.2282 20.1015 26.8867 20.1015C26.3503 20.1015 25.8318 20.184 25.3436 20.3369L24.2954 18.8415C23.9819 18.3953 24.1285 17.9958 24.7035 17.9958H25.8468C25.2411 14.8382 22.4605 12.4535 19.1067 12.4535C17.0827 12.4535 15.2587 13.3283 13.9886 14.7279C13.6583 15.0962 13.3037 15.0757 13.0386 14.8897C12.7409 14.6625 12.6188 14.1962 12.9577 13.8193C14.4687 12.1305 16.6765 11.0801 19.1067 11.0801C23.2109 11.0801 26.6213 14.0792 27.2529 17.9958Z" fill="white"/>
<path d="M31.0076 25.3266C31.0076 27.5774 29.1226 29.4537 26.8908 29.4537C24.6333 29.4537 22.7656 27.5946 22.7656 25.3266C22.7656 23.0708 24.6333 21.21 26.8908 21.21C29.1501 21.21 31.0076 23.0692 31.0076 25.3266ZM28.0527 23.4139L26.8686 24.5997L25.7706 23.5121C25.5726 23.3226 25.2677 23.3277 25.0712 23.5121C24.8833 23.6896 24.8886 24.0031 25.0712 24.2047L26.1674 25.3009L24.973 26.4953C24.7627 26.7055 24.8022 27.019 24.997 27.2223C25.2003 27.4256 25.5174 27.4565 25.724 27.2481L26.9201 26.0537L28.0146 27.1481C28.2144 27.341 28.521 27.3359 28.7157 27.1481C28.9019 26.9603 28.9001 26.6484 28.7157 26.4555L27.6196 25.3525L28.8055 24.1684C29.0243 23.9496 28.983 23.6326 28.7882 23.4396C28.5849 23.2398 28.2696 23.1969 28.0527 23.4139Z" fill="white"/>
</g>
<defs>
<clipPath id="clip0_1091_28995">
<rect width="26.0052" height="22.4" fill="white" transform="translate(6.10156 8.15527)"/>
</clipPath>
</defs>
</svg>
