<svg width="127" height="27" viewBox="0 0 127 27" fill="none" xmlns="http://www.w3.org/2000/svg">
<path fill-rule="evenodd" clip-rule="evenodd" d="M109.827 13.6818V8.66624L126.108 8.68357V27.0006H109.899V15.8486H120.936V13.6818H109.827ZM120.936 19.7778H115.071V22.0602H120.936V19.7778Z"/>
<path d="M100.336 26.9718H95.0489V8.68357H107.126V13.6818H100.336V26.9718Z"/>
<path d="M91.8708 27.0006H75.6625V8.68357H80.8341V22.0602H86.6992V8.68357H91.8708V27.0006Z"/>
<path d="M72.9756 26.9718H59.5698V8.68357H72.9756V13.6818H64.7414V22.0602H72.9756V26.9718Z"/>
<path d="M56.3628 27.0006H41.9747V22.0602H51.1045V19.72H41.9747V8.71246H56.3628V13.6818H47.233V15.9064H56.3628V27.0006Z"/>
<path fill-rule="evenodd" clip-rule="evenodd" d="M39.0855 27.0006H21.6927V0.333984H26.951V8.71246H39.0855V27.0006ZM26.951 13.6818V22.0602H33.9139V13.6818H26.951Z"/>
<path fill-rule="evenodd" clip-rule="evenodd" d="M0.890625 27.0006V8.71246H18.2835V27.0006H0.890625ZM6.14893 13.6818V22.0602H13.1118V13.6818H6.14893Z"/>
</svg>
