<svg width="18" height="16" viewBox="0 0 18 16" fill="none" xmlns="http://www.w3.org/2000/svg">
<rect x="0.582031" y="2.33594" width="17.1429" height="12.8574" rx="2.14288" fill="white"/>
<path d="M5.01004 4.47852H4.60826H4.20647H3.80469V4.79995V5.12139V5.44282V5.76426V6.08569V6.40713V6.72856V7.05V7.37144V7.69287H4.20647H4.60826H5.01004H5.41183V7.37144V7.05V6.72856V6.40713V6.08569V5.76426V5.44282V5.12139V4.79995V4.47852H5.01004Z" fill="#222528"/>
<path d="M5.01004 0.193359H4.60826H4.20647H3.80469V0.514795V0.836231V1.15767V1.4791V1.80054V2.12197V2.44341V2.76484V3.08628V3.40772H4.20647H4.60826H5.01004H5.41183V3.08628V2.76484V2.44341V2.12197V1.80054V1.4791V1.15767V0.836231V0.514795V0.193359H5.01004Z" fill="white"/>
<path d="M14.1097 0.193359H13.7079H13.3061H12.9043V0.514795V0.836231V1.15767V1.4791V1.80054V2.12197V2.44341V2.76484V3.08628V3.40772H13.3061H13.7079H14.1097H14.5114V3.08628V2.76484V2.44341V2.12197V1.80054V1.4791V1.15767V0.836231V0.514795V0.193359H14.1097Z" fill="white"/>
<path d="M14.1097 4.47852H13.7079H13.3061H12.9043V4.79995V5.12139V5.44282V5.76426V6.08569V6.40713V6.72856V7.05V7.37144V7.69287H13.3061H13.7079H14.1097H14.5114V7.37144V7.05V6.72856V6.40713V6.08569V5.76426V5.44282V5.12139V4.79995V4.47852H14.1097Z" fill="#222528"/>
<path d="M6.06473 9.83887H5.66295H5.26116H4.85938V10.2407V10.6425V11.0443V11.446H5.26116H5.66295H6.06473H6.46652V11.0443V10.6425V10.2407V9.83887H6.06473Z" fill="#222528"/>
<path d="M13.0374 9.83887H12.6356H12.2338H11.832V10.2407V10.6425V11.0443V11.446H12.2338H12.6356H13.0374H13.4392V11.0443V10.6425V10.2407V9.83887H13.0374Z" fill="#222528"/>
<path d="M11.5961 11.4414H11.3526H11.109H10.8655H10.622H10.3785H10.135H9.89151H9.64801H9.4045H9.16099H8.91749H8.67398H8.43047H8.18697H7.94346H7.69995H7.45645H7.21294H6.96943H6.72593H6.48242V11.8432V12.245V12.6468V13.0486H6.72593H6.96943H7.21294H7.45645H7.69995H7.94346H8.18697H8.43047H8.67398H8.91749H9.16099H9.4045H9.64801H9.89151H10.135H10.3785H10.622H10.8655H11.109H11.3526H11.5961H11.8396V12.6468V12.245V11.8432V11.4414H11.5961Z" fill="#222528"/>
</svg>
