<svg width="11" height="14" viewBox="0 0 11 14" fill="none" xmlns="http://www.w3.org/2000/svg">
<path d="M5.5332 13.3657C5.46973 13.3657 5.39567 13.353 5.31104 13.3276C5.23063 13.3065 5.14811 13.2747 5.06348 13.2324C4.15365 12.7542 3.38135 12.3205 2.74658 11.9312C2.11605 11.5461 1.60824 11.1652 1.22314 10.7886C0.838053 10.4119 0.556641 10.0057 0.378906 9.56982C0.205404 9.13395 0.118652 8.63249 0.118652 8.06543V3.45068C0.118652 3.00635 0.201172 2.67204 0.366211 2.44775C0.53125 2.22347 0.808431 2.03092 1.19775 1.87012C1.32048 1.81934 1.49821 1.75163 1.73096 1.66699C1.9637 1.57812 2.22184 1.48503 2.50537 1.3877C2.79313 1.28613 3.07878 1.18669 3.3623 1.08936C3.65007 0.992025 3.9082 0.905273 4.13672 0.829102C4.36947 0.75293 4.54297 0.695801 4.65723 0.657715C4.79688 0.615397 4.94287 0.581543 5.09521 0.556152C5.25179 0.530762 5.39779 0.518066 5.5332 0.518066C5.66862 0.518066 5.81462 0.530762 5.97119 0.556152C6.132 0.581543 6.28011 0.615397 6.41553 0.657715C6.52979 0.695801 6.70117 0.75293 6.92969 0.829102C7.16243 0.905273 7.42057 0.992025 7.7041 1.08936C7.98763 1.18669 8.27327 1.28613 8.56104 1.3877C8.8488 1.48503 9.10905 1.57601 9.3418 1.66064C9.57454 1.74528 9.75228 1.8151 9.875 1.87012C10.2643 2.03092 10.5394 2.22347 10.7002 2.44775C10.8652 2.67204 10.9478 3.00635 10.9478 3.45068V8.06543C10.9478 8.63249 10.861 9.13607 10.6875 9.57617C10.5182 10.0163 10.241 10.4289 9.85596 10.814C9.4751 11.1948 8.9694 11.5778 8.33887 11.9629C7.70833 12.348 6.9318 12.7712 6.00928 13.2324C5.92464 13.2747 5.84001 13.3065 5.75537 13.3276C5.67497 13.353 5.60091 13.3657 5.5332 13.3657ZM4.84131 9.7793C4.98096 9.7793 5.10791 9.74756 5.22217 9.68408C5.34066 9.61637 5.44222 9.52116 5.52686 9.39844L8.47852 4.8916C8.5293 4.8112 8.5695 4.72868 8.59912 4.64404C8.63298 4.55941 8.6499 4.47689 8.6499 4.39648C8.6499 4.20182 8.57585 4.04102 8.42773 3.91406C8.28385 3.78711 8.1167 3.72363 7.92627 3.72363C7.6766 3.72363 7.46712 3.85905 7.29785 4.12988L4.82861 8.05908L3.71777 6.70068C3.63314 6.59489 3.54427 6.51872 3.45117 6.47217C3.3623 6.42562 3.25863 6.40234 3.14014 6.40234C2.94971 6.40234 2.78467 6.47217 2.64502 6.61182C2.50537 6.74723 2.43555 6.91227 2.43555 7.10693C2.43555 7.20003 2.45247 7.2889 2.48633 7.37354C2.52018 7.45817 2.57308 7.54492 2.64502 7.63379L4.13037 9.41113C4.23193 9.53385 4.33984 9.62695 4.4541 9.69043C4.56836 9.74967 4.69743 9.7793 4.84131 9.7793Z" fill="#FF6025"/>
<path d="M5.5332 13.3657C5.46973 13.3657 5.39567 13.353 5.31104 13.3276C5.23063 13.3065 5.14811 13.2747 5.06348 13.2324C4.15365 12.7542 3.38135 12.3205 2.74658 11.9312C2.11605 11.5461 1.60824 11.1652 1.22314 10.7886C0.838053 10.4119 0.556641 10.0057 0.378906 9.56982C0.205404 9.13395 0.118652 8.63249 0.118652 8.06543V3.45068C0.118652 3.00635 0.201172 2.67204 0.366211 2.44775C0.53125 2.22347 0.808431 2.03092 1.19775 1.87012C1.32048 1.81934 1.49821 1.75163 1.73096 1.66699C1.9637 1.57812 2.22184 1.48503 2.50537 1.3877C2.79313 1.28613 3.07878 1.18669 3.3623 1.08936C3.65007 0.992025 3.9082 0.905273 4.13672 0.829102C4.36947 0.75293 4.54297 0.695801 4.65723 0.657715C4.79688 0.615397 4.94287 0.581543 5.09521 0.556152C5.25179 0.530762 5.39779 0.518066 5.5332 0.518066C5.66862 0.518066 5.81462 0.530762 5.97119 0.556152C6.132 0.581543 6.28011 0.615397 6.41553 0.657715C6.52979 0.695801 6.70117 0.75293 6.92969 0.829102C7.16243 0.905273 7.42057 0.992025 7.7041 1.08936C7.98763 1.18669 8.27327 1.28613 8.56104 1.3877C8.8488 1.48503 9.10905 1.57601 9.3418 1.66064C9.57454 1.74528 9.75228 1.8151 9.875 1.87012C10.2643 2.03092 10.5394 2.22347 10.7002 2.44775C10.8652 2.67204 10.9478 3.00635 10.9478 3.45068V8.06543C10.9478 8.63249 10.861 9.13607 10.6875 9.57617C10.5182 10.0163 10.241 10.4289 9.85596 10.814C9.4751 11.1948 8.9694 11.5778 8.33887 11.9629C7.70833 12.348 6.9318 12.7712 6.00928 13.2324C5.92464 13.2747 5.84001 13.3065 5.75537 13.3276C5.67497 13.353 5.60091 13.3657 5.5332 13.3657ZM4.84131 9.7793C4.98096 9.7793 5.10791 9.74756 5.22217 9.68408C5.34066 9.61637 5.44222 9.52116 5.52686 9.39844L8.47852 4.8916C8.5293 4.8112 8.5695 4.72868 8.59912 4.64404C8.63298 4.55941 8.6499 4.47689 8.6499 4.39648C8.6499 4.20182 8.57585 4.04102 8.42773 3.91406C8.28385 3.78711 8.1167 3.72363 7.92627 3.72363C7.6766 3.72363 7.46712 3.85905 7.29785 4.12988L4.82861 8.05908L3.71777 6.70068C3.63314 6.59489 3.54427 6.51872 3.45117 6.47217C3.3623 6.42562 3.25863 6.40234 3.14014 6.40234C2.94971 6.40234 2.78467 6.47217 2.64502 6.61182C2.50537 6.74723 2.43555 6.91227 2.43555 7.10693C2.43555 7.20003 2.45247 7.2889 2.48633 7.37354C2.52018 7.45817 2.57308 7.54492 2.64502 7.63379L4.13037 9.41113C4.23193 9.53385 4.33984 9.62695 4.4541 9.69043C4.56836 9.74967 4.69743 9.7793 4.84131 9.7793Z" fill="url(#paint0_linear_201_1133)" style="mix-blend-mode:soft-light"/>
<defs>
<linearGradient id="paint0_linear_201_1133" x1="6" y1="-1.57031" x2="6" y2="14.4297" gradientUnits="userSpaceOnUse">
<stop stop-color="white"/>
<stop offset="1" stop-color="white" stop-opacity="0"/>
</linearGradient>
</defs>
</svg>
