<svg width="36" height="36" viewBox="0 0 36 36" fill="none" xmlns="http://www.w3.org/2000/svg">
<rect x="1.2" y="1.55547" width="33.6" height="33.6" rx="8.8" fill="#D80027"/>
<rect x="1.2" y="1.55547" width="33.6" height="33.6" rx="8.8" stroke-width="1.6"/>
<g clip-path="url(#clip0_1091_29267)">
<path d="M22.5999 11.8523V12.0028C22.5999 14.0853 20.3995 16.2829 19.202 17.4694C18.6506 18.0117 18.6141 18.6124 19.202 19.2003C19.6713 19.6653 20.2948 20.2874 20.8787 20.998L19.5826 23.3179L17.9946 21.8078C17.8921 21.7125 17.8538 21.6687 17.8538 21.5332V17.7248C17.8538 17.3251 17.9286 17.1262 18.2134 16.8797C18.7995 16.3776 19.6102 15.6872 20.1319 15.1249C20.3601 14.8983 20.2415 14.6299 19.9766 14.6299H15.1389C14.874 14.6299 14.7535 14.8983 14.9744 15.1249C15.5035 15.6872 16.316 16.3776 16.893 16.8797C17.1869 17.1262 17.2617 17.3251 17.2617 17.7248V21.5332C17.2617 21.6687 17.2233 21.7125 17.1208 21.8078L14.3742 24.4198C14.1238 24.6518 14.2062 25.081 14.577 25.081H18.5975L17.9455 26.2482H13.9246C13.0493 26.2482 12.5156 25.7601 12.5156 24.8393V24.6668C12.5156 22.5953 14.716 20.3868 15.9135 19.2003C16.5014 18.6124 16.4559 18.0117 15.9135 17.4694C14.716 16.2829 12.5156 14.0853 12.5156 12.0028V11.8523C12.5156 10.9315 13.0493 10.4434 13.9246 10.4434H21.1909C22.0662 10.4434 22.5999 10.9315 22.5999 11.8523Z" fill="white"/>
<path d="M24.3467 20.7889L28.0816 27.45C28.1803 27.6347 28.2334 27.8195 28.2334 28.0132C28.2334 28.6714 27.7871 29.1763 27.0722 29.1763H19.6208C18.915 29.1763 18.4688 28.6714 18.4688 28.0132C18.4688 27.8195 18.5199 27.6347 18.626 27.4518L22.3444 20.7889C22.5602 20.3939 22.9588 20.1982 23.3556 20.1982C23.7341 20.1982 24.1218 20.3939 24.3467 20.7889ZM22.6281 27.1298C22.6281 27.5393 22.9534 27.8665 23.3537 27.8665C23.7522 27.8665 24.0794 27.5393 24.0812 27.1298C24.0832 26.7442 23.754 26.406 23.3537 26.406C22.9553 26.406 22.6281 26.7424 22.6281 27.1298ZM22.7636 22.8606L22.833 25.3107C22.8422 25.6105 23.0487 25.8097 23.3556 25.8097C23.6535 25.8097 23.8691 25.6105 23.8781 25.3107L23.9403 22.8606C23.9494 22.5044 23.7137 22.2668 23.3556 22.2668C22.9884 22.2668 22.7546 22.5044 22.7636 22.8606Z" fill="white"/>
</g>
<defs>
<clipPath id="clip0_1091_29267">
<rect width="24" height="23" fill="white" transform="translate(6.5 7.35547)"/>
</clipPath>
</defs>
</svg>
