<svg width="66" height="38" viewBox="0 0 66 38" fill="none" xmlns="http://www.w3.org/2000/svg">
<g clip-path="url(#clip0_1091_29335)">
<rect x="31.7969" y="2.6875" width="32" height="32" rx="8" fill="#C4C4C4"/>
<path d="M40.592 16.0906L42.3722 18.6732C42.6801 19.1183 42.5278 19.5169 41.963 19.5169H40.8502C41.4452 22.6674 44.1744 25.0467 47.4618 25.0467C48.3535 25.0467 49.2081 24.8708 49.9911 24.5493C50.0237 25.0234 50.1231 25.4787 50.282 25.9051C49.4032 26.2374 48.4525 26.417 47.4618 26.417C43.4291 26.417 40.0794 23.4246 39.459 19.5169H38.3161C37.7411 19.5169 37.5989 19.1183 37.9135 18.6647L39.6955 16.0906C39.956 15.7124 40.3399 15.7211 40.592 16.0906ZM55.4628 16.818H56.616C57.1808 16.818 57.3331 17.2166 57.0168 17.6703L56.0846 19.0183C55.767 18.9524 55.4387 18.9189 55.1033 18.9189C54.5763 18.9189 54.0671 19.0012 53.5876 19.1538L52.5581 17.6617C52.2502 17.2166 52.3941 16.818 52.9589 16.818H54.0819C53.4868 13.6676 50.7559 11.2882 47.4618 11.2882C45.4738 11.2882 43.6824 12.1611 42.4349 13.5576C42.1104 13.925 41.7622 13.9045 41.5018 13.7189C41.2094 13.4923 41.0894 13.027 41.4224 12.651C42.9064 10.966 45.0749 9.91797 47.4618 9.91797C51.4929 9.91797 54.8425 12.9103 55.4628 16.818Z" fill="white"/>
<path d="M59.1587 24.1336C59.1587 26.3792 57.3073 28.2513 55.1153 28.2513C52.8979 28.2513 51.0635 26.3963 51.0635 24.1336C51.0635 21.8829 52.8979 20.0262 55.1153 20.0262C57.3343 20.0262 59.1587 21.8812 59.1587 24.1336ZM56.5554 22.3152L54.6137 25.0551L53.6292 23.9741C53.5429 23.8864 53.4211 23.8055 53.2485 23.8055C52.976 23.8055 52.751 24.0238 52.751 24.3091C52.751 24.4261 52.7899 24.5773 52.8847 24.6754L54.2364 26.1827C54.3328 26.2996 54.5004 26.3495 54.634 26.3495C54.805 26.3495 54.9691 26.2807 55.0469 26.1638L57.3607 22.8911C57.4352 22.7948 57.4741 22.6831 57.4741 22.592C57.4741 22.3067 57.2406 22.0866 56.9784 22.0866C56.7923 22.0866 56.6417 22.1812 56.5554 22.3152Z" fill="white"/>
</g>
<rect x="30.9969" y="1.8875" width="33.6" height="33.6" rx="8.8" stroke-width="1.6"/>
<rect x="1.8" y="1.4875" width="34.4" height="34.4" rx="9.2" fill="#2FA73B"/>
<rect x="1.8" y="1.4875" width="34.4" height="34.4" rx="9.2" stroke-width="2.4"/>
<path d="M23.4939 12.1219V12.2739C23.4939 14.3781 21.2706 16.5986 20.0607 17.7974C19.5035 18.3453 19.4666 18.9523 20.0607 19.5463C20.3401 19.8232 20.6736 20.1551 21.022 20.5296C20.2772 21.0544 19.6677 21.7582 19.2574 22.5773L18.8408 22.181C18.7372 22.0848 18.6985 22.0404 18.6985 21.9036V18.0556C18.6985 17.6515 18.774 17.4506 19.0618 17.2016C19.654 16.6943 20.4731 15.9966 21.0002 15.4285C21.2309 15.1996 21.111 14.9283 20.8434 14.9283H15.9553C15.6876 14.9283 15.5658 15.1996 15.7891 15.4285C16.3236 15.9966 17.1446 16.6943 17.7276 17.2016C18.0246 17.4506 18.1002 17.6515 18.1002 18.0556V21.9036C18.1002 22.0404 18.0615 22.0848 17.9579 22.181L15.1826 24.8201C14.9296 25.0547 15.0129 25.4883 15.3875 25.4883H18.6698C18.6926 25.8964 18.765 26.291 18.8798 26.6677H14.7283C13.844 26.6677 13.3047 26.1745 13.3047 25.2441V25.0698C13.3047 22.9767 15.528 20.7452 16.738 19.5463C17.3319 18.9523 17.2859 18.3453 16.738 17.7974C15.528 16.5986 13.3047 14.3781 13.3047 12.2739V12.1219C13.3047 11.1914 13.844 10.6982 14.7283 10.6982H22.0703C22.9547 10.6982 23.4939 11.1914 23.4939 12.1219Z" fill="white"/>
<path d="M28.6901 25.0876C28.6901 27.499 26.6706 29.5094 24.2793 29.5094C21.8605 29.5094 19.8594 27.5174 19.8594 25.0876C19.8594 22.6706 21.8605 20.6768 24.2793 20.6768C26.7 20.6768 28.6901 22.6688 28.6901 25.0876ZM25.8503 23.1348L23.7322 26.0771L22.6583 24.9163C22.5641 24.8221 22.4312 24.7352 22.2429 24.7352C21.9457 24.7352 21.7003 24.9696 21.7003 25.276C21.7003 25.4016 21.7427 25.564 21.8461 25.6693L23.3206 27.288C23.4258 27.4135 23.6086 27.4671 23.7544 27.4671C23.9409 27.4671 24.1199 27.3933 24.2048 27.2677L26.7288 23.7532C26.81 23.6499 26.8525 23.5299 26.8525 23.432C26.8525 23.1256 26.5979 22.8894 26.3117 22.8894C26.1088 22.8894 25.9445 22.9909 25.8503 23.1348Z" fill="white"/>
<defs>
<clipPath id="clip0_1091_29335">
<rect x="31.7969" y="2.6875" width="32" height="32" rx="8" fill="white"/>
</clipPath>
</defs>
</svg>
