<svg width="36" height="36" viewBox="0 0 36 36" fill="none" xmlns="http://www.w3.org/2000/svg">
<g clip-path="url(#clip0_1091_29131)">
<rect x="2" y="1.6875" width="32" height="32" rx="8" fill="#2FA73B"/>
<path d="M22.4939 11.1219V11.2739C22.4939 13.3781 20.2706 15.5986 19.0607 16.7974C18.5035 17.3453 18.4666 17.9523 19.0607 18.5463C19.3401 18.8232 19.6736 19.1551 20.022 19.5296C19.2772 20.0544 18.6677 20.7582 18.2574 21.5773L17.8408 21.181C17.7372 21.0848 17.6985 21.0404 17.6985 20.9036V17.0556C17.6985 16.6515 17.774 16.4506 18.0618 16.2016C18.654 15.6943 19.4731 14.9966 20.0002 14.4285C20.2309 14.1996 20.111 13.9283 19.8434 13.9283H14.9553C14.6876 13.9283 14.5658 14.1996 14.7891 14.4285C15.3236 14.9966 16.1446 15.6943 16.7276 16.2016C17.0246 16.4506 17.1002 16.6515 17.1002 17.0556V20.9036C17.1002 21.0404 17.0615 21.0848 16.9579 21.181L14.1826 23.8201C13.9296 24.0547 14.0129 24.4883 14.3875 24.4883H17.6698C17.6926 24.8964 17.765 25.291 17.8798 25.6677H13.7283C12.844 25.6677 12.3047 25.1745 12.3047 24.2441V24.0698C12.3047 21.9767 14.528 19.7452 15.738 18.5463C16.3319 17.9523 16.2859 17.3453 15.738 16.7974C14.528 15.5986 12.3047 13.3781 12.3047 11.2739V11.1219C12.3047 10.1914 12.844 9.69824 13.7283 9.69824H21.0703C21.9547 9.69824 22.4939 10.1914 22.4939 11.1219Z" fill="white"/>
<path d="M27.6901 24.0876C27.6901 26.499 25.6706 28.5094 23.2793 28.5094C20.8605 28.5094 18.8594 26.5174 18.8594 24.0876C18.8594 21.6706 20.8605 19.6768 23.2793 19.6768C25.7 19.6768 27.6901 21.6688 27.6901 24.0876ZM24.8503 22.1348L22.7322 25.0771L21.6583 23.9163C21.5641 23.8221 21.4312 23.7352 21.2429 23.7352C20.9457 23.7352 20.7003 23.9696 20.7003 24.276C20.7003 24.4016 20.7427 24.564 20.8461 24.6693L22.3206 26.288C22.4258 26.4135 22.6086 26.4671 22.7544 26.4671C22.9409 26.4671 23.1199 26.3933 23.2048 26.2677L25.7288 22.7532C25.81 22.6499 25.8525 22.5299 25.8525 22.432C25.8525 22.1256 25.5979 21.8894 25.3117 21.8894C25.1088 21.8894 24.9445 21.9909 24.8503 22.1348Z" fill="white"/>
</g>
<rect x="1.2" y="0.8875" width="33.6" height="33.6" rx="8.8" stroke-width="1.6"/>
<defs>
<clipPath id="clip0_1091_29131">
<rect x="2" y="1.6875" width="32" height="32" rx="8" fill="white"/>
</clipPath>
</defs>
</svg>
