<svg width="36" height="36" viewBox="0 0 36 36" fill="none" xmlns="http://www.w3.org/2000/svg">
<rect x="1.2" y="1.55547" width="33.6" height="33.6" rx="8.8" fill="#FF6025"/>
<rect x="1.2" y="1.55547" width="33.6" height="33.6" rx="8.8" stroke-width="1.6"/>
<path d="M10.4014 16.2677L12.2139 18.8562C12.5274 19.3024 12.3723 19.7018 11.7972 19.7018H10.6642C11.27 22.8595 14.0488 25.2442 17.3958 25.2442C18.3037 25.2442 19.1738 25.0679 19.9711 24.7456C20.0045 25.2202 20.1064 25.6763 20.269 26.1038C19.3738 26.4374 18.4052 26.6176 17.3958 26.6176C13.2899 26.6176 9.87944 23.6185 9.24785 19.7018H8.08414C7.4987 19.7018 7.35397 19.3024 7.67431 18.8476L9.48856 16.2677C9.75382 15.8887 10.1447 15.8973 10.4014 16.2677ZM25.542 16.9968H26.716C27.2911 16.9968 27.4462 17.3963 27.124 17.851L26.1751 19.2018C25.8518 19.1359 25.5174 19.1025 25.1758 19.1025C24.6391 19.1025 24.1206 19.1847 23.6322 19.3373L22.5845 17.8424C22.271 17.3963 22.4175 16.9968 22.9925 16.9968H24.1359C23.5301 13.8392 20.7496 11.4544 17.3958 11.4544C15.3718 11.4544 13.5478 12.3293 12.2777 13.7289C11.9474 14.0972 11.5928 14.0767 11.3277 13.8907C11.03 13.6635 10.9078 13.1971 11.2468 12.8203C12.7577 11.1315 14.9656 10.0811 17.3958 10.0811C21.5 10.0811 24.9104 13.0802 25.542 16.9968Z" fill="white"/>
<path d="M29.2967 24.3283C29.2967 26.5791 27.4117 28.4451 25.1799 28.4451C22.9223 28.4451 21.0547 26.5963 21.0547 24.3283C21.0547 22.0709 22.9223 20.2031 25.1799 20.2031C27.4391 20.2031 29.2967 22.0691 29.2967 24.3283ZM23.829 22.4013C23.5876 22.4013 23.4858 22.5341 23.4858 22.7255V25.9054C23.4858 26.0882 23.5876 26.221 23.829 26.221H24.3156C24.5502 26.221 24.6605 26.0882 24.6605 25.9054V22.7255C24.6605 22.5341 24.5502 22.4013 24.3156 22.4013H23.829ZM26.1199 22.4013C25.8871 22.4013 25.7681 22.5341 25.7681 22.7255V25.9054C25.7681 26.0882 25.8871 26.221 26.1199 26.221H26.6065C26.8393 26.221 26.941 26.0882 26.941 25.9054V22.7255C26.941 22.5341 26.8393 22.4013 26.6065 22.4013H26.1199Z" fill="white"/>
</svg>
