<svg width="36" height="36" viewBox="0 0 36 36" fill="none" xmlns="http://www.w3.org/2000/svg">
<rect x="1.2" y="0.8875" width="33.6" height="33.6" rx="8.8" fill="#2FA73B"/>
<rect x="1.2" y="0.8875" width="33.6" height="33.6" rx="8.8" stroke-width="1.6"/>
<path d="M10.592 15.0906L12.3722 17.6732C12.6801 18.1183 12.5278 18.5169 11.963 18.5169H10.8502C11.4452 21.6674 14.1744 24.0467 17.4618 24.0467C18.3535 24.0467 19.2081 23.8708 19.9911 23.5493C20.0237 24.0234 20.1231 24.4787 20.282 24.9051C19.4032 25.2374 18.4525 25.417 17.4618 25.417C13.4291 25.417 10.0794 22.4246 9.45903 18.5169H8.31606C7.74105 18.5169 7.59889 18.1183 7.91354 17.6647L9.69546 15.0906C9.956 14.7124 10.3399 14.7211 10.592 15.0906ZM25.4628 15.818H26.616C27.1808 15.818 27.3331 16.2166 27.0168 16.6703L26.0846 18.0183C25.767 17.9524 25.4387 17.9189 25.1033 17.9189C24.5763 17.9189 24.0671 18.0012 23.5876 18.1538L22.5581 16.6617C22.2502 16.2166 22.3941 15.818 22.9589 15.818H24.0819C23.4868 12.6676 20.7559 10.2882 17.4618 10.2882C15.4738 10.2882 13.6824 11.1611 12.4349 12.5576C12.1104 12.925 11.7622 12.9045 11.5018 12.7189C11.2094 12.4923 11.0894 12.027 11.4224 11.651C12.9064 9.96603 15.0749 8.91797 17.4618 8.91797C21.4929 8.91797 24.8425 11.9103 25.4628 15.818Z" fill="white"/>
<path d="M29.1587 23.1336C29.1587 25.3792 27.3073 27.2513 25.1153 27.2513C22.8979 27.2513 21.0635 25.3963 21.0635 23.1336C21.0635 20.8829 22.8979 19.0262 25.1153 19.0262C27.3343 19.0262 29.1587 20.8812 29.1587 23.1336ZM26.5554 21.3152L24.6137 24.0551L23.6292 22.9741C23.5429 22.8864 23.4211 22.8055 23.2485 22.8055C22.976 22.8055 22.751 23.0238 22.751 23.3091C22.751 23.4261 22.7899 23.5773 22.8847 23.6754L24.2364 25.1827C24.3328 25.2996 24.5004 25.3495 24.634 25.3495C24.805 25.3495 24.9691 25.2807 25.0469 25.1638L27.3607 21.8911C27.4352 21.7948 27.4741 21.6831 27.4741 21.592C27.4741 21.3067 27.2406 21.0866 26.9784 21.0866C26.7923 21.0866 26.6417 21.1812 26.5554 21.3152Z" fill="white"/>
</svg>
